SplineFontDB: 3.0
FontName: CosmicSansNeueMono
FullName: Cosmic Sans Neue Mono
FamilyName: CosmicSansNeueMono
Weight: Regular
Copyright: Created by Jany Belluz with FontForge 2.0 (http://fontforge.sf.net)
UComments: "2013-9-13: Created." 
Version: 1.3.1
ItalicAngle: 0
UnderlinePosition: -192
UnderlineWidth: 96
Ascent: 1650
Descent: 398
LayerCount: 2
Layer: 0 0 "Back"  1
Layer: 1 0 "Fore"  0
XUID: [1021 607 50037791 3178130]
FSType: 8
OS2Version: 3
OS2_WeightWidthSlopeOnly: 0
OS2_UseTypoMetrics: 1
CreationTime: 1379052706
ModificationTime: 1386513667
PfmFamily: 49
TTFWeight: 400
TTFWidth: 5
LineGap: 0
VLineGap: 0
Panose: 2 11 5 9 2 2 4 3 2 4
OS2TypoAscent: 1650
OS2TypoAOffset: 0
OS2TypoDescent: -398
OS2TypoDOffset: 0
OS2TypoLinegap: 100
OS2WinAscent: 1750
OS2WinAOffset: 0
OS2WinDescent: 398
OS2WinDOffset: 0
HheadAscent: 1750
HheadAOffset: 0
HheadDescent: -398
HheadDOffset: 0
OS2FamilyClass: 2057
OS2Vendor: 'PfEd'
MarkAttachClasses: 1
DEI: 91125

StartChar: a
Encoding: 97 97 0
Width: 1060
VWidth: 6
Flags: W
HStem: -10 21G<836 875.95> -6 152<275.367 541.736> 504 144<324.611 659.141> 877 151<316.149 619.625>
VStem: 78 156<186.95 423.616> 696 157<285.558 463.324 597 791.012>
LayerCount: 2
Fore
SplineSet
234 311 m 4x7c
 234 206 290 146 383 146 c 4
 563 146 670 304 696 345 c 5
 696 440 l 5
 639 475 559 504 489 504 c 4
 353 504 234 429 234 311 c 4x7c
853 318 m 4
 853 283 853 190 866 173 c 4
 879 155 916 132 945 109 c 5
 862 -10 l 5xbc
 810 30 750 55 732 156 c 5
 654 81 565 -6 383 -6 c 4
 212 -6 78 135 78 301 c 4
 78 377 108 466 167 527 c 4
 262 624 363 648 481 648 c 4
 566 648 641 630 695 597 c 5
 695 792 628 877 476 877 c 4
 338 877 283 828 203 685 c 5
 73 767 l 5
 169 949 296 1025 474 1028 c 5
 699 1028 849 878 849 657 c 4
 853 318 l 4
EndSplineSet
Validated: 1
EndChar

StartChar: b
Encoding: 98 98 1
Width: 1060
VWidth: -2
Flags: HW
HStem: -7 154<362.022 661.177> 865 155<353.582 624.122>
VStem: 93 165<5.34919 81.4914 1156.27 1403.8> 112 157<241.719 786.994 949 1399.8> 749 157<249.683 725.366>
LayerCount: 2
Fore
SplineSet
749 478 m 4xd8
 749 761 637 865 474 865 c 4
 383 865 321 795 269 744 c 5
 269 307 l 5
 340 193 387 147 524 147 c 4
 694 147 749 274 749 478 c 4xd8
906 459 m 4
 906 191 799 -7 524 -7 c 4
 412 -7 332 28 269 84 c 5xd8
 268 42 263 20 258 -12 c 5
 93 7 l 5xe8
 103 73 112 160 112 243 c 4
 112 251 112 259 112 267 c 4
 112 516 111 877 111 1157 c 4
 111 1251 103 1335 96 1403 c 5
 255 1412 l 5
 264 1339 269 1243 269 1152 c 6
 269 949 l 5
 317 985 360 1020 460 1020 c 4
 783 1020 906 795 906 459 c 4
EndSplineSet
Validated: 1
EndChar

StartChar: c
Encoding: 99 99 2
Width: 1060
VWidth: 4
Flags: HW
HStem: -7 157<359.683 740.344> 865 153<353.88 699.499>
VStem: 71 159<292.678 736.59>
LayerCount: 2
Fore
SplineSet
230 527 m 0
 230 157 437 150 547 150 c 2
 560 150 l 2
 716 150 791 215 843 302 c 1
 969 211 l 1
 936 169 843 -7 564 -7 c 0
 460 -7 337 1 241 73 c 1
 111 174 71 328 71 527 c 0
 71 894 249 1018 564 1018 c 0
 659 1018 733 994 793 948 c 0
 854 901 885 841 907 789 c 1
 753 729 l 1
 742 770 713 865 553 865 c 0
 332 865 230 766 230 527 c 0
EndSplineSet
Validated: 1
EndChar

StartChar: d
Encoding: 100 100 3
Width: 1060
VWidth: -2
Flags: HW
HStem: -7 154<317.142 616.56> 868 155<322.737 600.455>
VStem: 73 158<241.806 761.527> 710 157<241.719 782.262 949 1399.8>
LayerCount: 2
Back
SplineSet
749 478 m 4xd8
 749 761 637 865 474 865 c 4
 383 865 321 795 269 744 c 5
 269 307 l 5
 340 193 387 147 524 147 c 4
 694 147 749 274 749 478 c 4xd8
906 459 m 4
 906 191 799 -7 524 -7 c 4
 412 -7 332 28 269 84 c 5xd8
 268 42 263 20 258 -12 c 5
 93 7 l 5xe8
 103 73 112 160 112 243 c 4
 112 251 112 259 112 267 c 4
 112 516 111 877 111 1157 c 4
 111 1251 103 1335 96 1403 c 5
 255 1412 l 5
 264 1339 269 1243 269 1152 c 6
 269 949 l 5
 317 985 360 1020 460 1020 c 4
 783 1020 906 795 906 459 c 4
EndSplineSet
Fore
SplineSet
231 478 m 0
 231 274 284 147 454 147 c 0
 591 147 639 193 710 307 c 1
 710 744 l 1
 658 795 549 868 458 868 c 0
 295 868 231 761 231 478 c 0
867 267 m 1
 867 241 l 2
 867 158 875 72 885 7 c 1
 721 -12 l 1
 716 20 711 42 710 84 c 1
 647 28 566 -7 454 -7 c 0
 179 -7 73 191 73 459 c 0
 73 795 149 1023 472 1023 c 0
 572 1023 661 980 709 949 c 1
 709 1156 l 2
 709 1250 701 1335 694 1403 c 1
 854 1411 l 1
 863 1338 868 1243 868 1152 c 2
 867 267 l 1
EndSplineSet
Validated: 1
EndChar

StartChar: e
Encoding: 101 101 4
Width: 1060
VWidth: 32
Flags: HW
HStem: -10 153<346.975 678.993> 427 153<236 721.719> 869 152<361.998 651.11>
VStem: 78 158<258.732 427 580 738.031> 764 159<606.562 749.303>
LayerCount: 2
Fore
SplineSet
236 580 m 1
 365 581 622 595 764 611 c 1
 758 767 646 869 510 869 c 0
 340 869 237 734 236 580 c 1
509 1021 m 0
 886 1021 923 641 923 503 c 0
 923 483 923 468 922 460 c 1
 642 441 414 429 236 427 c 1
 236 274 319 143 505 143 c 0
 662 143 750 230 785 286 c 1
 906 183 l 1
 893 161 781 -10 501 -10 c 0
 215 -10 78 203 78 516 c 0
 78 802 226 1021 509 1021 c 0
EndSplineSet
Validated: 1
EndChar

StartChar: f
Encoding: 102 102 5
Width: 1060
VWidth: -2
Flags: HW
HStem: 867 153<112 255 412 814.016> 1266 152<448.036 824.583>
VStem: 255 157<0 867 1021 1231.57>
LayerCount: 2
Fore
SplineSet
568 1266 m 0
 421 1266 412 1168 412 1060 c 2
 412 1021 l 1
 480 1021 610 1020 683 1020 c 1
 787 1017 814 1009 844 1000 c 1
 815 854 l 1
 794 861 773 867 717 867 c 2
 412 867 l 1
 413 713 415 4 415 0 c 1
 258 0 l 1
 258 25 257 720 255 867 c 1
 112 867 l 1
 112 1020 l 1
 256 1020 l 1
 256 1036 255 1045 255 1064 c 0
 255 1207 283 1418 560 1418 c 0
 779 1418 927 1392 1011 1225 c 1
 885 1148 l 1
 835 1246 773 1266 568 1266 c 0
EndSplineSet
Validated: 1
EndChar

StartChar: g
Encoding: 103 103 6
Width: 1060
VWidth: 14
Flags: W
HStem: -322 147<258.507 735.873> 69 153<265.055 788.211> 373 148<319.625 658.956> 873 152<334.355 670.778 854.713 964>
VStem: 80 157<-147.812 42.3412 234.782 406.406> 95 158<584.412 797.287> 725 156<578.5 820.239> 811 157<-112.101 42.8716>
LayerCount: 2
Fore
SplineSet
444 -175 m 0xf9
 473 -175 500 -175 525 -175 c 0
 724 -175 811 -108 811 -28 c 0
 811 55 733 69 554 69 c 0
 500 69 394 67 321 66 c 1
 272 47 237 4 237 -62 c 0
 237 -160 305 -175 444 -175 c 0xf9
725 720 m 0xf6
 725 812 648 873 497 873 c 0
 329 873 253 780 253 682 c 0
 253 583 354 521 483 521 c 0
 689 521 725 607 725 720 c 0xf6
854 841 m 1
 872 800 881 783 881 725 c 0xf6
 881 509 780 373 479 373 c 2
 476 373 l 2
 401 373 343 385 281 408 c 1
 262 386 239 364 239 320 c 0
 239 230 273 220 419 220 c 0
 462 220 557 222 621 222 c 0
 784 222 968 174 968 -27 c 0
 968 -214 806 -322 440 -322 c 0
 236 -322 80 -274 80 -67 c 0xf9
 80 34 114 88 167 135 c 1
 120 170 82 229 82 315 c 0
 82 416 119 455 156 496 c 1
 119 543 95 601 95 669 c 0
 95 672 95 675 95 678 c 0
 95 913 243 1025 497 1025 c 0
 597 1025 691 1012 767 965 c 1
 816 1011 848 1026 964 1026 c 1
 964 863 l 1
 952 865 941 866 931 866 c 0
 897 866 869 856 854 841 c 1
EndSplineSet
Validated: 1
EndChar

StartChar: p
Encoding: 112 112 7
Width: 1060
VWidth: -2
Flags: HW
HStem: -7 155<351.305 631.934> 858 155<368.237 667.54>
VStem: 119 156<-393.801 56 220.225 763.281> 755 157<291.52 763.3>
LayerCount: 2
Fore
SplineSet
755 527 m 0
 755 731 701 858 531 858 c 0
 394 858 346 812 275 698 c 1
 275 262 l 1
 327 211 384 148 475 148 c 0
 638 148 755 244 755 527 c 0
119 739 m 2
 119 747 119 755 119 763 c 0
 119 846 110 932 100 998 c 1
 264 1018 l 1
 269 986 274 964 275 922 c 1
 338 978 418 1013 530 1013 c 0
 805 1013 912 814 912 546 c 0
 912 210 784 -7 461 -7 c 0
 361 -7 323 25 275 56 c 1
 275 -151 l 2
 275 -245 284 -329 291 -397 c 1
 132 -406 l 1
 123 -333 118 -237 118 -146 c 2
 119 739 l 2
EndSplineSet
Validated: 1
EndChar

StartChar: h
Encoding: 104 104 8
Width: 1060
VWidth: -2
Flags: HW
HStem: -17 21G<832 887.043> 867 153<339.254 659.809>
VStem: 91 157<8 787.141 940 1401> 718 157<130.048 806.625>
LayerCount: 2
Fore
SplineSet
718 576 m 2
 718 803 682 867 481 867 c 0
 380 867 279 793 248 731 c 1
 248 198 l 2
 248 119 243 46 238 0 c 1
 80 8 l 1
 88 80 91 127 91 204 c 0
 91 708 90 1401 90 1401 c 1
 248 1402 l 1
 249 940 l 1
 314 981 386 1020 488 1020 c 0
 609 1020 719 1011 798 915 c 1
 870 830 875 752 875 642 c 2
 875 576 l 2
 875 412 874 335 874 223 c 0
 874 168 900 139 960 100 c 1
 872 -17 l 1
 792 28 718 81 718 208 c 2
 718 576 l 2
EndSplineSet
Validated: 1
EndChar

StartChar: i
Encoding: 105 105 9
Width: 1060
VWidth: 0
Flags: HWO
HStem: -18 142<544.158 910.467> 857 156<124.467 378> 1178 225<314 549>
VStem: 314 235<1178 1400> 378 156<133.613 857>
LayerCount: 2
Fore
SplineSet
337 1406 m 1xf0
 572 1406 l 1
 572 1181 l 1
 337 1181 l 1
 337 1406 l 1xf0
EndSplineSet
Refer: 177 305 S 1 0 0 1 23 2.90002 2
Validated: 524289
EndChar

StartChar: j
Encoding: 106 106 10
Width: 1060
VWidth: 0
Flags: HW
HStem: -387 156<326.311 591.621> 864 155<374.191 626> 1179 225<560 794>
VStem: 560 234<1179 1401> 627 156<-196.669 864>
LayerCount: 2
Fore
SplineSet
560 1404 m 1xf0
 794 1401 l 1
 794 1176 l 1
 560 1179 l 1
 560 1404 l 1xf0
EndSplineSet
Refer: 332 567 N 1 0 0 1 0 0 2
Validated: 1
EndChar

StartChar: k
Encoding: 107 107 11
Width: 1060
VWidth: -2
Flags: W
HStem: 872 144<500.523 718.984> 1407 20G<196.455 270.5>
VStem: 136 157<0 469 611.15 735.644 880 1381.07> 742 157<618.956 848.248>
LayerCount: 2
Fore
SplineSet
586 566 m 0
 687 566 742 657 742 745 c 0
 742 763 740 780 735 795 c 0
 725 828 693 872 630 872 c 0
 606 872 578 866 545 850 c 0
 446 803 367 758 293 708 c 1
 293 618 l 1
 377 605 442 590 491 579 c 0
 528 571 559 566 586 566 c 0
293 880 m 1
 365 929 515 1016 621 1016 c 0
 757 1016 880 933 894 814 c 0
 897 791 899 761 899 732 c 0
 899 699 896 665 891 639 c 0
 885 605 833 503 730 454 c 1
 828 381 826 261 879 173 c 0
 903 134 929 113 962 89 c 1
 878 -19 l 1
 755 41 720 159 693 238 c 0
 643 383 418 455 294 469 c 1
 294 469 292 279 292 129 c 0
 292 79 293 33 293 0 c 1
 136 0 l 1
 136 1228 l 2
 136 1289 126 1342 113 1383 c 1
 266 1427 l 1
 275 1404 293 1359 293 1293 c 2
 293 880 l 1
EndSplineSet
Validated: 1
EndChar

StartChar: l
Encoding: 108 108 12
Width: 1060
VWidth: -2
Flags: HW
HStem: -16 142<525.233 891.467> 1274 154<94.8673 356>
VStem: 359 156.333<135.613 1273>
LayerCount: 2
Fore
SplineSet
396 1428 m 2
 512 1428 l 1
 512 1155 515 212 515 212 c 1
 520 130 564 126 656 126 c 0
 749 126 873 147 942 199 c 1
 1010 85 l 1
 924 14 781 -16 657 -16 c 0
 572 -16 496 -2 452 22 c 0
 367 69 359 149 359 208 c 2
 356 1273 l 1
 339 1273 312 1274 282 1274 c 0
 225 1274 153 1271 92 1257 c 1
 64 1400 l 1
 176 1426 292 1428 396 1428 c 2
EndSplineSet
Validated: 1
EndChar

StartChar: m
Encoding: 109 109 13
Width: 1060
VWidth: 4
Flags: HW
HStem: 873 153<301.208 424.972 651.696 786.479>
VStem: 60 141<0 772.36 877 1004.7> 428 140<0 777.234> 795 140<141.982 865.591>
LayerCount: 2
Fore
SplineSet
765 1026 m 3
 910 1026 935 834 935 739 c 2
 935 216 l 2
 935 165 986 128 1027 112 c 1
 966 -21 l 1
 895 -7 795 50 795 191 c 2
 795 193 l 1
 795 760 l 2
 795 764 795 768 795 773 c 0
 795 808 791 873 731 873 c 0
 683 873 630 827 568 692 c 1
 569 0 l 1
 428 0 l 1
 428 806 l 1
 428 834 426 873 380 873 c 0
 332 873 263 827 201 691 c 1
 201 0 l 1
 60 0 l 1
 57 815 l 2
 57 908 44 958 27 1007 c 1
 177 1047 l 1
 192 1015 206 923 208 877 c 1
 254 957 341 1026 414 1026 c 1
 511 1026 568 947 568 877 c 1
 611 956 673 1026 765 1026 c 3
EndSplineSet
Validated: 1
EndChar

StartChar: o
Encoding: 111 111 14
Width: 1060
VWidth: 6
Flags: HW
HStem: 1 155<343.159 630.662> 878 154<352.497 639.881>
VStem: 72 158<272.944 736.885> 743 159<279.587 758.636>
LayerCount: 2
Fore
SplineSet
654 215 m 5
 719 276 743 382 743 530 c 4
 743 536 743 542 743 548 c 4
 741 732 677 878 500 878 c 4
 292 878 230 713 230 469 c 4
 230 274 317 156 484 156 c 5
 560 157 604 173 654 215 c 5
482 1 m 5
 210 2 72 184 72 464 c 4
 72 756 174 1032 466 1032 c 4
 663 1032 773 963 843 831 c 4
 884 752 902 639 902 543 c 4
 902 258 806 1 484 1 c 6
 482 1 l 5
EndSplineSet
Validated: 1
EndChar

StartChar: n
Encoding: 110 110 15
Width: 1060
VWidth: 6
Flags: HW
HStem: 872 150<439.57 700.696>
VStem: 143.5 158<0 778.144> 727.5 159<129.808 841.083>
LayerCount: 2
Fore
SplineSet
302 927 m 1
 428 993 488 1022 598 1022 c 0
 718 1022 886 945 886 796 c 2
 886 211 l 2
 886 145 936 123 992 93 c 1
 908 -19 l 1
 820 24 728 75 728 204 c 2
 728 765 l 2
 728 839 642 872 576 872 c 0
 512 872 448 830 302 760 c 1
 302 0 l 1
 144 -1 l 1
 144 705 l 2
 144 883 136 909 112 1003 c 1
 272 1040 l 1
 282 1016 294 976 302 927 c 1
EndSplineSet
Validated: 1
EndChar

StartChar: q
Encoding: 113 113 16
Width: 1060
VWidth: -2
Flags: HW
HStem: -7 155<399.119 679.98> 858 155<363.869 663.56>
VStem: 120 156<291.52 755.414> 757 156<-393.801 56 220.225 763.281>
LayerCount: 2
Fore
SplineSet
276 527 m 0
 276 244 393 148 556 148 c 0
 647 148 705 211 757 262 c 1
 757 698 l 1
 686 812 638 858 501 858 c 0
 331 858 276 731 276 527 c 0
913 739 m 2
 914 -146 l 2
 914 -237 909 -333 900 -406 c 1
 741 -397 l 1
 748 -329 756 -245 756 -151 c 2
 756 56 l 1
 708 25 670 -7 570 -7 c 0
 247 -7 120 210 120 546 c 0
 120 814 226 1013 501 1013 c 0
 613 1013 694 978 757 922 c 1
 758 964 763 986 768 1018 c 1
 932 998 l 1
 922 932 913 846 913 763 c 0
 913 755 913 747 913 739 c 2
EndSplineSet
Validated: 1
EndChar

StartChar: r
Encoding: 114 114 17
Width: 1060
VWidth: 4
Flags: HW
HStem: 865 160<533.743 767.326>
VStem: 210 156<1 689.404> 778 157<723 858.776>
LayerCount: 2
Fore
SplineSet
370 875 m 1
 463 989 567 1025 722 1025 c 0
 889 1025 934 911 934 729 c 0
 934 727 934 725 934 723 c 1
 778 723 l 1
 774 804 786 865 694 865 c 0
 593 865 466 829 366 606 c 1
 366 0 l 1
 210 1 l 1
 210 764 l 2
 210 821 170 850 108 905 c 1
 212 1046 l 1
 273 997 333 959 370 875 c 1
EndSplineSet
Validated: 1
EndChar

StartChar: s
Encoding: 115 115 18
Width: 1060
VWidth: 6
Flags: HW
HStem: -20 143<315.391 645.341> 881 148<313.448 649.835>
VStem: 92 157<192.72 329> 126 160<706.04 850.139> 715 155<188.544 389.011>
LayerCount: 2
Fore
SplineSet
243 571 m 0xe8
 178 606 126 672 126 783 c 0
 127 956 289 1029 464 1029 c 0
 586 1029 762 989 844 888 c 1
 731 777 l 1
 678 839 564 881 478 881 c 0
 372 881 286 847 286 787 c 0xd8
 286 739 303 716 343 698 c 1
 608 586 870 565 870 281 c 0
 870 119 756 28 649 0 c 1
 593 -13 533 -20 476 -20 c 0
 220 -20 92 115 92 330 c 1
 249 329 l 1
 249 195 318 123 473 123 c 0
 596 123 715 176 715 286 c 0
 715 359 684 385 629 426 c 1
 552 481 348 516 243 571 c 0xe8
EndSplineSet
Validated: 1
EndChar

StartChar: t
Encoding: 116 116 19
Width: 1060
VWidth: 0
Flags: HW
HStem: -6 155<398.71 773.905> 872 145<147 175>
VStem: 177 159<209.621 865 1017 1245>
LayerCount: 2
Fore
SplineSet
336 437 m 5
 336 397 l 6
 336 264 372 163 483 152 c 4
 501 150 578 149 591 149 c 4
 656 149 720 159 745 173 c 4
 802 203 820 258 827 277 c 5
 953 221 l 5
 943 193 920 102 808 37 c 4
 750 3 678 -6 593 -6 c 4
 409 -6 287 13 216 161 c 4
 181 233 177 308 177 394 c 6
 177 437 l 5
 181 541 183 672 189 865 c 5
 175 865 l 6
 147 865 119 861 93 854 c 5
 73 1000 l 5
 97 1009 142 1012 175 1012 c 6
 190 1012 l 5
 190 1082 191 1176 191 1246 c 5
 349 1245 l 5
 349 1179 348 1085 347 1017 c 5
 469 1017 l 5
 614 1018 768 1019 768 1019 c 5
 786 1019 l 5
 786 872 l 5
 469 872 l 6
 423 872 396 869 350 869 c 5
 341 665 340 537 336 437 c 5
EndSplineSet
Validated: 1
EndChar

StartChar: u
Encoding: 117 117 20
Width: 1060
VWidth: 6
Flags: HW
HStem: -10 21G<877.5 920.017> -10 21G<877.5 920.017> 2 154<320.683 585.04> 1001 19G<132.481 262 739.97 898>
VStem: 114 156<180.892 701.424> 739 158<276.783 1020>
LayerCount: 2
Fore
SplineSet
906 -10 m 1x9c
 849 31 795 72 773 158 c 1
 689 72 592 5 442 2 c 1
 433 2 l 2
 371 2 286 3 226 44 c 0
 181 75 114 132 114 214 c 0
 111 482 118 911 91 994 c 1
 251 1021 l 1
 273 929 268 616 270 250 c 1
 276 216 298 190 320 174 c 0
 334 164 385 156 426 156 c 1x3c
 493 159 534 167 585 198 c 0
 632 226 701 256 739 344 c 1
 740 1020 l 1
 898 1020 l 1
 897 239 l 1
 899 187 948 139 988 107 c 1
 906 -10 l 1x9c
EndSplineSet
Validated: 1
EndChar

StartChar: v
Encoding: 118 118 21
Width: 1060
VWidth: 6
Flags: HW
HStem: -3 21G<367 420>
VStem: 756 155<587.532 1011>
LayerCount: 2
Fore
SplineSet
153 1048 m 1
 223 973 245 924 271 849 c 0
 316 723 490 281 501 177 c 1
 625 320 749 610 755 817 c 0
 756 845 756 881 756 914 c 0
 756 955 756 993 754 1011 c 1
 906 1015 l 1
 909 999 911 879 911 821 c 0
 909 576 759 251 614 71 c 0
 557 0 473 -3 367 -3 c 1
 367 137 166 685 104 839 c 0
 96 860 50 927 24 952 c 1
 153 1048 l 1
EndSplineSet
Validated: 1
EndChar

StartChar: w
Encoding: 119 119 22
Width: 1060
Flags: HW
HStem: -3 150<292 393.74 662.116 772.032> 1000 20G<825 989.5>
VStem: 146 146<147 494.122> 473 142<253.213 824> 849 146<257.389 1017.18>
LayerCount: 2
Fore
SplineSet
0 976 m 1
 150 1064 l 1
 185 1005 219 915 242 795 c 0
 288 553 285 325 292 147 c 1
 411 147 473 259 473 518 c 3
 473 602 473 707 473 824 c 1
 615 824 l 1
 615 696 615 596 615 520 c 1
 615 362 644 249 675 147 c 1
 817 147 849 308 849 681 c 0
 849 805 837 950 825 1020 c 1
 987 1020 l 1
 992 973 995 790 995 710 c 4
 995 220 916 0 634 0 c 0
 628 0 622 0 614 0 c 2
 580 0 l 1
 563 64 536 192 532 250 c 1
 508 124 416 0 224 -3 c 0
 222 -3 220 -3 218 -3 c 1
 212 -3 l 1
 185 -2 163 2 146 9 c 1
 141 113 131 583 77 790 c 0
 61 849 21 939 0 976 c 1
EndSplineSet
Validated: 1
EndChar

StartChar: x
Encoding: 120 120 23
Width: 1060
VWidth: 4
Flags: HW
HStem: 3 153<829.536 950> 1000 20G<750 905>
VStem: 750 158<912.879 1019>
LayerCount: 2
Fore
SplineSet
860 863 m 0
 810 778 692 595 612 488 c 1
 690 385 824 178 844 165 c 0
 848 162 864 156 898 156 c 0
 916 156 934 159 950 162 c 1
 950 9 l 1
 930 6 908 3 888 3 c 0
 848 3 808 15 768 43 c 1
 696 90 592 261 508 379 c 1
 358 184 201 0 186 -18 c 1
 65 84 l 1
 73 95 254 323 410 511 c 1
 326 629 212 786 80 960 c 1
 210 1061 l 1
 334 891 436 740 518 624 c 1
 590 711 646 807 716 930 c 0
 736 965 746 1002 750 1019 c 1
 908 1020 l 1
 902 971 892 914 860 863 c 0
EndSplineSet
Validated: 1
EndChar

StartChar: y
Encoding: 121 121 24
Width: 1060
VWidth: 14
Flags: HW
HStem: -376 153<238.201 385.113> 866 152<52 127.747>
VStem: 38 156<-179.577 0> 770 158<736.992 1020>
LayerCount: 2
Fore
SplineSet
304 -223 m 4
 410 -223 464 -38 502 68 c 5
 408 396 225 753 128 857 c 4
 123 862 92 866 67 866 c 4
 62 866 57 865 52 865 c 5
 52 1018 l 5
 85 1018 124 1017 152 1013 c 4
 319 988 481 612 594 287 c 5
 668 504 762 793 770 1020 c 5
 928 1020 l 5
 928 960 923 903 914 852 c 4
 849 499 720 169 588 -142 c 5
 535 -277 457 -376 308 -376 c 4
 133 -376 43 -173 38 0 c 5
 194 0 l 5
 198 -95 224 -223 304 -223 c 4
EndSplineSet
Validated: 1
EndChar

StartChar: z
Encoding: 122 122 25
Width: 1060
VWidth: 6
Flags: HW
HStem: 0 156<246 910.911> 861 159<123 674>
LayerCount: 2
Fore
SplineSet
96 874 m 1
 123 1025 l 1
 169 1020 277 1020 401 1020 c 0
 879 1020 l 1
 903 905 l 1
 892 894 757 736 552 523 c 1
 429 398 321 289 246 156 c 1
 784 155 l 2
 840 155 892 143 953 123 c 1
 913 -22 l 1
 868 -9 851 0 786 0 c 2
 71 0 l 1
 71 20 l 2
 71 93 72 145 93 189 c 0
 169 348 299 469 436 618 c 0
 532 723 612 803 674 861 c 1
 664 861 654 861 643 861 c 0
 576 861 485 863 398 863 c 0
 273 863 153 865 96 874 c 1
EndSplineSet
Validated: 1
EndChar

StartChar: A
Encoding: 65 65 26
Width: 1060
VWidth: 0
Flags: HW
HStem: 332 160<340.81 718> 1281 20G<427.695 611.696>
VStem: 42 162<0 176.844> 850 164<0 189.641>
LayerCount: 2
Fore
SplineSet
718 495 m 1
 524 1082 l 1
 338 475 l 1
 398 488 454 488 537 492 c 1
 718 495 l 1
434 1301 m 5
 605 1301 l 5
 983 172 l 6
 994 135 1012 54 1014 0 c 5
 850 0 l 5
 850 23 838 95 830 122 c 6
 760 332 l 5
 619 329 398 327 287 300 c 5
 228 121 l 6
 218 92 204 28 204 0 c 5
 42 0 l 5
 43 28 61 116 74 159 c 5
 434 1301 l 5
EndSplineSet
Validated: 1
EndChar

StartChar: B
Encoding: 66 66 27
Width: 1060
VWidth: 0
Flags: HW
HStem: -5 151<251 672.386> 647 156<257 529.155> 1150 149<255 530.519>
VStem: 97 158<153 647 803 1143.26> 591 157<858.454 1093.57> 783 159<255.577 547.611>
LayerCount: 2
Fore
SplineSet
97 823 m 4
 97 996 94 1158 85 1285 c 5
 166 1291 215 1299 328 1299 c 4
 334 1299 340 1299 346 1299 c 4
 552 1299 748 1218 748 1002 c 4
 748 906 723 823 662 767 c 5
 817 715 942 583 942 393 c 4
 942 168 793 23 626 3 c 4
 587 -2 546 -5 507 -5 c 4
 422 -5 332 3 224 3 c 6
 88 3 l 5
 88 197 97 407 97 823 c 4
591 992 m 6
 591 1105 494 1150 357 1150 c 6
 340 1150 l 6
 301 1150 285 1148 255 1145 c 5
 258 1108 259 1064 259 1017 c 4
 259 950 257 877 257 803 c 5
 403 806 453 799 543 854 c 4
 570 870 591 925 591 984 c 6
 591 992 l 6
708 578 m 4
 635 639 574 649 479 649 c 4
 430 649 372 647 299 647 c 6
 255 647 l 5
 253 410 252 229 251 153 c 5
 359 153 399 146 474 146 c 4
 514 146 549 148 584 153 c 4
 690 166 783 265 783 409 c 4
 783 488 760 535 708 578 c 4
EndSplineSet
Validated: 1
EndChar

StartChar: C
Encoding: 67 67 28
Width: 1060
VWidth: 0
Flags: HW
HStem: -3 154<380.699 706.938> 1152 154<413.559 693.076>
VStem: 56 159<354.116 908.283>
LayerCount: 2
Fore
SplineSet
569 1152 m 0
 454 1152 365 1087 317 1020 c 1
 272 955 215 839 215 625 c 0
 215 461 246 315 344 224 c 0
 406 166 454 151 536 151 c 2
 550 151 l 1
 697 156 783 230 834 342 c 1
 973 266 l 1
 899 111 765 -3 575 -3 c 2
 572 -3 l 2
 461 -3 329 22 235 114 c 1
 115 236 56 400 56 623 c 0
 56 877 137 1033 189 1109 c 0
 261 1215 397 1306 572 1306 c 0
 712 1306 840 1222 928 1063 c 1
 792 982 l 1
 731 1102 655 1152 569 1152 c 0
EndSplineSet
Validated: 1
EndChar

StartChar: D
Encoding: 68 68 29
Width: 1060
VWidth: 0
Flags: HW
HStem: -10 151<230 657.626> 1152 152<234 539.421>
VStem: 76 158<144 1149.63> 810 159<305.755 833.883>
LayerCount: 2
Fore
SplineSet
309 1152 m 2
 279 1152 l 2
 263 1152 251 1153 234 1150 c 1
 235 1125 235 1094 235 1064 c 0
 235 1002 234 934 234 866 c 0
 234 566 231 240 230 144 c 1
 318 141 363 141 423 141 c 0
 592 141 718 167 783 346 c 0
 799 391 810 479 810 533 c 0
 810 692 774 859 709 954 c 0
 620 1082 530 1152 309 1152 c 2
70 125 m 1
 70 179 76 568 76 883 c 2
 76 957 l 2
 76 1083 72 1205 63 1291 c 1
 144 1299 189 1304 288 1304 c 0
 559 1304 715 1224 838 1045 c 1
 922 921 969 745 969 568 c 0
 969 500 961 433 948 368 c 0
 900 132 739 14 559 -3 c 0
 504 -8 453 -10 398 -10 c 0
 314 -10 181 -3 67 -3 c 1
 67 30 67 29 70 125 c 1
EndSplineSet
Validated: 1
EndChar

StartChar: E
Encoding: 69 69 30
Width: 1060
VWidth: 0
Flags: HW
HStem: -3 150<257 898.956> 666 150<260 698> 1144 153<260 889>
VStem: 102 158<147 666 816 1144>
LayerCount: 2
Fore
SplineSet
102 1293 m 5
 158 1297 228 1297 306 1297 c 4
 337 1297 370 1297 404 1297 c 6
 514 1297 l 6
 663 1297 799 1294 873 1294 c 6
 889 1294 l 5
 889 1144 l 5
 260 1144 l 5
 260 816 l 5
 698 816 l 5
 698 666 l 5
 260 666 l 5
 260 636 l 6
 260 433 257 224 257 147 c 5
 782 149 l 6
 838 149 899 175 899 175 c 5
 943 27 l 5
 895 14 860 -3 784 -3 c 6
 102 -3 l 5
 102 1293 l 5
EndSplineSet
Validated: 1
EndChar

StartChar: F
Encoding: 70 70 31
Width: 1060
VWidth: 0
Flags: HW
HStem: 668 150<272 709.255> 1145 153<272 902.784>
VStem: 116 156<3 665 815 1143>
LayerCount: 2
Fore
SplineSet
277 -1 m 1
 116 3 l 1
 116 1298 l 1
 801 1298 l 1
 878 1295 926 1280 960 1263 c 1
 904 1117 l 1
 878 1131 856 1144 758 1145 c 1
 688 1145 l 2
 584 1145 455 1144 272 1143 c 1
 272 815 l 1
 392 815 459 818 581 818 c 0
 669 818 728 804 729 804 c 2
 747 799 l 1
 711 654 l 1
 674 663 623 668 578 668 c 0
 472 668 380 668 272 665 c 1
 272 544 277 92 277 -1 c 1
EndSplineSet
Validated: 1
EndChar

StartChar: G
Encoding: 71 71 32
Width: 1060
VWidth: 0
Flags: HW
HStem: -8 155<359.057 715.354> 585 150<438.203 826> 1150 152<357.915 706.991>
VStem: 20 162<349.429 932.761> 826 166<281.886 587>
LayerCount: 2
Fore
SplineSet
861 733 m 0
 907 733 950 736 992 740 c 1
 992 605 l 2
 992 170 869 49 691 3 c 1
 646 -7 582 -8 540 -8 c 0
 176 -8 20 280 20 628 c 0
 20 865 73 1059 204 1186 c 1
 304 1274 418 1302 533 1302 c 2
 553 1302 l 1
 767 1297 901 1189 976 1026 c 1
 833 957 l 1
 781 1071 697 1150 542 1150 c 0
 458 1150 397 1144 319 1077 c 0
 208 982 182 789 182 617 c 0
 182 358 260 147 550 147 c 0
 579 147 607 149 633 156 c 0
 756 184 826 264 826 587 c 1
 800 585 776 585 753 585 c 0
 722 585 693 586 664 586 c 0
 593 586 524 581 434 548 c 1
 394 693 l 1
 490 729 594 735 695 735 c 0
 751 735 807 733 861 733 c 0
EndSplineSet
Validated: 1
EndChar

StartChar: H
Encoding: 72 72 33
Width: 1060
VWidth: 0
Flags: HW
HStem: 625 152<224.549 754> 1271 20G<753 912>
VStem: 60 159<0 604.438 749 1294> 754 158<0 625 777 1291>
LayerCount: 2
Fore
SplineSet
220 1296 m 5
 219 749 l 5
 311 770 406 777 526 777 c 6
 754 777 l 5
 754 1051 753 1129 753 1291 c 5
 912 1291 l 5
 912 0 l 5
 754 0 l 5
 754 625 l 5
 711 625 668 625 625 625 c 4
 479 625 337 622 219 597 c 5
 219 254 221 181 221 0 c 5
 60 0 l 5
 60 1294 l 5
 220 1296 l 5
EndSplineSet
Validated: 1
EndChar

StartChar: K
Encoding: 75 75 34
Width: 1060
VWidth: 0
Flags: HW
HStem: -5 9G<116 274 845 903.263> 1288 20G<116 274 851.5 882.943>
VStem: 116 158<-5 508.713 703 1308>
LayerCount: 2
Fore
SplineSet
484 725 m 5
 604 608 951 194 1002 59 c 5
 868 -17 l 5
 822 92 518 474 388 600 c 5
 388 600 304 502 274 431 c 5
 274 -5 l 5
 116 -5 l 5
 116 1308 l 5
 274 1308 l 5
 274 703 l 5
 354 814 425 893 524 996 c 5
 715 1191 841 1289 862 1310 c 5
 973 1204 l 5
 791 1072 544 798 484 725 c 5
EndSplineSet
Validated: 1
EndChar

StartChar: L
Encoding: 76 76 35
Width: 1060
VWidth: 0
Flags: HW
HStem: -3 154<302 941.956>
VStem: 141 161<151 1298>
LayerCount: 2
Fore
SplineSet
141 -3 m 5
 141 1298 l 5
 302 1298 l 5
 302 151 l 5
 823 151 l 5
 882 154 900 158 944 173 c 5
 985 27 l 5
 938 11 900 -3 825 -3 c 6
 141 -3 l 5
EndSplineSet
Validated: 1
EndChar

StartChar: M
Encoding: 77 77 36
Width: 1060
VWidth: 31
Flags: HW
HStem: -5 21G<61.9537 220 730.957 888> 1272 19G<59.0463 214 704 887.015>
VStem: 62 158<-5 900 1151.35 1291> 731 157<-5 920 1185.07 1291>
LayerCount: 2
Fore
SplineSet
59 1292 m 1
 214 1291 l 1
 262 1142 301 1060 370 938 c 0
 420 848 446 797 465 759 c 1
 548 914 678 1146 730 1291 c 1
 887 1291 l 1
 888 -5 l 1
 731 -5 l 1
 729 920 l 1
 655 779 538 575 527 539 c 1
 405 542 l 1
 397 558 339 668 251 837 c 1
 230 881 235 872 220 900 c 1
 220 -5 l 1
 62 -5 l 1
 59 1292 l 1
EndSplineSet
Validated: 1
EndChar

StartChar: N
Encoding: 78 78 37
Width: 1060
VWidth: 0
Flags: HW
HStem: -3 18G<75 234 670.5 911>
VStem: 75 158<-3 1001> 750 158<-5 92.9198 357 1297>
LayerCount: 2
Fore
SplineSet
752 -6 m 5
 589 351 435 648 233 1001 c 5
 233 797 l 6
 233 504 234 149 234 -3 c 5
 75 -3 l 5
 75 1298 l 5
 234 1294 l 5
 360 1110 636 605 753 357 c 5
 751 487 750 623 750 757 c 4
 750 943 753 1126 762 1297 c 5
 916 1297 l 5
 910 1184 908 1035 908 872 c 4
 908 646 912 392 912 162 c 4
 912 105 911 48 911 -5 c 5
 752 -6 l 5
EndSplineSet
Validated: 1
EndChar

StartChar: O
Encoding: 79 79 38
Width: 1060
VWidth: 0
Flags: HW
HStem: -16 153<349.716 653.474> 1170 153<376.35 654.552>
VStem: 41 159<320.826 920.593> 814 158<350.765 944.703>
LayerCount: 2
Fore
SplineSet
522 1323 m 5
 646 1323 967 1249 972 632 c 5
 972 621 l 6
 972 457 928 304 880 211 c 4
 805 67 675 -16 510 -16 c 4
 388 -16 260 27 179 127 c 4
 89 237 41 389 41 569 c 4
 41 914 118 1063 188 1158 c 4
 254 1248 366 1320 522 1323 c 5
284 242 m 4
 333 177 402 137 510 137 c 4
 626 137 698 204 743 287 c 5
 783 351 813 517 814 624 c 5
 814 643 l 6
 814 758 796 911 743 1014 c 4
 685 1128 615 1170 527 1170 c 4
 432 1170 376 1142 318 1066 c 4
 249 977 200 835 200 573 c 4
 200 469 228 315 284 242 c 4
EndSplineSet
Validated: 1
EndChar

StartChar: P
Encoding: 80 80 39
Width: 1060
VWidth: 0
Flags: HW
HStem: -10 21G<104 262> -10 21G<104 262> 460 152<263 654.788> 1151 151<264 679.858>
VStem: 104 160<-9 463 613 1146> 784 162<725.912 1060.32>
LayerCount: 2
Fore
SplineSet
784 900 m 0x3c
 784 1108 661 1145 415 1151 c 1
 354 1151 309 1147 264 1146 c 1
 264 1020 l 2
 264 837 263 613 263 613 c 1
 299 612 333 612 366 612 c 0
 652 612 784 672 784 900 c 0x3c
262 -10 m 1xbc
 104 -9 l 1
 104 1294 l 1
 222 1294 260 1302 393 1302 c 0
 618 1302 757 1289 872 1151 c 0
 926 1086 946 996 946 906 c 0
 946 815 938 715 878 628 c 0
 780 488 655 460 416 460 c 0
 368 460 317 461 263 463 c 1
 263 200 262 146 262 -10 c 1xbc
EndSplineSet
Validated: 1
EndChar

StartChar: Q
Encoding: 81 81 40
Width: 1060
VWidth: 0
Flags: HW
HStem: -131 151<766.2 973> -3 147<384.148 594.248> 281 149<400.156 576.439> 1152 153<349.058 633.119>
VStem: 50 159<337.577 972.241> 783 159<344.802 970.262>
LayerCount: 2
Fore
SplineSet
889 -131 m 0xbc
 774 -131 649 -112 623 15 c 1
 582 4 541 -3 501 -3 c 0x7c
 385 -3 277 40 198 121 c 0
 98 225 50 408 50 629 c 0
 50 836 79 1028 174 1150 c 0
 267 1270 366 1305 489 1305 c 0
 656 1305 772 1240 851 1099 c 0
 937 946 942 790 942 679 c 0
 942 528 921 353 849 231 c 0
 809 165 787 134 754 97 c 1
 765 24 798 21 878 20 c 1
 889 20 l 2
 926 20 949 24 973 30 c 1
 973 -122 l 1
 951 -127 934 -131 889 -131 c 0xbc
480 430 m 0
 599 430 681 380 714 286 c 1
 770 357 783 500 783 664 c 0
 783 673 783 682 783 691 c 0
 783 796 780 911 714 1023 c 0
 668 1100 588 1152 487 1152 c 0
 306 1152 209 983 209 691 c 0
 209 589 210 433 271 288 c 1
 304 401 432 430 480 430 c 0
596 166 m 1
 584 249 561 281 488 281 c 0
 430 281 382 239 382 183 c 0
 382 182 382 181 382 180 c 0
 408 153 452 144 490 144 c 0
 521 144 560 151 596 166 c 1
EndSplineSet
Validated: 1
EndChar

StartChar: R
Encoding: 82 82 41
Width: 1060
VWidth: 0
Flags: HW
HStem: 567 152<247 469.166> 1150 153<245.341 628.623>
VStem: 90 157<0 567 710.303 1149> 772 155<746.701 1033.94>
LayerCount: 2
Fore
SplineSet
652 540 m 1
 730 418 842 238 898 173 c 1
 916 157 947 123 989 112 c 1
 930 -22 l 1
 872 -13 818 25 784 67 c 1
 687 174 529 440 473 534 c 1
 391 542 323 554 247 567 c 1
 248 0 l 1
 90 0 l 1
 90 1113 l 2
 90 1180 89 1227 85 1288 c 1
 127 1292 242 1303 303 1303 c 0
 553 1303 722 1289 844 1139 c 0
 892 1080 927 993 927 909 c 0
 927 689 828 569 652 540 c 1
772 895 m 0
 772 1089 606 1150 308 1150 c 0
 282 1150 274 1150 245 1149 c 1
 247 719 l 1
 346 701 425 678 507 678 c 0
 523 678 540 679 556 681 c 0
 696 699 772 733 772 895 c 0
EndSplineSet
Validated: 1
EndChar

StartChar: S
Encoding: 83 83 42
Width: 1060
VWidth: 0
Flags: HW
HStem: -9 151<316.282 697.527> 1148 154<292.689 670.124>
VStem: 43 158<254.25 413> 72 159<884.687 1090.05> 751 159<1013.39 1070.81> 789 160<229.874 516.438>
LayerCount: 2
Fore
SplineSet
247 709 m 5xe4
 156 752 72 843 72 989 c 4
 72 1205 259 1302 470 1302 c 4
 473 1302 476 1302 479 1302 c 4
 702 1299 872 1223 910 1016 c 5
 751 987 l 5
 713 1114 629 1148 475 1148 c 4
 373 1148 312 1127 266 1082 c 5
 242 1057 231 1028 231 994 c 4xd8
 231 912 277 873 333 847 c 4
 450 791 607 792 739 732 c 5
 847 680 949 562 949 388 c 4
 949 119 761 -9 521 -9 c 6
 502 -9 l 5
 149 0 43 190 43 413 c 5
 201 413 l 5
 201 254 284 142 508 142 c 4
 713 142 789 237 789 380 c 4
 789 487 730 555 651 589 c 4
 535 639 380 649 247 709 c 5xe4
EndSplineSet
Validated: 1
EndChar

StartChar: T
Encoding: 84 84 43
Width: 1060
VWidth: 0
Flags: HW
HStem: -9 21G<403 563> -9 21G<403 563> 1144 155<39 403 563 909.955>
VStem: 403 160<-9 1144>
LayerCount: 2
Fore
SplineSet
403 -9 m 5xb0
 403 1144 l 5
 205 1144 115 1143 39 1143 c 5
 39 1298 l 5
 161 1298 615 1299 803 1299 c 4
 876 1299 925 1287 943 1284 c 5
 910 1132 l 5
 910 1132 848 1144 798 1144 c 6
 563 1144 l 5
 563 -9 l 5
 403 -9 l 5xb0
EndSplineSet
Validated: 1
EndChar

StartChar: U
Encoding: 85 85 44
Width: 1060
VWidth: 0
Flags: HW
HStem: -10 151<330.889 644.172> 1293 9G<67 228 772 934>
VStem: 61 159<276.83 1302> 769 158<290.259 1300.64>
LayerCount: 2
Fore
SplineSet
777 1313 m 1
 934 1300 l 1
 925 1240 925 1197 925 1143 c 0
 925 998 927 871 927 760 c 2
 927 702 l 2
 927 470 923 248 811 119 c 0
 729 24 621 -5 492 -10 c 1
 184 -10 86 156 68 447 c 0
 63 522 61 644 61 779 c 0
 61 951 64 1144 70 1302 c 1
 228 1302 l 1
 224 1137 220 913 220 728 c 0
 220 605 222 499 227 439 c 0
 245 229 327 141 479 141 c 1
 585 146 637 169 691 225 c 1
 758 299 769 505 769 702 c 0
 769 825 764 971 764 1141 c 0
 764 1212 767 1251 777 1313 c 1
EndSplineSet
Validated: 1
EndChar

StartChar: V
Encoding: 86 86 45
Width: 1060
VWidth: 0
Flags: HW
HStem: -5 21G<401 574>
VStem: 413 161<-4 185.46>
LayerCount: 2
Fore
SplineSet
413 -5 m 1
 389 187 102 1063 8 1286 c 1
 160 1339 l 1
 261 1087 396 693 494 325 c 1
 568 639 736 1077 837 1325 c 1
 988 1272 l 1
 890 1041 592 196 574 -4 c 1
 413 -5 l 1
EndSplineSet
Validated: 1
EndChar

StartChar: W
Encoding: 87 87 46
Width: 1060
VWidth: 0
Flags: HW
HStem: 1298 20G<63.75 208 820 959.176>
VStem: 699 136<0 127.939> 868 155<1070.48 1284.14>
LayerCount: 2
Fore
SplineSet
332 0 m 1
 201 0 l 1
 158 170 52 1035 6 1286 c 1
 160 1318 l 1
 256 779 251 620 297 301 c 1
 367 531 429 886 435 957 c 1
 480 957 568 957 602 969 c 1
 638 778 677 497 751 291 c 1
 785 577 772 845 868 1315 c 1
 1023 1281 l 1
 971 1030 868 178 835 0 c 1
 699 0 l 1
 699 0 553 429 521 613 c 1
 474 388 340 22 332 0 c 1
EndSplineSet
Validated: 1
EndChar

StartChar: X
Encoding: 88 88 47
Width: 1060
VWidth: 0
Flags: HW
LayerCount: 2
Fore
SplineSet
794 1340 m 1
 928 1255 l 1
 568 657 l 1
 739 390 836 214 978 77 c 1
 874 -36 l 1
 722 111 630 266 478 508 c 1
 160 -31 l 1
 28 54 l 1
 380 654 l 1
 260 858 163 1082 23 1238 c 1
 148 1331 l 1
 278 1185 372 971 475 799 c 1
 794 1340 l 1
EndSplineSet
Validated: 1
EndChar

StartChar: Y
Encoding: 89 89 48
Width: 1060
VWidth: 0
Flags: HW
HStem: -6 21G<399 559>
VStem: 399 160<-6 640.323>
LayerCount: 2
Fore
SplineSet
399 -6 m 5
 399 135 l 6
 399 225 406 482 406 601 c 5
 327 712 84 1151 33 1257 c 5
 173 1328 l 5
 213 1251 405 896 492 759 c 5
 590 898 790 1254 828 1341 c 5
 967 1262 l 5
 920 1168 847 1026 742 858 c 5
 655 727 585 616 566 590 c 5
 566 543 564 495 564 441 c 5
 561 309 559 167 559 125 c 6
 559 -6 l 5
 399 -6 l 5
EndSplineSet
Validated: 1
EndChar

StartChar: Z
Encoding: 90 90 49
Width: 1060
VWidth: 0
Flags: HW
HStem: -3 153<263 923.981> 1150 152<89 755>
LayerCount: 2
Fore
SplineSet
123 -5 m 5
 28 83 l 5
 755 1150 l 5
 541 1150 203 1145 89 1145 c 5
 88 1298 l 5
 208 1298 630 1302 818 1302 c 4
 893 1302 939 1289 958 1286 c 5
 955 1253 944 1172 940 1149 c 5
 263 151 l 5
 750 150 l 6
 835 150 862 154 927 175 c 5
 967 27 l 5
 922 11 884 -3 809 -3 c 6
 566 -3 l 6
 354 -3 178 -5 130 -5 c 6
 123 -5 l 5
EndSplineSet
Validated: 1
EndChar

StartChar: I
Encoding: 73 73 50
Width: 1060
VWidth: 0
Flags: HW
HStem: 4 147<134 422 582 849> 1144 154<138 422 582 853>
VStem: 422 160<152 1151>
LayerCount: 2
Fore
SplineSet
132 1298 m 5
 288 1302 389 1302 485 1302 c 4
 590 1302 690 1301 853 1299 c 5
 853 1147 l 5
 730 1147 678 1152 582 1152 c 5
 582 152 l 5
 628 152 654 153 705 153 c 4
 750 153 797 152 849 149 c 5
 849 -1 l 5
 764 4 702 5 639 5 c 4
 592 5 543 4 484 4 c 4
 410 4 289 -3 134 -3 c 5
 134 146 l 5
 219 150 290 151 347 151 c 6
 422 151 l 5
 422 1151 l 5
 356 1150 244 1150 138 1144 c 5
 132 1298 l 5
EndSplineSet
Validated: 1
EndChar

StartChar: J
Encoding: 74 74 51
Width: 1060
VWidth: 0
Flags: HW
HStem: -8 150<287.536 536.385> 1146 152<298.255 608.464 769 954>
VStem: 40 160<238.852 425> 633 158<267.894 1137.07>
LayerCount: 2
Fore
SplineSet
414 -8 m 0
 139 -8 42 210 40 426 c 1
 200 425 l 1
 206 275 259 142 412 142 c 0
 598 142 633 327 633 659 c 0
 633 754 617 1007 605 1144 c 1
 556 1144 477 1146 440 1146 c 1
 336 1143 324 1134 297 1128 c 1
 259 1276 l 1
 289 1283 320 1295 438 1298 c 1
 583 1298 800 1297 956 1297 c 1
 954 1144 l 1
 906 1144 819 1145 769 1145 c 1
 785 967 791 765 791 642 c 0
 791 288 744 -8 414 -8 c 0
EndSplineSet
Validated: 1
EndChar

StartChar: zero
Encoding: 48 48 52
Width: 1060
VWidth: 0
Flags: HW
HStem: -16 153<386.517 601.569> 1155 153<385.377 593.302>
VStem: 113 155<457.534 979.867> 712 155<286.454 816.325>
LayerCount: 2
Fore
SplineSet
280 455 m 1
 669 953 l 1
 638 1053 601 1155 491 1155 c 0
 292 1155 268 811 268 598 c 0
 268 548 276 479 280 455 c 1
706 818 m 1
 314 317 l 1
 340 222 382 137 493 137 c 0
 700 137 712 460 712 679 c 0
 712 728 710 777 706 818 c 1
490 1308 m 0
 793 1308 867 959 867 660 c 0
 867 358 811 -16 493 -16 c 0
 193 -16 113 312 113 616 c 0
 113 920 187 1308 490 1308 c 0
EndSplineSet
Validated: 1
EndChar

StartChar: period
Encoding: 46 46 53
Width: 1060
VWidth: 26
Flags: HW
HStem: 0 269<397 648>
VStem: 397 251<0 269>
LayerCount: 2
Fore
SplineSet
397 269 m 1
 648 269 l 1
 648 0 l 1
 397 0 l 1
 397 269 l 1
EndSplineSet
Validated: 1
EndChar

StartChar: comma
Encoding: 44 44 54
Width: 1060
VWidth: 26
Flags: HW
HStem: -393 667
VStem: 401 258<5 274> 489 170<-164.236 5>
LayerCount: 2
Fore
SplineSet
401 274 m 1xc0
 652 274 l 1
 659 11 l 1
 659 8 l 2xc0
 659 -189 575 -317 408 -393 c 1
 347 -254 l 1
 439 -203 489 -133 489 5 c 1xa0
 401 5 l 1
 401 274 l 1xc0
EndSplineSet
Validated: 1
EndChar

StartChar: aring
Encoding: 229 229 64
Width: 1060
VWidth: 0
Flags: HW
HStem: -10 21G<836 875.95> -6 152<275.367 541.736> 504 153<324.522 659.622> 877 249<391.256 546.493> 1267 124<389.409 550.018>
VStem: 78 156<186.95 423.616> 254 130<1135.55 1257.04> 556 132<1136.6 1257.04> 696 157<285.558 463.324 597 788.129>
LayerCount: 2
Fore
SplineSet
384 1198 m 0x3f80
 384 1163 419 1126 470 1126 c 0
 521 1126 556 1163 556 1198 c 0
 556 1233 522 1267 470 1267 c 0
 418 1267 384 1233 384 1198 c 0x3f80
234 311 m 0
 234 206 290 146 383 146 c 0x7f80
 563 146 670 304 696 345 c 1
 696 440 l 1
 639 475 559 504 489 504 c 0
 353 504 234 429 234 311 c 0
862 -10 m 1xbf80
 810 30 750 55 732 156 c 1
 654 81 565 -6 383 -6 c 0x7f80
 212 -6 78 135 78 301 c 0
 78 377 108 466 167 527 c 0
 262 624 372 657 490 657 c 0
 575 657 641 630 695 597 c 1
 689 783 628 877 476 877 c 0
 338 877 283 828 203 685 c 1
 73 767 l 1
 151 916 250 994 381 1019 c 1
 308 1049 254 1116 254 1196 c 0
 254 1307 357 1391 472 1391 c 0
 587 1391 688 1307 688 1196 c 0
 688 1116 635 1040 563 1019 c 1
 734 984 833 848 849 657 c 0
 854 596 856 502 856 465 c 0
 856 387 853 360 853 318 c 0
 853 283 853 190 866 173 c 0
 879 155 916 132 945 109 c 1
 862 -10 l 1xbf80
EndSplineSet
Validated: 1
EndChar

StartChar: ae
Encoding: 230 230 65
Width: 1060
VWidth: 6
Flags: HW
HStem: 4 158<206.037 381.669 608.828 826.862> 465 150<594 825> 508 153<219.84 439.103> 869 154<186.656 391.379 628.541 787.909>
VStem: 23 154<188.584 466.602> 441 153<226.97 465 629 818.014> 825 151<623 834.062>
LayerCount: 2
Fore
SplineSet
177 324 m 0xbe
 177 216 218 162 301 162 c 0
 391 162 430 299 441 327 c 1
 441 474 l 1
 398 499 356 508 302 508 c 0
 224 508 177 425 177 324 c 0xbe
594 615 m 1xde
 683 621 741 623 825 623 c 1
 825 729 803 869 733 869 c 0
 605 869 594 777 594 615 c 1xde
505 97 m 1
 475 63 415 4 312 4 c 0
 249 4 184 19 130 57 c 0
 49 114 23 211 23 309 c 0
 23 476 87 661 291 661 c 0xbe
 368 661 403 645 441 629 c 1
 441 726 419 870 300 870 c 2
 291 870 l 2
 239 870 209 867 143 767 c 1
 133 753 l 1
 16 827 l 1
 27 845 l 1
 112 979 177 1023 300 1023 c 0
 356 1023 402 1015 463 968 c 1
 482 952 501 928 513 909 c 1
 554 970 602 1023 724 1023 c 0
 968 1023 976 674 976 475 c 1
 594 465 l 1
 594 220 l 1
 619 191 670 161 733 161 c 0
 792 161 843 217 881 270 c 1
 988 170 l 1
 895 44 791 5 714 5 c 0
 633 5 561 38 505 97 c 1
EndSplineSet
Validated: 1
EndChar

StartChar: exclam
Encoding: 33 33 68
Width: 1060
VWidth: 0
Flags: HW
HStem: 0 270<388 638>
VStem: 388 250<0 270> 415 198<557.952 1376> 431 166<463 1280.84>
LayerCount: 2
Fore
SplineSet
613 1376 m 1xa0
 597 463 l 1
 431 461 l 1x90
 415 1376 l 1
 613 1376 l 1xa0
388 270 m 1xc0
 638 270 l 1
 638 0 l 1
 388 0 l 1
 388 270 l 1xc0
EndSplineSet
Validated: 1
EndChar

StartChar: quotesingle
Encoding: 39 39 70
Width: 1060
VWidth: -25
Flags: HW
HStem: 816 651
VStem: 552 253<1278.81 1435.87>
LayerCount: 2
Fore
SplineSet
552 1467 m 1
 805 1434 l 1
 769 1135 587 925 458 816 c 1
 322 956 l 1
 389 1013 528 1239 552 1467 c 1
EndSplineSet
Validated: 1
EndChar

StartChar: Aring
Encoding: 197 197 76
Width: 1060
VWidth: -8
Flags: HW
HStem: 332 160<340.81 718> 1516 124<434.557 595.087>
VStem: 42 162<0 176.344> 300 129<1384.93 1505.63> 601 132<1385.17 1506.04> 850 164<0 189.172>
LayerCount: 2
Fore
SplineSet
718 495 m 1
 524 1082 l 1
 338 475 l 1
 398 488 454 488 537 492 c 1
 718 495 l 1
429 1447 m 0
 429 1412 465 1375 516 1375 c 0
 567 1375 601 1412 601 1447 c 0
 601 1482 568 1516 516 1516 c 0
 464 1516 429 1482 429 1447 c 0
300 1445 m 0
 300 1556 402 1640 517 1640 c 0
 632 1640 733 1556 733 1445 c 0
 733 1368 684 1303 615 1271 c 1
 983 172 l 1
 994 135 1012 54 1014 0 c 1
 850 0 l 1
 850 23 838 95 830 122 c 2
 760 332 l 1
 619 329 398 327 287 300 c 1
 228 121 l 2
 218 92 204 28 204 0 c 1
 42 0 l 1
 43 28 61 116 74 159 c 6
 424 1269 l 5
 352 1300 300 1366 300 1445 c 0
EndSplineSet
Validated: 1
EndChar

StartChar: ccedilla
Encoding: 231 231 81
Width: 1060
VWidth: 12
Flags: HW
HStem: -358 125<435.445 640.66> -119 269<483.228 621.168> 865 153<353.88 699.499>
VStem: 71 159<292.678 736.59> 644 136<-226.217 -127.936>
LayerCount: 2
Fore
SplineSet
230 527 m 0
 230 157 437 150 547 150 c 2
 560 150 l 2
 716 150 791 215 843 302 c 1
 969 211 l 1
 939 172 857 19 625 -4 c 1
 625 -19 l 1
 722 -24 780 -86 780 -190 c 0
 780 -291 680 -358 596 -358 c 0
 530 -358 458 -333 402 -297 c 1
 440 -191 l 1
 473 -209 513 -233 564 -233 c 0
 600 -233 641 -213 644 -175 c 1
 644 -173 l 2
 644 -144 606 -119 558 -119 c 0
 510 -119 508 -126 480 -136 c 1
 480 -4 l 1
 398 2 312 20 241 73 c 1
 111 174 71 328 71 527 c 0
 71 894 249 1018 564 1018 c 0
 659 1018 733 994 793 948 c 0
 854 901 885 841 907 789 c 1
 753 729 l 1
 742 770 713 865 553 865 c 0
 332 865 230 766 230 527 c 0
EndSplineSet
Validated: 1
EndChar

StartChar: AE
Encoding: 198 198 82
Width: 1060
VWidth: 0
Flags: HW
HStem: -5 155<619.295 941> 27 123<623.281 941> 491 140<330.475 429> 681 152<574 861> 1168 155<534 959>
LayerCount: 2
Fore
SplineSet
979 27 m 1x78
 934 11 896 -5 821 -5 c 2
 479 -5 l 1
 479 120 l 1
 469 241 451 364 440 488 c 1
 418 490 399 491 381 491 c 0
 354 491 330 488 299 481 c 1
 152 -16 l 1
 22 36 l 1
 151 462 239 891 334 1320 c 1
 417 1320 l 1
 488 1323 591 1323 699 1323 c 2
 959 1323 l 1
 959 1170 l 1
 942 1170 l 2
 859 1170 840 1168 717 1168 c 2
 534 1168 l 1
 534 1123 l 2
 534 1102 551 907 559 828 c 1
 610 829 670 833 755 833 c 2
 861 833 l 1
 861 681 l 1
 755 681 l 2
 673 681 619 677 574 676 c 1
 576 667 576 657 576 648 c 1
 602 430 617 228 622 150 c 1
 941 150 l 1xb8
 979 27 l 1x78
429 631 m 1
 429 645 l 1
 418 762 406 887 398 997 c 1
 329 625 l 1
 361 628 359 629 412 631 c 1
 429 631 l 1
EndSplineSet
Validated: 1
EndChar

StartChar: Ccedilla
Encoding: 199 199 83
Width: 1060
VWidth: 6
Flags: HW
HStem: -373 125<435.445 640.66> -134 288<481.294 620.523> 1175 157<413.559 693.076>
VStem: 56 159<361.611 926.983> 480 145<-40.4613 6.91635> 644 136<-241.217 -142.936>
LayerCount: 2
Fore
SplineSet
569 1175 m 0
 454 1175 365 1109 317 1041 c 1
 272 975 215 856 215 638 c 0
 215 471 246 322 344 229 c 0
 406 170 454 154 536 154 c 2
 550 154 l 1
 697 159 783 235 834 349 c 1
 973 271 l 1
 906 127 789 18 625 -0 c 1
 625 -34 l 1
 722 -39 780 -101 780 -205 c 0
 780 -306 680 -373 596 -373 c 0
 530 -373 458 -348 402 -312 c 1
 440 -206 l 1
 473 -224 513 -248 564 -248 c 0
 600 -248 641 -228 644 -190 c 1
 644 -188 l 2
 644 -159 606 -134 558 -134 c 0
 510 -134 508 -141 480 -151 c 1
 480 -100 480 -48 480 3 c 1
 393 15 304 47 235 116 c 1
 115 241 56 408 56 636 c 0
 56 895 137 1054 189 1132 c 0
 261 1240 397 1332 572 1332 c 0
 712 1332 840 1247 928 1085 c 1
 792 1002 l 1
 731 1124 655 1175 569 1175 c 0
EndSplineSet
Validated: 1
EndChar

StartChar: quotedbl
Encoding: 34 34 92
Width: 1060
VWidth: -25
Flags: HW
HStem: 802 662
VStem: 256 211<969.534 1452.38> 690 211<967.534 1450.38>
LayerCount: 2
Fore
SplineSet
256 1352 m 0
 256 1387 252 1419 248 1452 c 1
 457 1464 l 1
 463 1423 467 1388 467 1345 c 0
 467 1077 430 934 343 802 c 1
 190 890 l 1
 230 953 256 1141 256 1352 c 0
690 1350 m 0
 690 1385 686 1417 682 1450 c 1
 891 1462 l 1
 897 1421 901 1386 901 1343 c 0
 901 1075 864 932 777 800 c 1
 624 888 l 1
 664 951 690 1139 690 1350 c 0
EndSplineSet
Validated: 1
EndChar

StartChar: numbersign
Encoding: 35 35 93
Width: 1060
VWidth: 6
Flags: HW
HStem: 385 158<85.3235 208 391 550 722 901> 795 160<92.6516 255 435 599 770 905>
VStem: 301 162<961.726 1331>
LayerCount: 2
Fore
SplineSet
417 795 m 1
 411 715 400 623 391 541 c 1
 432 543 463 543 497 543 c 2
 571 543 l 1
 582 627 590 720 599 798 c 1
 528 798 485 796 417 795 c 1
341 -19 m 1
 172 -18 l 1
 179 95 189 208 208 375 c 1
 155 374 112 365 84 356 c 1
 34 503 l 1
 90 523 162 529 228 534 c 1
 244 614 246 711 255 790 c 1
 241 790 l 1
 176 786 126 781 91 768 c 1
 38 915 l 1
 103 940 194 944 278 949 c 1
 300 1133 293 1191 301 1331 c 1
 330 1331 375 1332 413 1332 c 0
 432 1332 449 1332 463 1331 c 1
 456 1210 450 1099 435 955 c 1
 617 955 l 1
 636 1118 646 1207 665 1326 c 1
 828 1324 l 1
 803 1203 789 1114 770 956 c 1
 905 956 l 1
 905 795 l 1
 877 796 844 799 752 799 c 1
 744 720 732 629 722 544 c 1
 901 544 l 1
 901 383 l 1
 874 384 824 386 710 386 c 1
 688 189 682 99 673 -22 c 1
 509 -21 l 1
 520 91 530 209 550 385 c 1
 526 385 l 2
 472 385 422 383 372 380 c 1
 357 230 341 -19 341 -19 c 1
EndSplineSet
Validated: 1
EndChar

StartChar: dollar
Encoding: 36 36 94
Width: 1060
VWidth: 0
Flags: HW
HStem: 651 159<318.012 432> 1121 154<275.807 468>
VStem: 72 159<283.219 439 884.687 1076.33> 788 160<275.611 524.724>
LayerCount: 2
Fore
SplineSet
247 709 m 1
 156 752 72 843 72 989 c 0
 72 1188 259 1275 470 1275 c 0
 473 1275 476 1275 479 1275 c 1
 488 1510 l 1
 670 1491 l 1
 641 1264 l 1
 770 1244 904 1163 958 1046 c 1
 819 969 l 1
 787 1057 702 1093 629 1108 c 1
 604 775 l 1
 650 765 696 752 739 732 c 1
 847 680 948 580 948 406 c 0
 948 148 751 61 550 54 c 1
 540 -185 l 1
 356 -169 l 1
 388 65 l 1
 171 106 60 231 60 439 c 1
 218 439 l 1
 218 303 289 243 400 217 c 1
 432 651 l 1
 370 666 306 682 247 709 c 1
468 1121 m 1
 337 1120 231 1090 231 994 c 0
 231 912 277 873 333 847 c 0
 367 831 405 819 444 810 c 1
 468 1121 l 1
561 207 m 1
 704 216 788 269 788 398 c 0
 788 505 730 555 651 589 c 0
 632 597 612 604 592 611 c 1
 561 207 l 1
EndSplineSet
Validated: 1
EndChar

StartChar: oe
Encoding: 339 339 95
Width: 1060
VWidth: 6
Flags: HW
HStem: 0 154<236.141 401.389 604.569 795.768> 486 156<588 815> 863 154<255.121 414.291 605.104 761.757>
VStem: 24 152<230.029 754.4> 435 153<186.445 474 631 843.974>
LayerCount: 2
Fore
SplineSet
970 187 m 1
 970 187 911 0 708 0 c 0
 616 0 540 40 487 95 c 1
 463 63 410 0 336 0 c 0
 280 0 211 5 131 91 c 0
 28 202 24 380 24 459 c 0
 24 505 25 585 35 635 c 1
 56 758 118 1017 327 1017 c 0
 406 1017 445 990 486 954 c 0
 497 945 504 937 509 931 c 1
 532 968 576 1018 691 1018 c 0
 892 1018 967 796 975 570 c 1
 975 486 l 1
 907 486 l 1
 807 483 670 478 588 474 c 1
 586 215 l 1
 625 176 673 154 712 154 c 0
 787 154 815 221 831 256 c 1
 970 187 l 1
588 652 m 2
 588 631 l 1
 676 636 739 635 815 642 c 1
 809 746 769 862 691 862 c 0
 651 862 612 851 599 805 c 1
 588 770 588 709 588 652 c 2
330 154 m 0
 382 154 433 227 433 286 c 2
 435 754 l 2
 435 776 421 863 328 863 c 0
 234 863 179 687 176 474 c 0
 176 468 176 462 176 456 c 0
 176 385 189 269 241 191 c 0
 259 164 297 154 330 154 c 0
EndSplineSet
Validated: 1
EndChar

StartChar: bracketleft
Encoding: 91 91 96
Width: 1060
VWidth: 66
Flags: HW
HStem: -259 162<512 888> 1316 154<512 844.303>
VStem: 352 160<-101 1316>
LayerCount: 2
Fore
SplineSet
844 1483 m 1
 876 1329 l 1
 775 1320 679 1320 512 1316 c 1
 512 -101 l 1
 608 -98 713 -97 732 -97 c 2
 745 -97 l 2
 808 -97 874 -103 888 -106 c 1
 888 -268 l 1
 863 -265 823 -259 752 -259 c 0
 693 -259 447 -264 354 -264 c 1
 354 -86 356 -3 356 177 c 0
 356 267 355 388 354 567 c 0
 354 742 352 918 352 1049 c 2
 352 1470 l 1
 445 1470 689 1477 740 1477 c 1
 812 1480 821 1481 844 1483 c 1
EndSplineSet
Validated: 1
EndChar

StartChar: bracketright
Encoding: 93 93 97
Width: 1060
VWidth: 66
Flags: HW
HStem: -259 162<155 531> 1329 154<196.021 531>
VStem: 531 160<-101 1316>
LayerCount: 2
Fore
SplineSet
199 1483 m 1
 222 1481 231 1480 303 1477 c 1
 354 1477 598 1470 691 1470 c 1
 691 1049 l 2
 691 918 689 742 689 567 c 0
 688 388 687 267 687 177 c 0
 687 -3 689 -86 689 -264 c 1
 596 -264 350 -259 291 -259 c 0
 220 -259 180 -265 155 -268 c 1
 155 -106 l 1
 169 -103 235 -97 298 -97 c 2
 311 -97 l 2
 330 -97 435 -98 531 -101 c 1
 531 1316 l 1
 364 1320 268 1320 167 1329 c 1
 199 1483 l 1
EndSplineSet
Validated: 1
EndChar

StartChar: parenleft
Encoding: 40 40 98
Width: 1060
VWidth: 66
Flags: HW
HStem: -262 166<714.166 892> 1326 158<689.982 893>
VStem: 248 160<306.626 948.43>
LayerCount: 2
Fore
SplineSet
893 1326 m 1
 890 1326 887 1326 884 1326 c 0
 545 1326 408 992 408 612 c 0
 408 232 596 -95 892 -96 c 1
 892 -262 l 1
 532 -259 248 55 248 612 c 0
 248 1144 462 1471 893 1484 c 1
 893 1326 l 1
EndSplineSet
Validated: 1
EndChar

StartChar: parenright
Encoding: 41 41 99
Width: 1060
VWidth: 66
Flags: HW
HStem: -262 166<147 324.834> 1326 158<146 349.018>
VStem: 631 160<306.626 948.43>
LayerCount: 2
Fore
SplineSet
146 1326 m 1
 146 1484 l 1
 577 1471 791 1144 791 612 c 0
 791 55 507 -259 147 -262 c 1
 147 -96 l 1
 443 -95 631 232 631 612 c 0
 631 992 494 1326 155 1326 c 0
 152 1326 149 1326 146 1326 c 1
EndSplineSet
Validated: 1
EndChar

StartChar: hyphen
Encoding: 45 45 100
Width: 1060
VWidth: 6
Flags: HW
HStem: 448 152<108 939>
LayerCount: 2
Fore
SplineSet
102 591 m 5
 238 598 394 600 496 600 c 4
 537 600 576 600 615 600 c 4
 697 600 814 599 921 598 c 5
 939 598 l 5
 939 445 l 5
 921 445 l 5
 786 448 619 448 494 448 c 4
 427 448 260 446 108 438 c 5
 108 522 l 5
 102 591 l 5
EndSplineSet
Validated: 1
EndChar

StartChar: plus
Encoding: 43 43 101
Width: 1060
VWidth: 6
Flags: HW
HStem: 443 155<61 436 596 970>
VStem: 439 154<2 445 601 984>
LayerCount: 2
Fore
SplineSet
61 589 m 1
 118 600 186 601 279 601 c 0
 325 601 378 601 439 601 c 1
 439 985 l 1
 593 984 l 1
 593 593 l 1
 596 600 l 1
 723 598 826 598 889 598 c 0
 916 598 943 598 970 598 c 1
 970 443 l 1
 955 443 l 2
 949 443 806 443 596 446 c 1
 597 0 l 1
 436 2 l 1
 436 445 l 1
 237 445 129 444 61 434 c 1
 61 589 l 1
EndSplineSet
Validated: 1
EndChar

StartChar: less
Encoding: 60 60 102
Width: 1060
VWidth: 4
Flags: HW
LayerCount: 2
Fore
SplineSet
874 75 m 1
 749 -30 l 1
 725 6 681 42 633 80 c 1
 538 159 157 435 131 453 c 1
 131 573 l 1
 288 702 605 957 738 1035 c 0
 768 1052 789 1066 824 1077 c 1
 871 920 l 1
 710 835 475 640 316 517 c 1
 459 416 782 207 874 75 c 1
EndSplineSet
Validated: 1
EndChar

StartChar: greater
Encoding: 62 62 103
Width: 1060
VWidth: 6
Flags: HW
LayerCount: 2
Fore
SplineSet
784 577 m 1
 784 460 l 1
 688 391 268 21 90 -44 c 1
 22 95 l 1
 197 189 458 399 599 512 c 1
 473 602 229 780 115 886 c 0
 88 911 66 930 47 960 c 1
 165 1062 l 1
 271 936 697 644 784 577 c 1
EndSplineSet
Validated: 1
EndChar

StartChar: slash
Encoding: 47 47 104
Width: 1060
VWidth: 60
Flags: HW
LayerCount: 2
Fore
SplineSet
100 -80 m 1
 106 -67 134 -10 152 32 c 1
 248 257 631 1152 739 1438 c 1
 887 1380 l 1
 749 1028 368 141 248 -141 c 1
 100 -80 l 1
EndSplineSet
Validated: 1
EndChar

StartChar: one
Encoding: 49 49 105
Width: 1060
VWidth: 0
Flags: HW
HStem: -9 21G<529.962 694> -9 21G<529.962 694> 1282 20G<492 676>
VStem: 530 164<-9 1055>
LayerCount: 2
Fore
SplineSet
496 1302 m 1xb0
 694 1290 l 1
 694 -9 l 1
 530 -9 l 1
 528 1055 l 1
 460 970 332 871 209 781 c 1
 108 932 l 1
 413 1112 486 1288 496 1302 c 1xb0
EndSplineSet
Validated: 1
EndChar

StartChar: two
Encoding: 50 50 106
Width: 1060
VWidth: 0
Flags: HW
HStem: 2 153<295 880> 1150 156<358.75 633.001>
VStem: 130 158<857.53 1072.55> 702 159<796.407 1078.03>
LayerCount: 2
Fore
SplineSet
301 857 m 1
 151 821 l 1
 142 850 133 897 131 933 c 0
 131 942 130 950 130 958 c 0
 130 1180 295 1306 493 1306 c 0
 732 1306 861 1188 861 928 c 0
 861 801 782 688 702 603 c 1
 617 518 498 432 396 332 c 0
 325 262 297 191 295 155 c 1
 880 157 l 1
 880 2 l 1
 121 2 l 1
 121 32 119 64 119 97 c 0
 119 123 120 150 125 178 c 0
 143 275 189 360 297 461 c 0
 403 559 503 625 581 701 c 1
 658 774 702 865 702 926 c 0
 702 1042 646 1150 501 1150 c 0
 371 1150 288 1080 288 920 c 0
 288 899 297 868 301 857 c 1
EndSplineSet
Validated: 1
EndChar

StartChar: three
Encoding: 51 51 107
Width: 1060
VWidth: 0
Flags: HW
HStem: -22 155<314.29 625.013> 666 158<340 556.412> 1150 153<335.153 602.157>
VStem: 78 158<209.514 335> 643 158<900.028 1108.52> 720 160<227.609 539.03>
LayerCount: 2
Fore
SplineSet
78 335 m 1xf4
 236 336 l 1
 237 220 319 133 466 133 c 0
 624 133 720 226 720 374 c 0xf4
 720 484 687 561 590 615 c 0
 499 666 420 666 340 666 c 1
 340 824 l 1
 356 824 l 2
 394 824 444 826 516 850 c 1
 600 880 643 927 643 1028 c 0
 643 1106 558 1150 457 1150 c 0
 330 1150 272 1046 254 1010 c 1
 112 1089 l 1
 117 1104 204 1303 447 1303 c 2
 458 1303 l 2
 637 1303 801 1224 801 1033 c 0xf8
 801 905 750 798 659 757 c 1
 820 679 880 546 880 376 c 0
 880 291 851 180 784 101 c 0
 718 24 625 -22 466 -22 c 0
 225 -22 78 131 78 335 c 1xf4
EndSplineSet
Validated: 1
EndChar

StartChar: four
Encoding: 52 52 108
Width: 1060
VWidth: 0
Flags: HW
HStem: -2 21G<605 761> 413 157<287 605 761 889> 1286 20G<587 761>
VStem: 605 156<-2 413 570 990 1216.54 1306>
LayerCount: 2
Fore
SplineSet
605 570 m 1
 605 990 l 1
 532 861 379 667 287 570 c 1
 605 570 l 1
78 543 m 1
 112 589 576 1143 598 1306 c 1
 761 1306 l 1
 761 570 l 1
 889 570 l 1
 889 416 l 1
 761 416 l 1
 761 -2 l 1
 605 -2 l 1
 605 413 l 1
 138 413 l 1
 78 543 l 1
EndSplineSet
Validated: 1
EndChar

StartChar: five
Encoding: 53 53 109
Width: 1060
VWidth: 0
Flags: HW
HStem: -2 156<342.269 628.971> 731 158<333.708 636.53> 1132 156<317 775>
VStem: 734 158<264.988 633.537>
LayerCount: 2
Fore
SplineSet
485 731 m 0
 354 731 273 640 256 623 c 1
 130 677 l 1
 176 1288 l 1
 775 1286 l 1
 775 1132 l 1
 317 1132 l 1
 294 835 l 1
 341 863 404 889 482 889 c 0
 539 889 607 879 675 846 c 1
 786 787 892 651 892 450 c 0
 892 150 712 0 472 -2 c 1
 470 -2 l 2
 295 -2 176 114 106 231 c 1
 239 319 l 1
 291 233 361 154 473 154 c 0
 640 154 734 259 734 448 c 0
 734 596 683 669 605 705 c 0
 563 725 521 731 485 731 c 0
EndSplineSet
Validated: 1
EndChar

StartChar: six
Encoding: 54 54 110
Width: 1060
VWidth: 0
Flags: HW
HStem: -3 153<353.177 645.085> 591 155<368.702 658.271> 1175 147<584.475 677.803>
VStem: 738 159<237.413 508.992>
LayerCount: 2
Fore
SplineSet
713 1175 m 1
 504 1137 383 995 317 838 c 0
 292 776 281 714 272 654 c 1
 326 700 373 746 523 746 c 0
 745 746 897 599 897 368 c 0
 897 115 723 -3 487 -3 c 0
 226 -3 94 207 94 481 c 0
 94 600 113 752 171 900 c 0
 247 1092 385 1265 674 1322 c 1
 713 1175 l 1
257 403 m 1
 275 238 355 150 487 150 c 0
 631 150 738 232 738 368 c 0
 738 504 653 591 514 591 c 0
 381 591 273 488 257 403 c 1
EndSplineSet
Validated: 1
EndChar

StartChar: seven
Encoding: 55 55 111
Width: 1060
VWidth: 0
Flags: HW
HStem: 1023 21G<161.738 212.5> 1131 155<225.978 787>
VStem: 313 165<0 304.141>
LayerCount: 2
Fore
SplineSet
151 1292 m 1
 235 1292 343 1286 420 1286 c 0
 571 1286 769 1286 912 1286 c 2
 953 1286 l 1
 999 1204 l 1
 710 667 478 454 478 0 c 1
 313 0 l 1
 313 407 514 714 787 1133 c 1
 735 1131 660 1131 589 1131 c 0
 542 1131 496 1131 460 1131 c 0
 397 1131 311 1136 248 1139 c 1
 229 1102 219 1066 206 1023 c 1
 71 1084 l 1
 90 1143 125 1217 151 1292 c 1
EndSplineSet
Validated: 1
EndChar

StartChar: eight
Encoding: 56 56 112
Width: 1060
VWidth: 0
Flags: HW
HStem: -9 156<343.993 686.984> 1136 157<349.346 642.178>
VStem: 82 159<244.058 510.52> 143 157<904.445 1090.76> 685 158<896.135 1094.12> 776 158<233.158 513.513>
LayerCount: 2
Fore
SplineSet
241 390 m 0xe4
 241 231 360 147 497 147 c 0
 652 147 776 197 776 388 c 0
 776 530 656 585 494 657 c 1
 362 597 241 521 241 390 c 0xe4
300 989 m 0xd8
 300 923 391 848 499 821 c 1
 613 851 685 917 685 994 c 0
 685 1059 650 1136 498 1136 c 0
 378 1136 300 1084 300 989 c 0xd8
314 739 m 1
 226 778 143 882 143 985 c 0
 143 1173 280 1293 499 1293 c 0
 742 1293 843 1148 843 992 c 0xd8
 843 869 754 781 672 737 c 1
 807 663 934 599 934 373 c 0
 934 119 751 -9 514 -9 c 0
 255 -9 82 141 82 378 c 0xe4
 82 560 199 676 314 739 c 1
EndSplineSet
Validated: 1
EndChar

StartChar: nine
Encoding: 57 57 113
Width: 1060
VWidth: 0
Flags: HW
HStem: -2 156<309.076 629.039> 616 152<331.625 638.905> 1152 150<334.678 621.922>
VStem: 65 153<251.68 318.216> 96 159<838.408 1076.51> 750 156<310.315 710>
LayerCount: 2
Fore
SplineSet
504 1152 m 0xec
 374 1152 255 1094 255 952 c 0
 255 822 377 768 497 768 c 0
 625 768 709 859 729 928 c 1
 716 1038 621 1152 504 1152 c 0xec
96 955 m 0
 96 1170 257 1302 479 1302 c 0
 860 1302 906 963 906 644 c 0
 906 320 834 -2 487 -2 c 0
 242 -2 130 113 65 314 c 1
 218 359 l 1xf4
 263 214 304 154 487 154 c 0
 708 154 750 375 750 603 c 0
 750 639 748 675 747 710 c 1
 684 646 612 616 483 616 c 0
 269 616 96 730 96 955 c 0
EndSplineSet
Validated: 1
EndChar

StartChar: equal
Encoding: 61 61 114
Width: 1060
VWidth: 6
Flags: HW
HStem: 189 160<50 895> 652 162<51.7699 886.013> 667 158<48 389.491 403.172 895>
LayerCount: 2
Fore
SplineSet
50 349 m 1x80
 190 357 302 357 416 357 c 0
 595 357 729 349 897 349 c 1
 895 188 l 1
 721 188 577 193 394 193 c 0
 344 193 294 194 242 194 c 0
 182 194 119 193 50 189 c 1
 50 349 l 1x80
48 825 m 1xa0
 191 816 302 814 396 814 c 0
 588 814 697 823 895 823 c 1
 895 664 l 1
 702 664 591 652 394 652 c 0xc0
 298 652 190 658 45 667 c 1
 45 720 45 774 48 825 c 1xa0
EndSplineSet
Validated: 1
EndChar

StartChar: backslash
Encoding: 92 92 115
Width: 1060
VWidth: 60
Flags: HW
LayerCount: 2
Fore
SplineSet
906 -80 m 1
 758 -141 l 1
 638 141 258 1028 120 1380 c 1
 268 1438 l 1
 376 1152 758 257 856 32 c 1
 872 -10 900 -67 906 -80 c 1
EndSplineSet
Validated: 1
EndChar

StartChar: asciicircum
Encoding: 94 94 116
Width: 1060
VWidth: -10
Flags: HW
HStem: 467 634
LayerCount: 2
Fore
SplineSet
520 1101 m 1
 978 590 l 1
 858 467 l 1
 522 829 l 1
 167 467 l 1
 52 576 l 1
 520 1101 l 1
EndSplineSet
Validated: 1
EndChar

StartChar: underscore
Encoding: 95 95 117
Width: 1060
VWidth: 41
Flags: HW
HStem: -236 152<46 992>
LayerCount: 2
Fore
SplineSet
46 -84 m 1
 992 -84 l 1
 992 -236 l 1
 42 -236 l 1
 46 -84 l 1
EndSplineSet
Validated: 1
EndChar

StartChar: grave
Encoding: 96 96 118
Width: 1060
VWidth: -25
Flags: HW
HStem: 845 618
VStem: 242 570
LayerCount: 2
Fore
SplineSet
482 1463 m 1
 552 1245 735 1052 812 1010 c 1
 708 845 l 1
 559 925 338 1094 242 1379 c 1
 482 1463 l 1
EndSplineSet
Validated: 1
EndChar

StartChar: question
Encoding: 63 63 119
Width: 1060
VWidth: 0
Flags: HW
HStem: 0 270<333 583> 1182 155<345.349 630.299>
VStem: 115 157<878.836 1109.3> 333 250<0 270> 367 175<431 598.664> 688 160<876.981 1122.17>
LayerCount: 2
Fore
SplineSet
505 1337 m 0xec
 736 1337 848 1205 848 993 c 0
 848 834 729 736 651 670 c 0
 599 626 542 559 542 477 c 2
 542 431 l 1
 367 431 l 1
 367 475 l 2
 367 595 419 673 503 747 c 0
 603 836 688 883 688 989 c 0
 688 1101 629 1182 497 1182 c 0
 373 1182 274 1121 272 989 c 0
 272 942 301 896 327 864 c 1
 193 774 l 1
 152 834 115 899 115 984 c 0
 115 1227 298 1337 505 1337 c 0xec
333 270 m 1xf4
 583 270 l 1
 583 0 l 1
 333 0 l 1
 333 270 l 1xf4
EndSplineSet
Validated: 1
EndChar

StartChar: asciitilde
Encoding: 126 126 120
Width: 1060
VWidth: -12
Flags: HW
HStem: 422 153<608.995 790.693> 596 154<235.74 433.755>
VStem: 849 143<637.125 693.115>
LayerCount: 2
Fore
SplineSet
335 750 m 0
 491 750 618 575 708 575 c 0
 795 575 835 683 849 748 c 1
 992 687 l 1
 969 599 907 422 704 422 c 0
 538 422 437 596 325 596 c 0
 269 596 208 538 160 451 c 1
 31 542 l 1
 101 677 179 750 335 750 c 0
EndSplineSet
Validated: 1
EndChar

StartChar: Oslash
Encoding: 216 216 127
Width: 1060
VWidth: 0
Flags: HW
HStem: -8 156<378.857 652.84> 1172 156<387.35 628.742>
VStem: 41 159<328.804 888.475> 814 158<360.548 967.979>
LayerCount: 2
Fore
SplineSet
747 1026 m 1
 631 751 483 417 377 174 c 1
 413 157 456 148 509 148 c 0
 625 148 698 212 743 297 c 1
 783 362 814 528 814 637 c 1
 814 637 810 902 754 1013 c 0
 752 1017 749 1022 747 1026 c 1
258 295 m 1
 359 526 519 887 630 1152 c 1
 602 1166 571 1172 538 1172 c 0
 443 1172 387 1144 329 1066 c 0
 260 975 200 809 200 585 c 0
 200 497 219 376 258 295 c 1
185 127 m 1
 183 129 181 132 179 134 c 0
 89 246 41 397 41 581 c 0
 41 895 129 1063 199 1160 c 0
 265 1252 377 1325 533 1328 c 0
 572 1328 629 1323 689 1297 c 1
 701 1326 711 1352 720 1376 c 1
 868 1318 l 1
 854 1282 838 1242 820 1199 c 1
 903 1102 970 934 972 645 c 1
 972 634 l 2
 972 467 928 314 880 219 c 0
 805 72 674 -8 509 -8 c 0
 443 -8 375 4 314 31 c 1
 303 7 295 -16 286 -36 c 1
 138 25 l 1
 144 37 168 86 185 127 c 1
EndSplineSet
Validated: 1
EndChar

StartChar: multiply
Encoding: 215 215 128
Width: 1060
VWidth: 6
Flags: HW
LayerCount: 2
Fore
SplineSet
381 522 m 1
 261 642 171 748 63 848 c 1
 162 971 l 1
 271 870 383 753 496 636 c 1
 674 806 815 945 832 963 c 1
 936 840 l 1
 917 821 780 682 609 515 c 1
 788 324 836 261 936 161 c 1
 816 63 l 1
 736 167 658 239 494 407 c 1
 342 258 232 132 186 82 c 1
 69 180 l 1
 129 252 238 380 381 522 c 1
EndSplineSet
Validated: 1
EndChar

StartChar: oslash
Encoding: 248 248 140
Width: 1060
VWidth: 6
Flags: HW
HStem: -9 21G<99.6538 139.2> -9 21G<99.6538 139.2> 1 155<337.508 630.662> 878 154<352.497 638.732>
VStem: 72 158<358.327 736.885> 743 159<279.587 664.228>
LayerCount: 2
Fore
SplineSet
241 356 m 1x1c
 655 821 l 1
 618 857 567 878 500 878 c 0
 292 878 230 713 230 469 c 0
 230 428 233 390 241 356 c 1x1c
855 804 m 1
 888 727 902 629 902 543 c 0
 902 258 806 1 484 1 c 2
 482 1 l 1x3c
 368 2 278 33 212 91 c 1
 121 -9 l 1x9c
 10 95 l 1
 119 218 l 1
 88 287 72 370 72 464 c 0
 72 756 174 1032 466 1032 c 0
 598 1032 692 1001 760 940 c 1
 873 1067 l 1
 993 956 l 1
 855 804 l 1
654 215 m 1
 719 276 743 382 743 530 c 0
 743 536 743 542 743 548 c 0
 743 590 740 630 732 667 c 1
 320 212 l 1
 361 176 416 156 484 156 c 0
 560 157 604 173 654 215 c 1
EndSplineSet
Validated: 1
EndChar

StartChar: plusminus
Encoding: 177 177 145
Width: 1060
VWidth: -6
Flags: HW
HStem: 186 150<89 424 584 945> 669 150<82 426 586 945>
VStem: 426 160<344 658 811 1171>
LayerCount: 2
Fore
SplineSet
82 822 m 1
 255 812 325 811 426 811 c 1
 428 1172 l 1
 588 1171 l 1
 586 810 l 1
 741 813 739 819 928 819 c 2
 945 819 l 1
 945 669 l 1
 928 669 l 2
 742 669 744 663 586 658 c 1
 586 647 l 2
 586 541 584 433 584 343 c 1
 748 340 762 338 928 335 c 1
 945 334 l 1
 945 184 l 1
 928 185 l 1
 719 188 647 192 426 192 c 0
 294 192 267 191 107 186 c 1
 89 186 l 1
 89 336 l 1
 106 336 l 1
 267 340 303 344 424 344 c 1
 424 437 426 543 426 649 c 2
 426 659 l 1
 319 659 260 662 82 672 c 1
 82 822 l 1
EndSplineSet
Validated: 1
EndChar

StartChar: divide
Encoding: 247 247 146
Width: 1060
VWidth: 6
Flags: HW
HStem: -12 270<355 605> 437 157<101 887> 757 269<353 604>
VStem: 355 250<-12 258 757 1026>
LayerCount: 2
Fore
SplineSet
101 437 m 1
 96 594 l 1
 255 599 380 600 458 600 c 0
 596 600 661 597 871 594 c 1
 888 594 l 1
 887 437 l 1
 869 437 l 1
 656 440 592 444 455 444 c 0
 379 444 253 441 101 437 c 1
355 258 m 1
 605 258 l 1
 605 -12 l 1
 355 -12 l 1
 355 258 l 1
353 1026 m 1
 604 1026 l 1
 604 757 l 1
 353 757 l 1
 353 1026 l 1
EndSplineSet
Validated: 1
EndChar

StartChar: OE
Encoding: 338 338 149
Width: 1060
VWidth: 0
Flags: HW
HStem: -8 152<272.392 462.388 616 940.903> 682 153<620 895> 1170 160<307.016 464 620 962>
VStem: 11 153<259.42 992.628> 464 156<153 682 835 1170>
LayerCount: 2
Fore
SplineSet
463 146 m 1
 464 1170 l 1
 203 1170 164 951 164 578 c 0
 164 352 168 149 418 144 c 0
 434 144 450 145 463 146 c 1
811 153 m 1
 870 155 898 163 943 179 c 1
 981 33 l 1
 875 4 778 -1 667 -1 c 0
 620 -1 570 0 515 0 c 1
 498 -7 403 -8 388 -8 c 0
 82 4 11 291 11 597 c 0
 11 1033 109 1330 444 1330 c 0
 470 1330 498 1328 524 1323 c 1
 583 1326 646 1326 709 1326 c 0
 794 1326 880 1325 962 1325 c 1
 962 1170 l 1
 870 1170 812 1171 741 1171 c 0
 706 1171 667 1171 620 1170 c 1
 620 835 l 1
 895 835 l 1
 895 682 l 1
 620 682 l 1
 620 480 616 232 616 153 c 1
 811 153 l 1
EndSplineSet
Validated: 1
EndChar

StartChar: yen
Encoding: 165 165 150
Width: 1060
VWidth: 0
Flags: HW
HStem: -6 21G<399 559> 374 164<78 403 565 922> 683 159<82 273 718 930>
VStem: 399 160<-6 374 538 660.731>
LayerCount: 2
Fore
SplineSet
403 374 m 1
 366 374 329 374 291 374 c 0
 224 374 154 373 78 369 c 1
 78 531 l 1
 95 531 l 1
 218 535 310 538 406 538 c 1
 406 613 l 1
 395 628 383 648 368 672 c 1
 291 673 195 679 80 686 c 1
 80 750 l 2
 80 782 80 813 82 844 c 1
 151 840 220 837 273 835 c 1
 177 1006 66 1214 33 1283 c 1
 173 1355 l 1
 207 1285 362 997 457 833 c 1
 531 833 l 1
 636 999 795 1290 828 1368 c 1
 967 1288 l 1
 920 1192 847 1046 742 875 c 0
 734 863 726 851 718 839 c 1
 776 841 837 842 912 842 c 2
 930 842 l 1
 930 683 l 1
 912 683 l 2
 793 683 708 678 613 675 c 1
 590 640 574 613 566 602 c 1
 566 580 566 559 565 537 c 1
 682 535 786 532 908 530 c 1
 925 530 l 1
 922 368 l 1
 904 368 l 1
 784 370 678 373 562 374 c 1
 560 264 559 163 559 128 c 2
 559 -6 l 1
 399 -6 l 1
 399 143 l 2
 399 192 401 282 403 374 c 1
EndSplineSet
Validated: 1
EndChar

StartChar: Eth
Encoding: 208 208 152
Width: 1060
VWidth: 0
Flags: HW
HStem: -10 154<230 657.626> 773 148<4 76 234 600> 1176 155<234 539.421>
VStem: 76 158<147 773 921 1173.17> 810 159<312.146 850.696>
LayerCount: 2
Fore
SplineSet
76 921 m 1
 76 977 l 2
 76 1106 72 1229 63 1317 c 1
 144 1325 189 1331 288 1331 c 0
 559 1331 715 1249 838 1066 c 1
 922 939 969 761 969 580 c 0
 969 511 961 442 948 376 c 0
 900 135 739 14 559 -3 c 0
 504 -8 453 -10 398 -10 c 0
 314 -10 181 -3 67 -3 c 1
 67 31 67 30 70 128 c 1
 70 176 75 483 76 773 c 1
 4 773 l 1
 4 921 l 1
 76 921 l 1
309 1176 m 2
 279 1176 l 2
 263 1176 251 1176 234 1173 c 1
 235 1147 235 1117 235 1086 c 0
 235 1034 234 978 234 921 c 1
 356 921 478 921 600 921 c 1
 601 773 l 1
 234 773 l 1
 233 501 231 233 230 147 c 1
 318 144 363 144 423 144 c 0
 592 144 718 170 783 353 c 0
 799 399 810 489 810 544 c 0
 810 706 774 876 709 973 c 0
 620 1104 530 1176 309 1176 c 2
EndSplineSet
Validated: 1
EndChar

StartChar: currency
Encoding: 164 164 153
Width: 1060
VWidth: 6
Flags: HW
HStem: 98 157<420.92 626.633>
VStem: 215 165<301.574 671.832> 687 163<322.138 685.398>
LayerCount: 2
Fore
SplineSet
687 522 m 0
 687 650 632 735 547 743 c 1
 532 741 l 1
 427 730 380 626 380 462 c 0
 380 325 421 255 529 255 c 0
 637 255 687 368 687 522 c 0
215 461 m 2
 215 468 l 2
 215 556 235 636 260 697 c 1
 119 849 l 1
 238 955 l 1
 355 828 l 1
 403 878 456 898 526 901 c 1
 543 901 l 2
 626 901 678 880 729 833 c 1
 841 946 l 1
 954 847 l 1
 818 697 l 1
 841 640 850 582 850 520 c 1
 848 417 834 352 799 284 c 1
 944 129 l 1
 826 23 l 1
 701 159 l 1
 651 120 590 98 524 98 c 0
 440 99 387 127 339 167 c 1
 214 43 l 1
 107 142 l 1
 240 299 l 1
 219 354 215 403 215 461 c 2
EndSplineSet
Validated: 1
EndChar

StartChar: sterling
Encoding: 163 163 154
Width: 1060
VWidth: 0
Flags: HW
HStem: -13 152<212.292 305.715 582.024 837.099> 687 152<172 301 490 861> 1198 153<465.389 665.633>
VStem: 60 151<141.174 267.198> 277 158<841.301 1170.57> 369 157<335.307 679.073> 698 147<1113.81 1164.47> 839 156<142.143 229>
LayerCount: 2
Fore
SplineSet
308 186 m 1xf0
 275 216 257 254 234 269 c 1
 224 262 211 231 211 201 c 0
 211 199 211 197 211 195 c 0
 213 153 226 139 242 139 c 0
 264 139 292 166 308 186 c 1xf0
861 691 m 1
 787 682 704 682 606 682 c 2
 490 682 l 1
 508 589 525 495 526 385 c 0
 526 333 519 278 507 230 c 1
 601 169 654 137 743 137 c 0
 836 137 839 154 839 214 c 0
 839 219 839 224 839 229 c 1
 995 231 l 1
 995 190 l 1
 991 54 910 -15 769 -16 c 0
 651 -16 551 25 442 95 c 1
 394 29 309 -13 222 -13 c 0
 122 -13 60 80 60 192 c 0
 60 293 91 370 163 412 c 0
 180 421 199 424 214 424 c 0
 217 424 220 424 223 424 c 0
 282 424 334 369 367 334 c 1
 369 354 369 375 369 397 c 0xf5
 368 503 350 589 331 685 c 1
 279 687 234 687 189 687 c 2
 172 687 l 1
 172 839 l 1
 301 839 l 1
 288 910 277 977 277 1043 c 0
 277 1248 389 1351 578 1351 c 0
 725 1351 814 1245 845 1118 c 1
 698 1075 l 1
 682 1137 659 1196 578 1198 c 0
 576 1198 574 1198 572 1198 c 0
 455 1198 435 1116 435 1051 c 0xfa
 435 997 450 900 461 834 c 1
 608 837 l 1
 627 837 647 837 665 837 c 0
 739 837 805 838 861 844 c 1
 861 691 l 1
EndSplineSet
Validated: 1
EndChar

StartChar: cent
Encoding: 162 162 155
Width: 1060
VWidth: 6
Flags: HW
HStem: -9 293<425.51 580.879> 720 313<423 582.347>
VStem: 142 162<353.688 651.195> 422 162<-9 142.125 858.461 1033>
LayerCount: 2
Fore
SplineSet
506 284 m 0
 507 284 507 284 508 284 c 0
 600 284 675 318 701 354 c 1
 712 370 l 1
 849 287 l 1
 837 271 l 1
 785 194 690 147 582 135 c 1
 582 -9 l 1
 422 -9 l 1
 422 139 l 1
 376 148 326 164 281 194 c 0
 177 264 142 356 142 490 c 2
 142 501 l 2
 142 624 180 705 221 753 c 0
 277 817 349 851 422 865 c 1
 422 1033 l 1
 584 1033 l 1
 584 867 l 1
 701 850 768 786 801 695 c 1
 643 638 l 1
 639 661 l 1
 628 714 592 720 513 720 c 0
 452 720 388 702 351 657 c 0
 332 635 304 596 304 514 c 0
 304 384 364 283 489 283 c 0
 495 283 500 284 506 284 c 0
EndSplineSet
Validated: 1
EndChar

StartChar: percent
Encoding: 37 37 156
Width: 1060
VWidth: 0
Flags: HW
HStem: -3 135<674.373 827.008> 358 153<710.087 846.782> 730 155<204.471 350.848> 1094 153<224.101 382.437>
VStem: 55 135<899.761 1058.49> 389 147<922.223 1082.51> 517 150<139.341 319.221> 865 136<169.63 343.02>
LayerCount: 2
Fore
SplineSet
667 225 m 2xfb
 667 215 l 1
 671 156 690 135 747 132 c 1
 751 132 l 2
 801 132 865 199 865 247 c 2
 865 254 l 2
 865 310 827 356 776 358 c 1
 774 358 l 2
 728 358 667 277 667 225 c 2xfb
517 226 m 2
 517 241 l 1
 526 370 626 505 767 511 c 1
 775 511 l 1
 898 506 1001 399 1001 266 c 2
 1001 254 l 2
 1001 136 895 -3 750 -3 c 0
 619 -3 517 93 517 226 c 2
284 885 m 0
 327 885 389 958 389 1008 c 0xfd
 389 1068 362 1091 301 1094 c 0
 300 1094 299 1094 298 1094 c 0
 255 1094 190 1025 190 981 c 0
 190 928 230 885 284 885 c 0
284 730 m 0
 156 730 55 844 55 980 c 0
 55 1121 169 1244 302 1247 c 0
 304 1247 306 1247 308 1247 c 0
 438 1247 536 1148 536 1019 c 0
 536 1017 536 1015 536 1013 c 0
 533 873 430 730 284 730 c 0
168 24 m 1
 296 301 616 1022 749 1374 c 1
 903 1307 l 5
 765 955 441 234 321 -48 c 5
 168 24 l 1
EndSplineSet
Validated: 1
EndChar

StartChar: guillemotleft
Encoding: 171 171 157
Width: 1060
VWidth: 6
Flags: HW
VStem: 387 152<103.907 161.156> 401 156<871.117 942.4>
LayerCount: 2
Fore
SplineSet
421 576 m 1x00
 566 676 687 845 727 978 c 1
 880 921 l 1
 833 779 742 633 612 516 c 1
 734 410 813 287 858 134 c 1
 864 116 l 1
 709 63 l 1
 661 226 577 343 421 450 c 1
 421 576 l 1x00
71 574 m 1
 215 704 378 836 401 976 c 1
 557 939 l 1x40
 517 750 381 627 256 518 c 1
 384 400 494 281 539 109 c 1
 387 55 l 1x80
 349 204 229 318 71 459 c 1
 71 574 l 1
EndSplineSet
Validated: 1
EndChar

StartChar: section
Encoding: 167 167 159
Width: 1060
VWidth: 4
Flags: HW
HStem: -322 155<398.184 642.221> 1213 155<375.43 614.296>
VStem: 120 158<567.294 710.649> 163 156<923.488 1159.18> 198 155<-129.895 -31> 656 151<1081 1178.04> 695 161<-114.133 113.863> 735 163<327.508 479.299>
LayerCount: 2
Fore
SplineSet
679 319 m 1xd0
 727 339 735 358 735 392 c 2
 735 409 l 1
 732 430 723 452 698 475 c 0
 597 567 460 640 344 722 c 1
 283 697 278 679 278 637 c 0xe1
 278 617 294 591 319 569 c 0
 420 476 563 399 679 319 c 1xd0
163 1040 m 0xd0
 163 1258 341 1368 494 1368 c 0
 666 1368 803 1271 807 1081 c 1
 656 1080 l 1xd4
 653 1142 640 1155 608 1183 c 1
 582 1203 546 1213 494 1213 c 1
 405 1211 319 1152 319 1055 c 0
 319 933 365 915 492 827 c 0
 584 763 706 698 806 594 c 1
 857 544 898 477 898 405 c 0xd1
 898 300 863 246 799 198 c 1
 834 148 854 83 856 6 c 0
 856 3 856 0 856 -3 c 0
 856 -223 671 -322 516 -322 c 0
 341 -322 203 -225 198 -31 c 1
 353 -30 l 1xca
 362 -90 370 -111 402 -135 c 0
 427 -154 465 -167 515 -167 c 1
 607 -164 695 -112 695 -9 c 0
 695 9 693 30 687 55 c 0
 675 101 614 159 520 220 c 1
 424 281 304 348 203 450 c 1
 154 503 120 568 120 641 c 0xe2
 120 745 163 794 226 841 c 1
 190 893 163 971 163 1040 c 0xd0
EndSplineSet
Validated: 1
EndChar

StartChar: braceleft
Encoding: 123 123 160
Width: 1060
VWidth: 66
Flags: HW
HStem: -262 166<668.217 889> 1326 158<662.189 889>
VStem: 459 162<-49.0123 196.652 1026.22 1285.63> 530 159<147.679 428.715 782.815 1052.07>
LayerCount: 2
Fore
SplineSet
889 1484 m 1xe0
 894 1326 l 1
 767 1320 688 1314 642 1260 c 0
 623 1238 616 1221 616 1199 c 0
 616 1098 689 1008 689 893 c 0
 689 743 588 633 492 610 c 1
 594 579 696 464 696 324 c 0xd0
 696 210 628 136 628 34 c 0
 628 -75 759 -90 895 -96 c 1
 889 -262 l 1
 756 -256 607 -244 514 -136 c 0
 473 -88 459 -39 459 11 c 0xe0
 459 82 488 153 511 219 c 0
 524 256 530 288 530 316 c 0xd0
 530 455 387 496 284 528 c 1
 284 690 l 1
 405 724 533 765 533 899 c 0
 533 929 526 963 512 1003 c 1
 488 1068 459 1140 459 1211 c 0
 459 1261 474 1311 514 1358 c 0
 607 1466 756 1478 889 1484 c 1xe0
EndSplineSet
Validated: 1
EndChar

StartChar: bar
Encoding: 124 124 161
Width: 1060
VWidth: 66
Flags: HW
VStem: 391 162<-194.108 1492>
LayerCount: 2
Fore
SplineSet
390 152 m 0
 390 517 381 1111 381 1399 c 2
 381 1492 l 1
 541 1492 l 1
 541 1347 l 2
 541 1070 553 558 553 224 c 2
 553 74 l 2
 553 -41 552 -97 547 -198 c 1
 386 -197 l 1
 390 -135 391 -92 391 -37 c 0
 391 10 390 66 390 152 c 0
EndSplineSet
Validated: 1
EndChar

StartChar: braceright
Encoding: 125 125 162
Width: 1060
VWidth: 66
Flags: HW
HStem: -262 166<150 352.5> 1326 158<149 357.626>
VStem: 340 168<148.269 428.633 784.259 1074.51> 406 174<-45.1572 195.685 1027 1280.09>
LayerCount: 2
Fore
SplineSet
150 1484 m 1xe0
 283 1478 432 1466 525 1358 c 0
 565 1311 580 1261 580 1211 c 0
 580 1140 551 1068 527 1003 c 1
 513 963 506 929 506 899 c 0
 506 765 634 724 755 690 c 1
 755 528 l 1
 652 496 509 455 509 316 c 0xd0
 509 288 515 256 528 219 c 0
 551 153 580 82 580 11 c 0xe0
 580 -39 566 -88 525 -136 c 0
 432 -244 283 -256 150 -262 c 1
 144 -96 l 1
 280 -90 411 -75 411 34 c 0
 411 136 343 210 343 324 c 0xd0
 343 464 444 579 548 610 c 1
 452 633 350 743 350 893 c 0
 350 1008 423 1098 423 1199 c 0
 423 1221 416 1238 397 1260 c 0
 351 1314 272 1320 145 1326 c 1
 150 1484 l 1xe0
EndSplineSet
Validated: 1
EndChar

StartChar: at
Encoding: 64 64 163
Width: 1060
VWidth: 6
Flags: HW
HStem: -362 150<395.063 672.196> 6 158<425.926 558.401 750.694 849.48> 510 153<439.285 575.385> 872 153<422.707 559.523> 1238 148<384.064 636.41>
VStem: 17 160<129.741 915.742> 250 154<182.576 481.286> 576 144<188.091 508.365 651 863.384> 815 147<173.32 987.456>
LayerCount: 2
Fore
SplineSet
648 105 m 1
 631 69 599 6 510 6 c 0
 448 6 411 19 357 57 c 0
 276 114 250 211 250 309 c 0
 250 476 303 663 490 663 c 0
 530 663 561 662 585 651 c 1
 585 748 583 872 498 872 c 2
 490 872 l 2
 444 872 420 844 384 750 c 1
 254 816 l 1
 303 957 371 1025 498 1025 c 0
 706 1025 720 790 720 621 c 2
 720 267 l 1
 748 206 772 171 789 171 c 0
 805 171 815 206 815 288 c 2
 815 288 815 582 815 705 c 3
 815 936 739 1238 499 1238 c 0
 351 1238 177 1027 177 550 c 0
 177 97 288 -212 543 -212 c 0
 586 -212 621 -199 653 -178 c 1
 725 -313 l 1
 679 -342 620 -362 543 -362 c 0
 156 -362 17 0 17 550 c 0
 17 1095 241 1386 500 1386 c 0
 887 1386 962 943 962 721 c 0
 962 564 962 427 962 270 c 3
 962 76 889 3 809 3 c 0
 791 3 773 7 755 14 c 0
 708 32 658 84 648 105 c 1
404 324 m 0
 404 216 438 164 500 164 c 0
 570 164 565 248 576 276 c 1
 576 489 l 1
 557 508 529 510 500 510 c 1
 444 510 404 425 404 324 c 0
EndSplineSet
Validated: 1
EndChar

StartChar: brokenbar
Encoding: 166 166 164
Width: 1060
VWidth: 66
Flags: HW
VStem: 381 160<786.676 1492> 394 163<-194 528 775 1277.55>
LayerCount: 2
Fore
SplineSet
553 528 m 1x40
 555 417 557 243 557 155 c 0
 557 -46 557 -65 550 -195 c 1
 389 -194 l 1
 393 -120 394 -90 394 -29 c 2
 394 118 l 2
 394 216 392 404 390 528 c 1
 553 528 l 1x40
388 775 m 1
 384 1042 381 1239 381 1399 c 2
 381 1492 l 1
 541 1492 l 1
 541 1366 l 2x80
 541 1217 546 1025 550 775 c 1
 388 775 l 1
EndSplineSet
Validated: 1
EndChar

StartChar: copyright
Encoding: 169 169 165
Width: 1060
VWidth: 6
Flags: HW
HStem: -336 155<387.115 610.91> -17 152<447.62 573.105> 859 174<450.844 560.197> 1202 153<391.498 590.866>
VStem: 34 136<166.256 850.907> 237 148<215.464 776.084> 605 127<164.445 238.402> 823 143<163.794 831.031>
LayerCount: 2
Fore
SplineSet
481 1033 m 0
 482 1033 483 1033 484 1033 c 0
 491 1033 497 1035 509 1035 c 0
 585 1032 674 962 724 810 c 1
 583 753 l 1
 565 810 557 859 511 859 c 0
 435 859 385 689 385 510 c 0
 385 387 417 135 500 135 c 0
 562 135 585 182 605 273 c 1
 732 234 l 1
 692 93 633 -17 509 -17 c 0
 275 -17 237 328 237 487 c 0
 237 688 280 812 309 874 c 0
 345 952 408 1019 481 1033 c 0
496 1202 m 0
 330 1202 170 905 170 512 c 0
 170 120 316 -181 496 -181 c 0
 681 -181 823 118 823 510 c 2
 823 527 l 2
 823 912 633 1202 496 1202 c 0
496 1355 m 0
 800 1355 966 962 966 506 c 0
 966 51 786 -336 496 -336 c 0
 197 -336 34 58 34 513 c 0
 34 969 208 1355 496 1355 c 0
EndSplineSet
Validated: 1
EndChar

StartChar: registered
Encoding: 174 174 166
Width: 1060
VWidth: 6
Flags: HW
HStem: -336 155<387.115 610.91> 891 153<456 549.506> 1202 153<391.498 590.866>
VStem: 34 136<166.256 850.907> 307 149<12 381 528.507 891> 583 135<536.373 855.717> 823 143<163.794 831.031>
LayerCount: 2
Fore
SplineSet
581 722 m 0
 574 851 528 891 465 891 c 0
 462 891 459 891 456 891 c 1
 456 538 l 1
 478 531 497 528 512 528 c 0
 570 528 583 576 583 657 c 0
 583 677 582 698 581 722 c 0
618 0 m 1
 576 82 514 316 488 378 c 1
 468 381 471 377 456 381 c 1
 456 254 457 203 457 148 c 0
 457 111 457 73 455 10 c 1
 307 12 l 1
 307 321 305 1007 305 1007 c 1
 347 1042 401 1039 453 1043 c 0
 461 1044 469 1044 477 1044 c 0
 648 1044 712 866 718 684 c 1
 718 570 698 433 632 392 c 1
 673 298 730 112 758 92 c 1
 618 0 l 1
496 1202 m 0
 330 1202 170 905 170 512 c 0
 170 120 316 -181 496 -181 c 0
 681 -181 823 118 823 510 c 2
 823 527 l 2
 823 912 633 1202 496 1202 c 0
496 1355 m 0
 800 1355 966 962 966 506 c 0
 966 51 786 -336 496 -336 c 0
 197 -336 34 58 34 513 c 0
 34 969 208 1355 496 1355 c 0
EndSplineSet
Validated: 1
EndChar

StartChar: germandbls
Encoding: 223 223 167
Width: 1060
VWidth: 0
Flags: HW
HStem: -2 153<475.617 735.538> 669 153<293 546.391> 1176 152<288.318 547.771>
VStem: 80 153<90.4623 1117.88> 290 156<179.026 321> 601 153<877.064 1123.57> 790 154<207.136 553.369>
LayerCount: 2
Fore
SplineSet
80 1003 m 0
 80 1159 191 1328 390 1328 c 0
 593 1328 754 1233 754 1011 c 0
 754 909 726 832 670 779 c 1
 847 730 944 598 944 381 c 0
 944 171 844 -2 624 -2 c 0
 437 -2 290 94 290 297 c 0
 290 305 291 313 291 321 c 1
 446 321 l 1
 448 192 475 151 624 151 c 0
 759 151 790 261 790 395 c 0
 790 656 581 669 293 669 c 1
 293 822 l 1
 458 822 601 822 601 1005 c 0
 601 1118 527 1176 390 1176 c 1
 294 1175 233 1083 233 993 c 0
 233 837 238 637 238 450 c 0
 238 326 235 208 227 111 c 0
 220 30 169 -9 113 -37 c 1
 36 90 l 1
 56 100 73 101 76 128 c 0
 86 228 89 337 89 448 c 0
 89 635 80 829 80 1003 c 0
EndSplineSet
Validated: 1
EndChar

StartChar: ampersand
Encoding: 38 38 168
Width: 1060
VWidth: 0
Flags: HW
HStem: -22 155<297.294 574.075> 1194 153<336.737 527.919>
VStem: 47 159<228.763 529.103> 132 158<921.771 1150.11> 553 157<972.767 1168.98> 760 149<401.282 647>
LayerCount: 2
Fore
SplineSet
655 245 m 1xec
 548 387 451 521 351 648 c 1
 273 579 206 491 206 376 c 0
 206 227 309 133 424 133 c 0
 524 133 603 185 655 245 c 1xec
553 1069 m 0
 553 1157 500 1194 425 1194 c 0
 357 1194 290 1121 290 1044 c 0xdc
 290 972 338 912 383 859 c 1
 457 911 493 950 516 981 c 0
 542 1016 553 1041 553 1069 c 0
985 64 m 1
 863 -32 l 1
 848 -12 802 47 750 116 c 1
 659 18 549 -22 419 -22 c 0
 211 -22 47 129 47 367 c 0xec
 47 546 139 681 253 771 c 1
 205 829 132 921 132 1037 c 0
 132 1206 265 1347 426 1347 c 0
 571 1347 710 1257 710 1085 c 0
 710 923 591 827 474 741 c 1
 561 628 647 517 735 398 c 1
 757 468 760 539 760 648 c 1
 909 647 l 1
 909 480 888 336 837 255 c 1
 877 204 962 95 985 64 c 1
EndSplineSet
Validated: 1
EndChar

StartChar: uni00B5
Encoding: 181 181 169
Width: 1060
VWidth: 6
Flags: HW
HStem: -10 21G<877.5 920.017> -10 21G<877.5 920.017> 2 154<320.683 585.04> 1001 19G<132.481 262 739.97 898>
VStem: 109 157<-400 22 181.338 701.424> 739 158<276.783 1020>
LayerCount: 2
Fore
SplineSet
906 -10 m 1x9c
 849 31 795 72 773 158 c 1
 689 72 592 5 442 2 c 1
 433 2 l 2
 385 2 323 2 269 22 c 1
 266 -400 l 1
 109 -400 l 1
 114 214 l 1
 111 482 118 911 91 994 c 1
 251 1021 l 1
 273 929 268 616 270 250 c 1
 276 216 298 190 320 174 c 0
 334 164 385 156 426 156 c 1x3c
 493 159 534 167 585 198 c 0
 632 226 701 256 739 344 c 1
 740 1020 l 1
 898 1020 l 1
 897 239 l 1
 899 187 948 139 988 107 c 1
 906 -10 l 1x9c
EndSplineSet
Validated: 1
EndChar

StartChar: paragraph
Encoding: 182 182 170
Width: 1060
VWidth: 0
Flags: HW
HStem: -10 21G<757 909> -10 21G<757 909> 1169 159<621 755>
VStem: 36 585<679.203 1130.78> 469 155<22.0462 476.365> 755 154<-9 1169>
LayerCount: 2
Fore
SplineSet
755 1041 m 2xb4
 755 1169 l 1
 714 1170 674 1173 621 1174 c 1xb4
 622 844 621 512 624 184 c 1
 624 45 582 -30 582 -30 c 1
 428 22 l 1
 428 22 469 85 469 229 c 1xac
 467 473 l 1
 299 485 182 526 103 641 c 0
 43 730 36 831 36 924 c 0
 36 1016 55 1108 109 1174 c 0
 224 1315 395 1328 620 1328 c 0
 753 1328 791 1320 909 1320 c 1
 909 -9 l 1
 757 -10 l 1
 757 325 755 597 755 1041 c 2xb4
EndSplineSet
Validated: 1
EndChar

StartChar: dieresis
Encoding: 168 168 173
Width: 1060
VWidth: -28
Flags: HW
HStem: 1090 225<139 374 545 780>
VStem: 139 235<1090 1312> 545 235<1087 1309>
LayerCount: 2
Fore
SplineSet
139 1315 m 1
 374 1312 l 1
 374 1087 l 1
 139 1090 l 1
 139 1315 l 1
545 1312 m 1
 780 1309 l 1
 780 1084 l 1
 545 1087 l 1
 545 1312 l 1
EndSplineSet
Validated: 1
EndChar

StartChar: acute
Encoding: 180 180 174
Width: 1060
VWidth: -43
Flags: HW
HStem: 1201 416
VStem: 221 543
LayerCount: 2
Fore
SplineSet
221 1349 m 1
 364 1397 539 1509 654 1617 c 1
 764 1470 l 1
 653 1358 431 1248 288 1201 c 1
 221 1349 l 1
EndSplineSet
Validated: 1
EndChar

StartChar: degree
Encoding: 176 176 175
Width: 1060
VWidth: -26
Flags: HW
HStem: 922 125<376.828 533.277> 1188 124<373.557 534.087>
VStem: 239 129<1057.22 1177.63> 540 132<1056.77 1178.04>
LayerCount: 2
Fore
SplineSet
368 1119 m 0
 368 1084 404 1047 455 1047 c 0
 506 1047 540 1084 540 1119 c 0
 540 1154 507 1188 455 1188 c 0
 403 1188 368 1154 368 1119 c 0
239 1117 m 0
 239 1228 341 1312 456 1312 c 0
 571 1312 672 1228 672 1117 c 0
 672 1006 571 922 456 922 c 0
 341 922 239 1006 239 1117 c 0
EndSplineSet
Validated: 1
EndChar

StartChar: macron
Encoding: 175 175 176
Width: 1060
VWidth: -34
Flags: HW
HStem: 1182 154<228 682>
VStem: 228 454<1185 1335>
LayerCount: 2
Fore
SplineSet
228 1340 m 1
 264 1336 307 1335 353 1335 c 0
 399 1335 450 1336 501 1336 c 0
 561 1336 622 1336 682 1336 c 1
 682 1184 l 1
 665 1184 l 1
 607 1182 537 1182 463 1182 c 0
 436 1182 409 1182 382 1182 c 0
 329 1182 277 1182 228 1185 c 1
 228 1340 l 1
EndSplineSet
Validated: 1
EndChar

StartChar: dotlessi
Encoding: 305 305 177
Width: 1060
VWidth: 0
Flags: HW
HStem: -18 142<544.158 910.467> 857 156<124.467 378>
VStem: 378 156.163<133.613 857>
LayerCount: 2
Fore
SplineSet
417 1013 m 2
 533 1013 l 1
 533 740 534 210 534 210 c 1
 539 128 583 124 675 124 c 0
 768 124 892 145 961 197 c 1
 1029 83 l 1
 943 12 800 -18 676 -18 c 0
 591 -18 515 -4 471 20 c 0
 386 67 378 147 378 206 c 2
 378 857 l 1
 329 857 215 851 120 829 c 1
 91 971 l 1
 203 997 313 1013 417 1013 c 2
EndSplineSet
Validated: 1
EndChar

StartChar: cdotaccent
Encoding: 267 267 185
Width: 1060
VWidth: -2
Flags: HW
HStem: -7 157<359.683 740.344> 865 153<353.88 699.499> 1121 225<416 652>
VStem: 71 159<292.678 736.59> 416 236<1121 1343>
LayerCount: 2
Fore
SplineSet
405 1403 m 1xf0
 640 1403 l 1
 640 1178 l 1
 405 1178 l 1
 405 1403 l 1xf0
EndSplineSet
Refer: 2 99 N 1 0 0 1 0 0 3
Validated: 1
EndChar

StartChar: asterisk
Encoding: 42 42 191
Width: 1060
VWidth: 0
Flags: HW
VStem: 434 163<774 1199>
LayerCount: 2
Fore
SplineSet
434 774 m 1
 430 1199 l 1
 599 1200 l 1
 597 773 l 1
 923 919 l 1
 997 781 l 1
 634 628 l 1
 906 307 l 1
 780 196 l 1
 522 563 l 1
 277 197 l 1
 145 302 l 1
 401 628 l 1
 48 770 l 1
 114 914 l 1
 434 774 l 1
EndSplineSet
Validated: 1
EndChar

StartChar: ordfeminine
Encoding: 170 170 193
Width: 1060
VWidth: 6
Flags: HW
HStem: 467 116<215 668> 668 96<288.323 479.323> 931 95<307.318 528.633> 1022 21G<233.5 286.5> 1125 95<305.799 511.895>
VStem: 192 90<771.273 902.562> 532 91<814.732 921.265 1010 1106.91>
LayerCount: 2
Fore
SplineSet
364 764 m 0xee
 435 764 513 830 532 853 c 1
 532 905 l 1
 505 920 466 928 420 931 c 0
 418 931 416 931 414 931 c 0
 352 931 282 887 282 837 c 0
 282 796 311 764 364 764 c 0xee
621 658 m 1
 594 680 560 698 544 739 c 1
 503 703 444 668 368 668 c 0
 274 668 192 744 192 839 c 0
 192 882 208 925 243 959 c 0
 299 1012 358 1026 421 1026 c 0xee
 461 1026 501 1019 530 1010 c 1
 521 1099 490 1125 414 1125 c 0
 343 1125 307 1098 266 1022 c 1xde
 188 1070 l 1
 198 1088 l 1
 252 1179 323 1218 412 1220 c 1
 532 1220 612 1143 620 1018 c 0
 623 986 624 938 624 918 c 0
 624 877 623 863 623 841 c 0
 623 821 625 780 631 770 c 0
 633 768 667 743 680 735 c 1
 621 658 l 1
668 583 m 1
 669 469 l 1
 652 469 l 1
 594 467 524 467 450 467 c 0
 423 467 396 467 369 467 c 0
 316 467 264 467 215 470 c 1
 214 585 l 1
 233 585 l 1
 298 583 395 583 487 583 c 0
 547 583 608 583 668 583 c 1
EndSplineSet
Validated: 1
EndChar

StartChar: logicalnot
Encoding: 172 172 194
Width: 1060
VWidth: 6
Flags: HW
HStem: 448 152<153 754>
VStem: 754 154<174 444>
LayerCount: 2
Fore
SplineSet
147 592 m 1
 283 599 394 600 496 600 c 0
 537 600 576 600 615 600 c 0
 697 600 782 599 889 598 c 1
 908 598 l 1
 908 457 908 315 908 174 c 1
 754 174 l 1
 754 444 l 1
 619 447 619 448 494 448 c 0
 427 448 305 447 153 439 c 1
 153 523 l 1
 147 592 l 1
EndSplineSet
Validated: 1
EndChar

StartChar: uni00AD
Encoding: 173 173 195
Width: 1060
VWidth: 6
Flags: HW
HStem: 448 152<153 907>
LayerCount: 2
Fore
SplineSet
147 592 m 1
 283 599 394 600 496 600 c 0
 537 600 576 600 615 600 c 0
 697 600 782 599 889 598 c 1
 907 598 l 1
 907 445 l 1
 889 445 l 1
 754 448 619 448 494 448 c 0
 427 448 305 447 153 439 c 1
 153 523 l 1
 147 592 l 1
EndSplineSet
Validated: 1
EndChar

StartChar: cedilla
Encoding: 184 184 198
Width: 1060
VWidth: 12
Flags: HW
HStem: -358 125<435.445 640.66> -136 188<480 555.783> -119 175<481.294 624.524>
VStem: 480 145<-25.4613 52> 644 136<-226.217 -127.936>
LayerCount: 2
Fore
SplineSet
626 56 m 1xb8
 625 48 625 -16 625 -19 c 1
 722 -24 780 -86 780 -190 c 0
 780 -291 680 -358 596 -358 c 0
 530 -358 458 -333 402 -297 c 1
 440 -191 l 1
 473 -209 513 -233 564 -233 c 0
 600 -233 641 -213 644 -175 c 1
 644 -173 l 2
 644 -144 606 -119 558 -119 c 0xb8
 510 -119 508 -126 480 -136 c 1
 480 52 l 1xd8
 626 56 l 1xb8
EndSplineSet
Validated: 1
EndChar

StartChar: ordmasculine
Encoding: 186 186 200
Width: 1060
VWidth: 6
Flags: HW
HStem: 467 116<215 668> 671 117<323.203 551.109> 1101 117<335.708 556.964>
VStem: 165 126<815.284 1055.19> 595 125<831.251 1063.17>
LayerCount: 2
Fore
SplineSet
442 788 m 0
 538 788 595 857 595 954 c 0
 595 1028 548 1101 450 1101 c 2
 448 1101 l 2
 342 1101 291 1027 291 921 c 0
 291 838 336 788 439 788 c 0
 440 788 441 788 442 788 c 0
165 918 m 0
 165 1082 265 1218 439 1218 c 0
 562 1218 625 1173 674 1103 c 0
 703 1061 720 1011 720 958 c 0
 720 937 716 909 711 889 c 0
 684 772 611 672 441 671 c 1
 438 671 l 2
 267 671 165 766 165 918 c 0
668 583 m 1
 669 469 l 1
 652 469 l 1
 594 467 524 467 450 467 c 0
 423 467 396 467 369 467 c 0
 316 467 264 467 215 470 c 1
 214 585 l 1
 233 585 l 1
 298 583 395 583 487 583 c 0
 547 583 608 583 668 583 c 1
EndSplineSet
Validated: 1
EndChar

StartChar: onequarter
Encoding: 188 188 201
Width: 1060
VWidth: 0
Flags: HW
HStem: -3 21G<226.851 326 763 847> 221 85<591 763 847 916>
VStem: 310 86<672 1234> 763 84<-3 221 306 533 620.037 703>
LayerCount: 2
Fore
SplineSet
307 1374 m 1
 396 1351 l 1
 396 672 l 1
 310 672 l 1
 309 1234 l 1
 273 1189 200 1135 131 1096 c 1
 87 1169 l 1
 249 1250 303 1366 307 1374 c 1
763 306 m 1
 763 533 l 1
 724 463 641 358 591 306 c 1
 763 306 l 1
478 291 m 1
 496 316 747 615 759 703 c 1
 847 703 l 1
 847 306 l 1
 916 306 l 1
 916 223 l 1
 847 223 l 1
 847 -3 l 1
 763 -3 l 1
 763 221 l 1
 511 221 l 1
 478 291 l 1
174 41 m 1
 180 54 207 111 224 153 c 1
 321 378 648 1106 756 1392 c 1
 848 1348 l 1
 710 996 386 276 266 -6 c 1
 174 41 l 1
EndSplineSet
Validated: 1
EndChar

StartChar: onehalf
Encoding: 189 189 202
Width: 1060
VWidth: 0
Flags: HW
HStem: -2 21G<191.851 291> 5 84<618 938> 633 85<636.72 818.149>
VStem: 271 86<681 1243> 522 96<89 173.018> 528 86<470.373 608.734> 841 87<413.131 612.603>
LayerCount: 2
Fore
SplineSet
268 1383 m 1x32
 357 1360 l 1
 357 681 l 1
 271 681 l 1
 270 1243 l 1
 234 1198 161 1144 92 1105 c 1
 48 1178 l 1
 210 1259 264 1375 268 1383 c 1x32
622 472 m 1
 540 453 l 1
 535 469 530 494 529 514 c 0
 529 519 528 524 528 528 c 0x76
 528 649 618 718 726 718 c 0
 857 718 928 653 928 511 c 0
 928 442 885 380 841 334 c 1
 795 288 729 240 673 185 c 0
 634 147 619 109 618 89 c 1
 938 90 l 1
 938 5 l 1
 523 5 l 1
 523 21 522 39 522 57 c 0x7a
 522 71 522 86 525 101 c 0
 535 154 560 201 619 256 c 0
 677 310 732 345 775 387 c 0
 817 427 841 477 841 510 c 0
 841 573 810 633 731 633 c 0
 660 633 614 594 614 507 c 0x76
 614 496 620 478 622 472 c 1
139 45 m 1
 145 58 173 115 190 157 c 1
 287 382 613 1110 721 1396 c 1
 813 1352 l 1
 675 1000 351 280 231 -2 c 1xb2
 139 45 l 1
EndSplineSet
Validated: 1
EndChar

StartChar: threequarters
Encoding: 190 190 203
Width: 1060
VWidth: 0
Flags: HW
HStem: 227 85<603 775 859 928> 655 84<158.08 363.455> 1028 86<189 330.753> 1298 85<168.607 342.786>
VStem: 47 86<763.212 849> 353 85<1141.44 1283.78> 395 86<770.732 979.301> 775 84<3 227 312 539 626.037 709>
LayerCount: 2
Fore
SplineSet
47 849 m 1xfb
 133 849 l 1
 134 786 177 739 257 739 c 0
 343 739 395 790 395 870 c 0xfb
 395 930 376 971 324 1000 c 0
 275 1028 232 1028 189 1028 c 1
 189 1114 l 1
 192 1114 195 1114 198 1114 c 0
 219 1114 245 1115 284 1128 c 0
 329 1144 353 1169 353 1224 c 0
 353 1266 307 1298 252 1298 c 0
 183 1298 152 1235 142 1215 c 1
 66 1257 l 1
 69 1265 116 1383 247 1383 c 0
 249 1383 251 1383 253 1383 c 0
 350 1383 438 1331 438 1227 c 0xfd
 438 1158 411 1099 362 1077 c 1
 449 1035 481 963 481 871 c 0
 481 825 465 765 429 722 c 0
 393 680 343 655 257 655 c 0
 127 655 47 738 47 849 c 1xfb
775 312 m 1
 775 539 l 1
 736 469 653 364 603 312 c 1
 775 312 l 1
490 297 m 1
 508 322 759 621 771 709 c 1
 859 709 l 1
 859 312 l 1
 928 312 l 1
 928 229 l 1
 859 229 l 1
 859 3 l 1
 775 3 l 1
 775 227 l 1
 523 227 l 1
 490 297 l 1
218 53 m 1
 224 66 252 123 269 165 c 1
 366 390 692 1118 800 1404 c 1
 892 1360 l 1
 754 1008 430 288 310 6 c 1
 218 53 l 1
EndSplineSet
Validated: 1
EndChar

StartChar: Thorn
Encoding: 222 222 204
Width: 1060
VWidth: 0
Flags: HW
HStem: -10 21G<104 262> -10 21G<104 262> 460 152<263 704.015> 1008 152<264 680.952>
VStem: 104 160<-9 463 613 1004 1157 1294> 784 162<679.458 925.771>
LayerCount: 2
Fore
SplineSet
784 800 m 0x3c
 784 936 689 1008 415 1008 c 1
 354 1008 309 1005 264 1004 c 1
 264 878 l 2
 264 695 263 613 263 613 c 1
 299 612 333 612 366 612 c 0
 652 612 784 632 784 800 c 0x3c
262 -10 m 1xbc
 104 -9 l 1
 104 1294 l 1
 172 1294 215 1295 264 1297 c 1
 264 1157 l 1
 299 1159 339 1160 393 1160 c 0
 618 1160 757 1146 872 1008 c 0
 926 943 946 854 946 764 c 0
 946 484 641 460 416 460 c 0
 368 460 317 461 263 463 c 1
 263 200 262 146 262 -10 c 1xbc
EndSplineSet
Validated: 1
EndChar

StartChar: eth
Encoding: 240 240 205
Width: 1060
VWidth: 6
Flags: HW
HStem: 1 155<353.646 630.662> 1408 20G<396.908 448>
VStem: 72 158<293.329 718.907> 745 157<284.704 721.007>
LayerCount: 2
Fore
SplineSet
601 864 m 1
 288 864 230 699 230 504 c 0
 230 309 317 156 484 156 c 1
 560 157 604 173 654 215 c 1
 723 279 745 400 745 541 c 0
 745 666 690 769 601 864 c 1
603 1167 m 1
 780 913 902 772 902 539 c 0
 902 279 806 1 484 1 c 2
 482 1 l 1
 210 2 72 219 72 499 c 0
 72 690 129 994 497 1018 c 1
 487 1033 457 1075 422 1124 c 1
 217 1076 l 1
 185 1212 l 1
 337 1248 l 1
 306 1294 281 1330 276 1341 c 1
 433 1428 l 1
 463 1379 491 1334 519 1291 c 1
 737 1344 l 1
 769 1208 l 1
 603 1167 l 1
EndSplineSet
Validated: 1
EndChar

StartChar: thorn
Encoding: 254 254 206
Width: 1060
VWidth: -2
Flags: HW
HStem: -7 155<351.305 631.934> 858 155<368.237 667.54> 1296 20G<100 264.5>
VStem: 119 156<-393.801 56 220.225 763.281 922 1293.97> 755 157<291.52 763.3>
LayerCount: 2
Fore
SplineSet
755 527 m 0
 755 731 701 858 531 858 c 0
 394 858 346 812 275 698 c 1
 275 262 l 1
 327 211 384 148 475 148 c 0
 638 148 755 244 755 527 c 0
119 739 m 2
 119 747 119 1109 119 1117 c 0
 119 1187 111 1253 100 1296 c 1
 264 1316 l 1
 265 1308 275 1259 275 1225 c 0
 275 922 l 1
 338 978 418 1013 530 1013 c 0
 805 1013 912 814 912 546 c 0
 912 210 784 -7 461 -7 c 0
 361 -7 323 25 275 56 c 1
 275 -151 l 2
 275 -245 284 -329 291 -397 c 1
 132 -406 l 1
 123 -333 118 -237 118 -146 c 2
 119 739 l 2
EndSplineSet
Validated: 1
EndChar

StartChar: Aogonek
Encoding: 260 260 209
Width: 1060
VWidth: 32
Flags: HW
HStem: -466 144<692.778 912.609> 332 160<340.81 718> 1281 20G<427.695 611.696>
VStem: 42 162<0 176.844> 524 155<-304.191 -175.728>
LayerCount: 2
Fore
SplineSet
434 1301 m 1
 605 1301 l 1
 983 172 l 1
 994 135 1012 54 1014 0 c 1
 909 -85 679 -155 679 -238 c 0
 679 -294 736 -322 800 -322 c 0
 858 -322 899 -288 929 -266 c 1
 1007 -373 l 1
 963 -421 875 -466 796 -466 c 0
 608 -466 524 -373 524 -238 c 0
 524 -60 792 -19 846 40 c 1
 842 69 835 105 830 122 c 2
 760 332 l 1
 619 329 398 327 287 300 c 1
 228 121 l 2
 218 92 204 28 204 0 c 1
 42 0 l 1
 43 28 61 116 74 159 c 2
 434 1301 l 1
718 495 m 1
 524 1082 l 1
 338 475 l 1
 398 488 454 488 537 492 c 1
 718 495 l 1
EndSplineSet
Validated: 1
EndChar

StartChar: aogonek
Encoding: 261 261 210
Width: 1060
VWidth: 6
Flags: HW
HStem: -444 145<588.602 825.542> -6 152<275.367 541.736> 504 144<324.611 659.141> 877 151<316.149 619.625>
VStem: 78 156<186.95 423.616> 421 155<-282.478 -146.433> 696 157<285.81 463.324 597 791.012>
LayerCount: 2
Fore
SplineSet
948 81 m 1
 720 -115 576 -128 576 -216 c 0
 576 -272 632 -299 696 -299 c 0
 754 -299 795 -266 825 -244 c 1
 903 -351 l 1
 859 -399 771 -444 692 -444 c 0
 504 -444 421 -351 421 -216 c 0
 421 -70 608 -19 764 86 c 1
 751 106 738 124 732 156 c 1
 654 81 565 -6 383 -6 c 0
 212 -6 78 135 78 301 c 0
 78 377 108 466 167 527 c 0
 262 624 363 648 481 648 c 0
 566 648 641 630 695 597 c 1
 695 792 628 877 476 877 c 0
 338 877 283 828 203 685 c 1
 73 767 l 1
 169 949 296 1025 474 1028 c 1
 699 1028 849 878 849 657 c 1
 853 318 l 2
 853 283 855 192 866 173 c 4
 878 153 919 104 948 81 c 1
234 311 m 0
 234 206 290 146 383 146 c 0
 563 146 670 304 696 345 c 1
 696 440 l 1
 639 475 559 504 489 504 c 0
 353 504 234 429 234 311 c 0
EndSplineSet
Validated: 1
EndChar

StartChar: dcaron
Encoding: 271 271 211
Width: 1060
VWidth: 32
Flags: HW
HStem: -7 154<266.707 553.576> 858 155<300.455 569.285>
VStem: 33 151<241.806 723.517> 643 150<241.719 788.21 949 1399.8> 808 152<1021.79 1143.75>
LayerCount: 2
Fore
SplineSet
184 478 m 0
 184 274 235 147 398 147 c 0
 529 147 575 193 643 307 c 1
 643 744 l 1
 593 795 538 858 450 858 c 0
 294 858 184 761 184 478 c 0
793 267 m 1
 793 241 l 2
 793 158 801 72 810 7 c 1
 653 -12 l 1
 649 20 644 42 643 84 c 1
 583 28 505 -7 398 -7 c 0
 134 -7 33 191 33 459 c 0
 33 795 155 1013 464 1013 c 0
 560 1013 596 980 642 949 c 1
 642 1156 l 2
 642 1250 634 1335 628 1403 c 1
 781 1411 l 1
 789 1338 794 1243 794 1152 c 2
 793 267 l 1
1070 1363 m 1
 1032 1251 1006 1142 960 991 c 1
 808 1025 l 1
 826 1167 854 1308 876 1411 c 1
 1070 1363 l 1
EndSplineSet
Validated: 1
EndChar

StartChar: Dcroat
Encoding: 272 272 212
Width: 1060
VWidth: 0
Flags: HW
HStem: -10 154<230 657.626> 773 148<4 76 234 600> 1176 155<234 539.421>
VStem: 76 158<147 773 921 1173.17> 810 159<312.146 850.696>
LayerCount: 2
Fore
SplineSet
76 921 m 1
 76 977 l 2
 76 1106 72 1229 63 1317 c 1
 144 1325 189 1331 288 1331 c 0
 559 1331 715 1249 838 1066 c 1
 922 939 969 761 969 580 c 0
 969 511 961 442 948 376 c 0
 900 135 739 14 559 -3 c 0
 504 -8 453 -10 398 -10 c 0
 314 -10 181 -3 67 -3 c 1
 67 31 67 30 70 128 c 1
 70 176 75 483 76 773 c 1
 4 773 l 1
 4 921 l 1
 76 921 l 1
309 1176 m 2
 279 1176 l 2
 263 1176 251 1176 234 1173 c 1
 235 1147 235 1117 235 1086 c 0
 235 1034 234 978 234 921 c 1
 356 921 478 921 600 921 c 1
 601 773 l 1
 234 773 l 1
 233 501 231 233 230 147 c 1
 318 144 363 144 423 144 c 0
 592 144 718 170 783 353 c 0
 799 399 810 489 810 544 c 0
 810 706 774 876 709 973 c 0
 620 1104 530 1176 309 1176 c 2
EndSplineSet
Validated: 1
EndChar

StartChar: dcroat
Encoding: 273 273 213
Width: 1060
VWidth: -2
Flags: HW
HStem: -7 154<327.869 627.56> 858 155<363.119 643.98> 1118 152<400 716 878 970>
VStem: 84 156<249.683 713.724> 721 156<241.719 785.775 949 1118 1270 1401.17>
LayerCount: 2
Fore
SplineSet
877 267 m 1
 877 241 l 2
 877 158 885 72 895 7 c 1
 732 -12 l 1
 727 20 722 42 721 84 c 1
 658 28 577 -7 465 -7 c 0
 190 -7 84 191 84 459 c 0
 84 795 211 1013 534 1013 c 0
 634 1013 672 980 720 949 c 1
 720 1118 l 1
 400 1118 l 1
 400 1270 l 1
 716 1270 l 1
 713 1319 709 1364 705 1403 c 1
 864 1411 l 1
 869 1369 873 1321 875 1270 c 1
 970 1270 l 1
 970 1118 l 1
 878 1118 l 1
 877 267 l 1
240 478 m 0
 240 274 295 147 465 147 c 0
 602 147 650 193 721 307 c 1
 721 744 l 1
 669 795 611 858 520 858 c 0
 357 858 240 761 240 478 c 0
EndSplineSet
Validated: 1
EndChar

StartChar: edotaccent
Encoding: 279 279 217
Width: 1060
VWidth: 32
Flags: HW
HStem: -10 153<346.975 678.993> 427 153<236 721.719> 869 152<361.998 651.11> 1094 225<391 627>
VStem: 78 158<258.732 427 580 738.031> 391 236<1094 1316> 764 159<606.562 749.303>
LayerCount: 2
Fore
SplineSet
392 1403 m 1xf0
 626 1403 l 1
 626 1178 l 1
 392 1178 l 1
 392 1403 l 1xf0
EndSplineSet
Refer: 4 101 N 1 0 0 1 0 0 3
Validated: 1
EndChar

StartChar: Eogonek
Encoding: 280 280 218
Width: 1060
VWidth: 32
Flags: HW
HStem: -457 145<637.602 874.542> -3 150<257 621> 27 148<837.372 903.262> 666 150<260 698> 1144 153<260 889>
VStem: 102 158<147 666 816 1144> 470 155<-295.478 -146.226>
LayerCount: 2
Fore
SplineSet
102 1293 m 1xde
 158 1297 228 1297 306 1297 c 0
 337 1297 370 1297 404 1297 c 2
 514 1297 l 2
 663 1297 799 1294 873 1294 c 2
 889 1294 l 1
 889 1144 l 1
 260 1144 l 1
 260 816 l 1
 698 816 l 1
 698 666 l 1
 260 666 l 1
 260 636 l 2
 260 433 257 224 257 147 c 1xde
 782 149 l 2
 838 149 899 175 899 175 c 1
 943 27 l 1xbe
 794 -17 625 -155 625 -229 c 0
 625 -285 681 -312 745 -312 c 0
 803 -312 844 -279 874 -257 c 1
 952 -364 l 1
 908 -412 820 -457 741 -457 c 0
 553 -457 470 -364 470 -229 c 0
 470 -141 536 -67 621 -3 c 1
 102 -3 l 1
 102 1293 l 1xde
EndSplineSet
Validated: 1
EndChar

StartChar: eogonek
Encoding: 281 281 219
Width: 1060
VWidth: 32
Flags: HW
HStem: -444 145<536.602 773.542> -10 153<346.975 535.035> 427 153<236 721.719> 869 152<361.998 651.11>
VStem: 78 158<258.732 427 580 738.031> 369 155<-282.478 -147.973> 764 159<606.562 749.303>
LayerCount: 2
Back
SplineSet
234 311 m 4
 234 206 290 146 383 146 c 4
 563 146 670 304 696 345 c 5
 696 440 l 5
 639 475 559 504 489 504 c 4
 353 504 234 429 234 311 c 4
760.513 79.4528 m 5
 747.805 99.1817 737.755 123.706 732 156 c 5
 654 81 565 -6 383 -6 c 4
 212 -6 78 135 78 301 c 4
 78 377 108 466 167 527 c 4
 262 624 363 648 481 648 c 4
 566 648 641 630 695 597 c 5
 695 792 628 877 476 877 c 4
 338 877 283 828 203 685 c 5
 73 767 l 5
 169 949 296 1025 474 1028 c 5
 699 1028 849 878 849 657 c 5
 853 318 l 6
 853 283 853 190 866 173 c 4
 879 155 916 132 945 109 c 5
 945 109 880 42.002 828 0 c 4
 723.34 -84.5332 574 -142.338 574 -216.338 c 4
 574 -272.338 630 -299.838 694 -299.838 c 4
 752 -299.838 793.5 -266.838 823.5 -244.838 c 5
 901.5 -351.338 l 5
 857.5 -399.337 769 -444.338 690 -444.338 c 4
 502 -444.338 419 -351.338 419 -216.338 c 4
 419 -36.3379 711.875 18.875 760.513 79.4528 c 5
EndSplineSet
Fore
SplineSet
236 580 m 1
 365 581 622 595 764 611 c 1
 758 767 646 869 510 869 c 0
 340 869 237 734 236 580 c 1
509 1021 m 0
 886 1021 923 641 923 503 c 0
 923 483 923 468 922 460 c 1
 642 441 414 429 236 427 c 1
 236 274 319 143 505 143 c 0
 662 143 750 230 785 286 c 1
 906 183 l 1
 903 178 896 168 884 153 c 0
 714 -76 524 -140 524 -216 c 0
 524 -272 580 -299 644 -299 c 0
 702 -299 743 -266 773 -244 c 1
 851 -351 l 1
 807 -399 719 -444 640 -444 c 0
 452 -444 369 -351 369 -216 c 0
 369 -116 438 -87 537 -9 c 1
 525 -10 513 -10 501 -10 c 0
 215 -10 78 203 78 516 c 0
 78 802 226 1021 509 1021 c 0
EndSplineSet
Validated: 1
EndChar

StartChar: gdotaccent
Encoding: 289 289 227
Width: 1060
VWidth: 32
Flags: W
HStem: -322 147<258.507 735.873> 69 153<265.055 788.211> 373 148<319.625 658.956> 873 152<334.355 670.778 854.713 964> 1178 225<379 614>
VStem: 80 157<-147.812 42.3412 234.782 406.406> 95 158<584.412 797.287> 379 235<1178 1403> 725 156<578.5 820.239> 811 157<-112.101 42.8716>
LayerCount: 2
Fore
SplineSet
379 1403 m 1xf9
 614 1403 l 1
 614 1178 l 1
 379 1178 l 1
 379 1403 l 1xf9
EndSplineSet
Refer: 6 103 N 1 0 0 1 0 0 3
Validated: 1
EndChar

StartChar: Hbar
Encoding: 294 294 232
Width: 1060
VWidth: 0
Flags: HW
HStem: 625 152<224.549 754> 995 150<0 60 220 753 912 997> 1271 20G<753 912>
VStem: 60 159<0 604.438 749 995 1145 1294> 754 158<0 625 777 995 1145 1291>
LayerCount: 2
Fore
SplineSet
60 1145 m 1
 60 1294 l 1
 220 1296 l 1
 220 1145 l 1
 753 1145 l 1
 753 1191 753 1237 753 1291 c 1
 912 1291 l 1
 912 1145 l 1
 997 1145 l 1
 997 995 l 1
 912 995 l 1
 912 0 l 1
 754 0 l 1
 754 625 l 1
 711 625 668 625 625 625 c 0
 479 625 337 622 219 597 c 1
 219 254 221 181 221 0 c 1
 60 0 l 1
 60 995 l 1
 0 995 l 1
 0 1145 l 1
 60 1145 l 1
754 995 m 1
 219 995 l 1
 219 749 l 1
 311 770 406 777 526 777 c 2
 754 777 l 1
 754 868 754 937 754 995 c 1
EndSplineSet
Validated: 1
EndChar

StartChar: hbar
Encoding: 295 295 233
Width: 1060
VWidth: -2
Flags: HW
HStem: -17 21G<832 887.043> 867 153<339.254 659.809> 1116 150<0 90 249 615>
VStem: 90 158<8 787.141 940 1116 1266 1401> 718 157<130.048 806.625>
LayerCount: 2
Fore
SplineSet
718 576 m 2
 718 803 682 867 481 867 c 0
 380 867 279 793 248 731 c 1
 248 198 l 2
 248 119 243 46 238 0 c 1
 80 8 l 1
 88 80 91 127 91 204 c 0
 91 503 90 868 90 1116 c 1
 0 1116 l 1
 0 1266 l 1
 90 1266 l 1
 90 1401 l 1
 248 1402 l 1
 248 1266 l 1
 615 1266 l 1
 615 1116 l 1
 249 1116 l 1
 249 1057 249 999 249 940 c 1
 314 981 386 1020 488 1020 c 0
 609 1020 719 1011 798 915 c 1
 870 830 875 752 875 642 c 2
 875 576 l 2
 875 412 874 335 874 223 c 0
 874 168 900 139 960 100 c 1
 872 -17 l 1
 792 28 718 81 718 208 c 2
 718 576 l 2
EndSplineSet
Validated: 1
EndChar

StartChar: Iogonek
Encoding: 302 302 240
Width: 1060
VWidth: 32
Flags: HW
HStem: -472 145<541.602 778.542> 4 147<134 422 582 634> 1144 154<138 422 582 853>
VStem: 374 155<-310.478 -173.177> 422 160<152 1151>
LayerCount: 2
Fore
SplineSet
132 1298 m 1xe8
 288 1302 389 1302 485 1302 c 0
 590 1302 690 1301 853 1299 c 1
 853 1147 l 1
 730 1147 678 1152 582 1152 c 1
 582 152 l 1xe8
 628 152 654 153 705 153 c 0
 750 153 797 152 849 149 c 1
 849 -1 l 1
 669 -114 529 -170 529 -244 c 0
 529 -300 585 -327 649 -327 c 0
 707 -327 748 -294 778 -272 c 1
 856 -379 l 1
 812 -427 724 -472 645 -472 c 0
 457 -472 374 -379 374 -244 c 0xf0
 374 -101 541 -43 634 5 c 1
 589 5 541 4 484 4 c 0
 410 4 289 -3 134 -3 c 1
 134 146 l 1
 219 150 290 151 347 151 c 2
 422 151 l 1
 422 1151 l 1
 356 1150 244 1150 138 1144 c 1
 132 1298 l 1xe8
EndSplineSet
Validated: 1
EndChar

StartChar: iogonek
Encoding: 303 303 241
Width: 1060
VWidth: 32
Flags: HW
HStem: -469 145<675.602 912.542> -18 142<548.384 692.78> 857 156<124.467 378> 1178 225<314 549>
VStem: 314 235<1178 1400> 378 160<133.613 857> 508 155<-307.478 -151.164>
LayerCount: 2
Fore
SplineSet
314 1403 m 1xf8
 549 1400 l 1
 549 1175 l 1
 314 1178 l 1
 314 1403 l 1xf8
417 1013 m 2
 537 1013 l 1
 537 740 538 210 538 210 c 1xf4
 543 128 583 124 675 124 c 0
 768 124 892 145 961 197 c 1
 1029 83 l 1
 794 -123 663 -125 663 -241 c 0
 663 -297 719 -324 783 -324 c 0
 841 -324 882 -291 912 -269 c 1
 990 -376 l 1
 946 -424 858 -469 779 -469 c 0
 591 -469 508 -376 508 -241 c 0xf2
 508 -137 586 -87 693 -18 c 1
 687 -18 682 -18 676 -18 c 0
 591 -18 515 -4 471 20 c 0
 386 67 378 147 378 206 c 2
 378 857 l 1xf4
 329 857 215 851 120 829 c 1
 91 971 l 1
 203 997 313 1013 417 1013 c 2
EndSplineSet
Validated: 1
EndChar

StartChar: IJ
Encoding: 306 306 243
Width: 1060
VWidth: 0
Flags: HW
HStem: 0 152<51 122 282 362 610.092 753.165> 1152 150<52 122 282 381 514 760.876 922 1008>
VStem: 51 311<1 150> 122 160<152 1152> 408 160<185.072 425> 787 157<184.25 1136.64>
LayerCount: 2
Fore
SplineSet
381 1151 m 1xdc
 343 1152 317 1152 282 1152 c 1
 282 152 l 1xdc
 362 150 l 1
 362 0 l 1
 332 1 295 1 257 1 c 0
 182 1 100 0 51 0 c 1
 51 146 l 1xec
 73 150 90 152 105 152 c 2
 122 152 l 1
 122 1152 l 1
 56 1151 79 1150 52 1144 c 1
 50 1298 l 1
 90 1302 90 1302 186 1302 c 0
 232 1302 273 1302 316 1302 c 0
 338 1302 360 1302 383 1302 c 1
 381 1151 l 1xdc
514 1296 m 1
 563 1296 605 1295 644 1295 c 0
 760 1295 846 1297 1010 1297 c 1
 1008 1144 l 1
 960 1144 972 1145 922 1145 c 1
 938 967 944 765 944 642 c 0
 944 288 930 -8 664 -8 c 0
 471 -8 410 210 408 426 c 1
 568 425 l 1
 574 275 605 142 662 142 c 0
 776 142 787 262 787 482 c 0
 787 536 786 594 786 659 c 0
 786 754 770 1007 758 1144 c 1
 636 1144 628 1144 512 1146 c 1
 514 1296 l 1
EndSplineSet
Validated: 1
EndChar

StartChar: ij
Encoding: 307 307 244
Width: 1060
VWidth: 0
Flags: HW
HStem: -387 156<396.212 775.621> -6 137<417.96 618.891> 843 142<75.706 247.458 552.676 805.888> 864 156<81.0366 248 558.191 810> 1179 225<184 419 744 978>
VStem: 184 235<1185 1407> 248 160<139.683 864> 744 234<1179 1401> 811 156<-196.669 864>
LayerCount: 2
Fore
SplineSet
811 -114 m 1xd880
 810 864 l 1
 804 864 800 864 794 864 c 0
 696 864 644 856 554 835 c 1
 526 977 l 1
 638 1003 746 1019 850 1019 c 2
 967 1019 l 1
 967 -118 l 0
 967 -263 906 -387 668 -387 c 3
 545 -387 423 -380 209 -269 c 1
 267 -120 l 1
 420 -225 584 -231 647 -231 c 0
 653 -231 659 -231 664 -231 c 3
 776 -231 809 -149 811 -114 c 1xd880
287 1020 m 2
 407 1020 l 1
 407 747 408 217 408 217 c 1
 408 153 447 131 498 131 c 0
 549 131 586 153 610 192 c 1
 693 90 l 1
 646 19 549 -6 481 -6 c 0
 304 -6 248 97 248 213 c 2
 248 864 l 1
 236 864 l 0xda
 194 864 164 863 77 843 c 1
 48 985 l 1xea
 160 1011 183 1020 287 1020 c 2
744 1404 m 1xc9
 978 1401 l 1
 978 1176 l 1
 744 1179 l 1
 744 1404 l 1xc9
184 1410 m 1xcc
 419 1407 l 1
 419 1182 l 1
 184 1185 l 1
 184 1410 l 1xcc
EndSplineSet
Validated: 1
EndChar

StartChar: Lcaron
Encoding: 317 317 254
Width: 1060
VWidth: 32
Flags: HW
HStem: -3 154<302 941.956>
VStem: 141 161<151 1298> 633 152<899.793 1021.75>
LayerCount: 2
Fore
SplineSet
894 1241 m 5
 856 1129 830 1020 785 869 c 5
 633 903 l 5
 651 1045 679 1186 700 1289 c 5
 894 1241 l 5
EndSplineSet
Refer: 35 76 N 1 0 0 1 0 0 2
Validated: 1
EndChar

StartChar: lcaron
Encoding: 318 318 255
Width: 1060
VWidth: 32
Flags: HW
HStem: -16 142<528.434 891.467> 1020 21G<792.588 904.5> 1274 154<94.8673 356>
VStem: 359 160<135.613 1273> 730 152<1050.79 1172.75>
LayerCount: 2
Fore
SplineSet
992 1392 m 1
 954 1280 927 1171 882 1020 c 1
 730 1054 l 1
 748 1196 777 1337 798 1440 c 1
 992 1392 l 1
EndSplineSet
Refer: 12 108 N 1 0 0 1 0 0 2
Validated: 1
EndChar

StartChar: Lslash
Encoding: 321 321 258
Width: 1060
VWidth: 0
Flags: HW
HStem: -3 154<428 941.956>
VStem: 267 161<151 678 890 1298>
LayerCount: 2
Fore
SplineSet
267 678 m 1
 120 622 l 1
 70 752 l 1
 267 828 l 1
 267 1298 l 1
 428 1298 l 1
 428 890 l 1
 681 988 l 1
 731 857 l 1
 428 740 l 1
 428 151 l 1
 823 151 l 1
 882 154 900 158 944 173 c 1
 985 27 l 1
 938 11 900 -3 825 -3 c 2
 267 -3 l 1
 267 678 l 1
EndSplineSet
Validated: 1
EndChar

StartChar: lslash
Encoding: 322 322 259
Width: 1060
VWidth: -2
Flags: HW
HStem: -16 142<528.434 891.467> 1273 155<103.466 356>
VStem: 357 160<135.613 783 994 1273>
LayerCount: 2
Fore
SplineSet
396 1428 m 2
 516 1428 l 1
 516 1337 517 1173 517 994 c 1
 772 1092 l 1
 822 961 l 1
 517 844 l 1
 518 526 519 212 519 212 c 1
 524 130 564 126 656 126 c 0
 749 126 873 147 942 199 c 1
 1010 85 l 1
 924 14 781 -16 657 -16 c 0
 572 -16 496 -2 452 22 c 0
 367 69 359 149 359 208 c 2
 357 783 l 1
 211 726 l 1
 161 857 l 1
 357 932 l 1
 356 1273 l 1
 307 1273 194 1266 99 1244 c 1
 71 1387 l 1
 183 1413 292 1428 396 1428 c 2
EndSplineSet
Validated: 1
EndChar

StartChar: Eng
Encoding: 330 330 266
Width: 1060
VWidth: 0
Flags: HW
HStem: -359 155<392 629.742> -3 21G<75 234> 1143 153<384.338 661.464> 1296 20G<136.614 200.5>
VStem: 75 159<-3 989.408> 756 156<-96.085 1036.11>
LayerCount: 2
Fore
SplineSet
540 1296 m 0xec
 830 1296 908 1101 908 860 c 0
 908 629 912 400 912 165 c 2
 912 131 l 2
 912 -125 862 -359 426 -359 c 2
 392 -359 l 1
 392 -204 l 1
 738 -198 756 -58 756 106 c 2
 756 852 l 2
 756 1036 661 1143 542 1143 c 0xec
 348 1143 270 984 234 916 c 1
 234 -3 l 1
 75 -3 l 1
 75 1059 l 2
 75 1174 36 1259 36 1259 c 1
 191 1316 l 1xdc
 210 1277 225 1245 232 1168 c 1
 292 1270 404 1296 540 1296 c 0xec
EndSplineSet
Validated: 1
EndChar

StartChar: eng
Encoding: 331 331 267
Width: 1060
VWidth: 6
Flags: HW
HStem: -368 156<432 616.766> 872 150<409.07 670.196>
VStem: 113 158<0 778.144> 697 159<-124.65 841.083>
LayerCount: 2
Fore
SplineSet
271 927 m 1
 397 993 457 1022 567 1022 c 0
 688 1022 856 945 856 796 c 2
 856 211 l 2
 856 -88 854 -368 436 -368 c 2
 432 -368 l 1
 429 -212 l 2
 430 -212 431 -212 432 -212 c 0
 663 -212 697 -114 697 149 c 0
 697 354 697 560 697 765 c 0
 697 839 612 872 545 872 c 0
 482 872 417 830 272 760 c 1
 271 0 l 1
 113 -1 l 1
 113 705 l 2
 113 883 105 909 81 1003 c 1
 241 1040 l 1
 251 1016 264 976 271 927 c 1
EndSplineSet
Validated: 1
EndChar

StartChar: Scedilla
Encoding: 350 350 284
Width: 1060
VWidth: 32
Flags: HW
HStem: -409 125<393.445 598.66> -5 150<322.67 438 584 695.294> 1171 157<293.628 670.124>
VStem: 43 158<259.491 421> 72 159<902.544 1112.08> 438 145<-76.4613 -0.77124> 602 136<-277.217 -178.936> 751 159<1034.3 1092.86> 789 160<236.35 527.075>
LayerCount: 2
Fore
SplineSet
247 723 m 1xf680
 156 767 72 860 72 1009 c 0
 72 1229 259 1328 470 1328 c 0
 473 1328 476 1328 479 1328 c 0
 702 1325 872 1248 910 1037 c 1
 751 1007 l 1
 713 1137 629 1171 475 1171 c 0
 373 1171 312 1150 266 1104 c 1
 242 1078 231 1049 231 1014 c 0xef
 231 930 277 891 333 864 c 0
 450 807 607 808 739 747 c 1
 847 694 949 574 949 396 c 0
 949 146 793 15 584 -6 c 1
 583 -27 583 -68 583 -70 c 1
 680 -75 738 -137 738 -241 c 0
 738 -342 638 -409 554 -409 c 0
 488 -409 416 -384 360 -348 c 1
 398 -242 l 1
 431 -260 471 -284 522 -284 c 0
 558 -284 599 -264 602 -226 c 1
 602 -224 l 2
 602 -195 564 -170 516 -170 c 0
 468 -170 466 -177 438 -187 c 1
 438 -126 438 -66 438 -5 c 1
 136 25 43 207 43 421 c 1
 201 421 l 1
 201 259 284 145 508 145 c 0
 713 145 789 242 789 388 c 0
 789 497 730 566 651 601 c 0
 535 652 380 662 247 723 c 1xf680
EndSplineSet
Validated: 1
EndChar

StartChar: scedilla
Encoding: 351 351 285
Width: 1060
VWidth: 32
Flags: HW
HStem: -420 125<358.445 563.66> -16 139<313.688 403 549 644.31> 881 148<313.448 649.835>
VStem: 92 157<190.518 329> 126 160<706.04 850.139> 403 145<-87.4613 -11.9371> 567 136<-288.217 -189.936> 715 155<188.544 389.849>
LayerCount: 2
Fore
SplineSet
243 571 m 1xf7
 178 606 126 672 126 783 c 0
 127 956 289 1029 464 1029 c 0
 586 1029 762 989 844 888 c 1
 731 777 l 1
 678 839 564 881 478 881 c 0
 372 881 286 847 286 787 c 0xef
 286 739 303 716 343 698 c 1
 608 586 870 540 870 281 c 0
 870 119 756 28 649 0 c 0
 616 -8 582 -13 549 -16 c 1
 548 -37 548 -79 548 -81 c 1
 645 -86 703 -148 703 -252 c 0
 703 -353 603 -420 519 -420 c 0
 453 -420 381 -395 325 -359 c 1
 363 -253 l 1
 396 -271 436 -295 487 -295 c 0
 523 -295 564 -275 567 -237 c 1
 567 -235 l 2
 567 -206 529 -181 481 -181 c 0
 433 -181 431 -188 403 -198 c 1
 403 -137 403 -77 403 -16 c 1
 196 8 92 137 92 330 c 1
 249 329 l 1
 249 195 318 123 473 123 c 0
 596 123 715 176 715 286 c 0
 715 359 684 385 629 426 c 1
 552 481 335 524 243 571 c 1xf7
EndSplineSet
Validated: 1
EndChar

StartChar: Tcommaaccent
Encoding: 354 354 288
Width: 1060
VWidth: 32
Flags: HW
HStem: -367 125<363.445 568.66> 1167 158<39 403 563 909.955>
VStem: 403 160<-34.4613 1167> 572 136<-235.217 -136.936>
LayerCount: 2
Fore
SplineSet
403 -9 m 1
 403 1167 l 1
 205 1167 115 1166 39 1166 c 1
 39 1324 l 1
 161 1324 615 1325 803 1325 c 0
 876 1325 925 1313 943 1310 c 1
 910 1155 l 1
 910 1155 848 1167 798 1167 c 2
 563 1167 l 1
 563 -28 l 1
 660 -33 708 -95 708 -199 c 0
 708 -300 608 -367 524 -367 c 0
 458 -367 386 -342 330 -306 c 1
 368 -200 l 1
 401 -218 441 -242 492 -242 c 0
 528 -242 569 -222 572 -184 c 1
 572 -182 l 2
 572 -153 534 -128 486 -128 c 0
 438 -128 436 -135 408 -145 c 1
 408 -114 l 1
 405 -81 404 -41 403 -9 c 1
EndSplineSet
Validated: 1
EndChar

StartChar: tcommaaccent
Encoding: 355 355 289
Width: 1060
VWidth: 32
Flags: HW
HStem: -377 125<437.445 642.66> -138 287<483.294 626.524> 872 145<132 160>
VStem: 162 159<209.621 865 1017 1245> 482 145<-44.4613 -1.16919> 646 136<-245.217 -146.936>
LayerCount: 2
Fore
SplineSet
321 437 m 1
 321 397 l 2
 321 264 357 163 468 152 c 0
 486 150 563 149 576 149 c 0
 641 149 705 159 730 173 c 0
 787 203 805 258 812 277 c 1
 938 221 l 1
 928 193 905 102 793 37 c 0
 747 10 691 -1 627 -5 c 1
 627 -38 l 1
 724 -43 782 -105 782 -209 c 0
 782 -310 682 -377 598 -377 c 0
 532 -377 460 -352 404 -316 c 1
 442 -210 l 1
 475 -228 515 -252 566 -252 c 0
 602 -252 643 -232 646 -194 c 1
 646 -192 l 2
 646 -163 608 -138 560 -138 c 0
 512 -138 510 -145 482 -155 c 1
 482 -104 482 -54 482 -3 c 1
 351 5 259 40 201 161 c 0
 166 233 162 308 162 394 c 2
 162 437 l 1
 166 541 168 672 174 865 c 1
 160 865 l 2
 132 865 104 861 78 854 c 1
 58 1000 l 1
 82 1009 127 1012 160 1012 c 2
 175 1012 l 1
 175 1082 176 1176 176 1246 c 1
 334 1245 l 1
 334 1179 333 1085 332 1017 c 1
 454 1017 l 1
 599 1018 753 1019 753 1019 c 1
 771 1019 l 1
 771 872 l 1
 454 872 l 2
 408 872 381 869 335 869 c 1
 326 665 325 537 321 437 c 1
EndSplineSet
Validated: 1
EndChar

StartChar: tcaron
Encoding: 357 357 291
Width: 1060
VWidth: 32
Flags: HW
HStem: -6 155<398.71 773.905> 872 145<147 175>
VStem: 177 159<209.621 865 1017 1245> 579 152<1127.79 1249.75>
LayerCount: 2
Fore
SplineSet
840 1469 m 1
 802 1357 776 1248 731 1097 c 1
 579 1131 l 1
 597 1273 625 1414 646 1517 c 1
 840 1469 l 1
EndSplineSet
Refer: 19 116 N 1 0 0 1 0 0 2
Validated: 1
EndChar

StartChar: Tbar
Encoding: 358 358 292
Width: 1060
VWidth: 0
Flags: HW
HStem: -9 21G<403 563> -9 21G<403 563> 577 158<161 403 563 816> 1144 155<39 403 563 909.955>
VStem: 403 160<-9 577 735 1144>
LayerCount: 2
Fore
SplineSet
403 577 m 1xb8
 161 577 l 1
 161 735 l 1
 403 735 l 1
 403 1144 l 1
 205 1144 115 1143 39 1143 c 1
 39 1298 l 1
 161 1298 615 1299 803 1299 c 0
 876 1299 925 1287 943 1284 c 1
 910 1132 l 1
 910 1132 848 1144 798 1144 c 2
 563 1144 l 1
 563 735 l 1
 816 735 l 1
 816 577 l 1
 563 577 l 1
 563 -9 l 1
 403 -9 l 1
 403 577 l 1xb8
EndSplineSet
Validated: 1
EndChar

StartChar: tbar
Encoding: 359 359 293
Width: 1060
VWidth: 0
Flags: HW
HStem: -6 155<425.71 800.905> 504 158<28 206 369 638> 872 145<174 202>
VStem: 204 159<209.621 504 662 865 1017 1245>
LayerCount: 2
Fore
SplineSet
363 437 m 2
 363 397 l 2
 363 264 399 163 510 152 c 0
 528 150 605 149 618 149 c 0
 683 149 747 159 772 173 c 0
 829 203 847 258 854 277 c 1
 980 221 l 1
 970 193 947 102 835 37 c 0
 777 3 705 -6 620 -6 c 0
 436 -6 314 13 243 161 c 0
 208 233 204 308 204 394 c 2
 204 437 l 2
 205 458 205 480 206 504 c 1
 28 504 l 1
 28 662 l 1
 210 662 l 1
 211 721 214 788 216 865 c 1
 202 865 l 2
 174 865 146 861 120 854 c 1
 100 1000 l 1
 124 1009 169 1012 202 1012 c 2
 217 1012 l 1
 217 1082 218 1176 218 1246 c 1
 376 1245 l 1
 376 1179 375 1085 374 1017 c 1
 496 1017 l 1
 641 1018 795 1019 795 1019 c 1
 813 1019 l 1
 813 872 l 1
 496 872 l 2
 450 872 423 869 377 869 c 1
 373 790 371 721 369 662 c 1
 638 662 l 1
 638 504 l 1
 365 504 l 1
 364 480 364 458 363 437 c 2
EndSplineSet
Validated: 1
EndChar

StartChar: Uogonek
Encoding: 370 370 304
Width: 1060
VWidth: 32
Flags: HW
HStem: -455 145<557.602 794.542> -10 151<332.561 511.917> 1293 9G<67 228 772 934>
VStem: 61 159<276.83 1302> 390 155<-293.478 -100.947> 769 158<290.259 1300.64>
LayerCount: 2
Fore
SplineSet
777 1313 m 1
 934 1300 l 1
 925 1240 925 1197 925 1143 c 0
 925 998 927 871 927 760 c 2
 927 702 l 2
 927 470 923 248 811 119 c 1
 713 0 545 -72 545 -227 c 0
 545 -283 601 -310 665 -310 c 0
 723 -310 764 -277 794 -255 c 1
 872 -362 l 1
 828 -410 740 -455 661 -455 c 0
 473 -455 390 -362 390 -227 c 0
 390 -125 444 -79 515 -9 c 1
 508 -9 500 -10 492 -10 c 0
 184 -10 86 156 68 447 c 0
 63 522 61 644 61 779 c 0
 61 951 64 1144 70 1302 c 1
 228 1302 l 1
 224 1137 220 913 220 728 c 0
 220 605 222 499 227 439 c 0
 245 229 327 141 479 141 c 1
 585 146 637 169 691 225 c 1
 758 299 769 505 769 702 c 0
 769 825 764 971 764 1141 c 0
 764 1212 767 1251 777 1313 c 1
EndSplineSet
Validated: 1
EndChar

StartChar: uogonek
Encoding: 371 371 305
Width: 1060
VWidth: 32
Flags: HW
HStem: -444 145<628.602 865.542> 2 154<320.683 585.04> 1001 19G<132.481 262 739.97 898>
VStem: 114 156<180.892 701.424> 461 155<-282.478 -146.307> 739 158<276.783 1020>
LayerCount: 2
Fore
SplineSet
984 82 m 5
 756 -114 616 -128 616 -216 c 0
 616 -272 672 -299 736 -299 c 0
 794 -299 835 -266 865 -244 c 1
 943 -351 l 1
 899 -399 811 -444 732 -444 c 0
 544 -444 461 -351 461 -216 c 0
 461 -70 648 -19 804 86 c 1
 792 102 782 124 773 158 c 1
 689 72 592 5 442 2 c 1
 433 2 l 2
 371 2 286 3 226 44 c 0
 181 75 114 132 114 214 c 0
 111 482 118 911 91 994 c 1
 251 1021 l 1
 273 929 268 616 270 250 c 1
 276 216 298 190 320 174 c 0
 334 164 385 156 426 156 c 1
 493 159 534 167 585 198 c 0
 632 226 701 256 739 344 c 1
 740 1020 l 1
 898 1020 l 1
 897 239 l 1
 899 187 944 114 984 82 c 5
EndSplineSet
Validated: 1
EndChar

StartChar: zdotaccent
Encoding: 380 380 314
Width: 1060
VWidth: 32
Flags: HW
HStem: 0 156<246 910.911> 861 159<123 674> 1101 225<386 622>
VStem: 386 236<1101 1323>
LayerCount: 2
Fore
SplineSet
385 1403 m 1xf0
 620 1403 l 1
 620 1178 l 1
 385 1178 l 1
 385 1403 l 1xf0
EndSplineSet
Refer: 25 122 N 1 0 0 1 0 0 3
Validated: 1
EndChar

StartChar: longs
Encoding: 383 383 317
Width: 1060
VWidth: -2
Flags: HW
HStem: 859 153<112 255> 1266 152<448.036 824.583>
VStem: 112 300<859 1012> 255 157<0 859 1012 1231.57>
LayerCount: 2
Fore
SplineSet
412 1013 m 5xd0
 413 859 415 4 415 0 c 1
 258 0 l 1
 258 25 257 712 255 859 c 1xd0
 112 859 l 1
 112 1012 l 1xe0
 256 1012 l 1
 256 1028 255 1045 255 1064 c 0
 255 1207 283 1418 560 1418 c 0
 779 1418 927 1392 1011 1225 c 1
 885 1148 l 1
 835 1246 773 1266 568 1266 c 0
 421 1266 412 1168 412 1060 c 2
 412 1013 l 5xd0
EndSplineSet
Validated: 1
EndChar

StartChar: Euro
Encoding: 8364 8364 318
Width: 1060
VWidth: 0
Flags: HW
HStem: -31 155<455.909 718.308> 431 152<64 160 326 647> 676 151<61 161 331 732> 1180 163<481.603 722.464>
VStem: 160 152<315.292 431 584 676> 177 154<829 979.375>
LayerCount: 2
Fore
SplineSet
783 833 m 1xf4
 732 682 l 1
 720 682 l 0
 663 680 632 676 556 676 c 0
 499 676 414 676 314 676 c 1
 313 653 312 631 312 609 c 0
 312 601 312 593 312 584 c 1
 342 583 360 583 398 583 c 0
 484 583 584 584 673 585 c 0
 699 585 l 1
 647 435 l 1
 326 431 l 1
 353 253 451 124 567 124 c 1
 586 124 l 2
 685 124 765 181 813 287 c 1
 944 200 l 1
 870 26 720 -31 581 -31 c 0
 502 -31 382 3 298 113 c 0
 232 198 188 309 169 432 c 1
 140 433 116 433 91 433 c 0
 72 433 53 433 28 432 c 1
 4 431 l 1
 10 456 l 0
 18 493 41 525 60 572 c 0
 64 583 l 1
 75 583 l 0
 117 584 141 584 160 584 c 1
 160 601 160 617 160 632 c 0xf8
 160 647 160 662 161 676 c 1
 98 677 55 677 26 679 c 0
 1 681 l 1
 11 707 l 1
 28 753 48 790 61 821 c 0
 66 833 l 1
 78 832 l 0
 95 831 131 830 177 829 c 1
 196 942 225 1026 259 1102 c 0
 341 1281 499 1343 598 1343 c 0
 706 1343 811 1287 903 1184 c 1
 838 999 l 1
 784 1102 696 1180 595 1180 c 0
 463 1180 368 1023 331 827 c 1
 374 827 399 827 440 827 c 0
 522 827 594 827 628 827 c 1
 680 829 715 831 757 832 c 0
 783 833 l 1xf4
EndSplineSet
Validated: 1
EndChar

StartChar: uniE000
Encoding: 57344 57344 319
Width: 1060
VWidth: 6
Flags: HW
HStem: 390 154<418.981 573.371> 486 158<208.671 369.117>
VStem: 67 635
LayerCount: 2
Fore
SplineSet
76 491 m 2x60
 135 603 198 644 262 644 c 0x60
 366 644 461 544 519 544 c 0
 542 544 566 560 589 624 c 0
 598 650 l 1
 702 546 l 1
 695 532 l 0
 640 430 580 390 519 390 c 0xa0
 415 390 327 486 269 486 c 0
 242 486 219 475 194 409 c 0
 186 387 l 1
 67 475 l 1
 76 491 l 2x60
EndSplineSet
Validated: 1
EndChar

StartChar: uniE001
Encoding: 57345 57345 320
Width: 1060
VWidth: 6
Flags: HW
HStem: -312 150<347.529 575.23> -11 152<370.059 490.911> 513 151<403.205 550.976> 894 150<395.333 532.135> 1191 152<345.927 566.731>
VStem: 23 123<166.673 870.319> 219 129<151.289 456.948> 565 117<224.252 496.71> 774 114<148.623 863.075>
LayerCount: 2
Fore
SplineSet
406 -11 m 1
 275 -5 219 154 219 299 c 0
 219 300 219 302 219 303 c 1
 219 380 236 461 271 524 c 1
 329 628 403 661 472 664 c 0
 475 664 477 664 480 664 c 0
 516 664 545 652 564 641 c 1
 555 806 546 894 462 894 c 0
 403 894 396 860 340 727 c 0
 332 709 l 1
 228 770 l 1
 234 787 l 0
 289 963 364 1041 462 1044 c 1
 503 1044 561 1025 602 967 c 1
 644 907 682 805 682 663 c 0
 682 229 l 1
 685 155 690 157 709 133 c 1
 710 131 714 128 717 126 c 1
 727 132 733 149 739 169 c 0
 771 267 774 386 774 515 c 0
 774 900 635 1191 456 1191 c 0
 278 1191 146 901 146 515 c 0
 146 129 286 -162 456 -162 c 0
 516 -162 574 -129 624 -72 c 0
 636 -57 l 1
 713 -153 l 1
 702 -166 l 0
 639 -239 542 -312 456 -312 c 0
 209 -312 23 68 23 515 c 0
 23 962 209 1343 456 1343 c 0
 703 1343 888 962 888 515 c 0
 888 364 866 222 830 98 c 1
 821 71 789 -26 722 -26 c 0
 721 -26 720 -26 719 -26 c 0
 717 -26 l 1
 716 -25 l 0
 697 -20 668 -9 648 16 c 0
 647 16 l 0
 635 34 609 59 596 110 c 1
 573 80 553 65 524 38 c 1
 492 11 451 -11 406 -11 c 1
405 141 m 0
 431 141 459 155 476 170 c 1
 541 229 554 299 565 334 c 1
 565 367 564 433 564 452 c 1
 533 495 503 513 472 513 c 0
 471 513 470 513 469 513 c 0
 414 511 348 415 348 310 c 0
 348 308 348 307 348 305 c 1
 351 201 382 141 405 141 c 0
EndSplineSet
Validated: 1
EndChar

StartChar: uniE002
Encoding: 57346 57346 321
Width: 1060
VWidth: 6
Flags: HW
HStem: -310 150<414.529 642.23> -9 153<491.048 609.012> 702 152<500.409 649.08> 1198 153<409.668 608.797>
VStem: 90 123<169.451 874.351> 315 129<193.676 639.402> 683 117<227.653 665.965>
LayerCount: 2
Fore
SplineSet
800 703 m 0
 800 703 800 678 800 666 c 0
 800 231 l 1
 803 159 822 126 854 98 c 0
 871 83 l 1
 776 4 l 1
 765 20 l 1
 752 39 727 63 714 113 c 1
 691 83 671 68 642 41 c 1
 610 14 570 -9 524 -9 c 1
 389 -2 315 233 315 378 c 0
 315 379 315 380 315 381 c 1
 315 393 315 407 315 422 c 0
 315 496 319 600 368 711 c 0
 418 823 503 851 571 854 c 0
 573 854 575 854 577 854 c 0
 620 854 658 835 680 821 c 1
 678 854 677 882 675 903 c 0
 666 1031 655 1198 509 1198 c 0
 352 1198 213 905 213 518 c 0
 213 132 353 -160 523 -160 c 0
 583 -160 641 -126 691 -69 c 0
 703 -54 l 1
 779 -150 l 1
 769 -163 l 0
 706 -236 609 -310 523 -310 c 0
 276 -310 90 71 90 518 c 0
 90 964 262 1351 509 1351 c 0
 774 1351 800 996 800 703 c 0
524 144 m 0
 550 144 577 158 594 173 c 1
 659 232 672 301 683 336 c 1
 683 621 l 1
 651 665 596 702 567 702 c 0
 467 702 444 498 444 375 c 0
 444 370 444 365 444 360 c 1
 447 256 503 144 524 144 c 0
EndSplineSet
Validated: 1
EndChar

StartChar: gravecomb
Encoding: 768 768 322
Width: 1060
VWidth: -43
Flags: HW
HStem: 1280 416
VStem: 208 544
LayerCount: 2
Fore
SplineSet
752 1428 m 5
 684 1280 l 5
 541 1327 319 1438 208 1550 c 5
 320 1696 l 5
 435 1588 609 1476 752 1428 c 5
EndSplineSet
Validated: 1
EndChar

StartChar: acutecomb
Encoding: 769 769 323
Width: 1060
VWidth: -43
Flags: HW
HStem: 1280 416
VStem: 224 544
LayerCount: 2
Fore
SplineSet
224 1428 m 1
 367 1476 543 1588 658 1696 c 1
 768 1550 l 1
 657 1438 435 1327 292 1280 c 1
 224 1428 l 1
EndSplineSet
Validated: 1
EndChar

StartChar: uni0302
Encoding: 770 770 324
Width: 1060
VWidth: -10
Flags: HW
HStem: 1265 405
LayerCount: 2
Fore
SplineSet
521 1670 m 1
 875 1388 l 1
 787 1265 l 1
 521 1468 l 1
 255 1265 l 1
 169 1388 l 1
 521 1670 l 1
EndSplineSet
Validated: 1
EndChar

StartChar: tildecomb
Encoding: 771 771 325
Width: 1060
VWidth: -12
Flags: HW
HStem: 1401 153<535.243 717.863> 1522 153<261.244 462.376>
LayerCount: 2
Fore
SplineSet
341 1675 m 0x40
 489 1675 547 1554 637 1554 c 0
 701 1554 724 1598 749 1661 c 1
 885 1585 l 1
 839 1497 783 1401 651 1401 c 0x80
 511 1401 454 1522 353 1522 c 0
 294 1522 254 1485 233 1431 c 1
 111 1517 l 1
 169 1620 231 1675 341 1675 c 0x40
EndSplineSet
Validated: 1
EndChar

StartChar: uni0304
Encoding: 772 772 326
Width: 1060
VWidth: -34
Flags: HW
HStem: 1473 152<256 710>
VStem: 256 454<1474 1625>
LayerCount: 2
Fore
SplineSet
710 1625 m 1
 710 1473 l 1
 693 1473 l 0
 635 1471 565 1471 491 1471 c 0
 417 1471 342 1471 274 1473 c 0
 256 1474 l 1
 256 1629 l 1
 275 1627 l 0
 340 1625 437 1625 529 1625 c 0
 590 1625 648 1625 693 1625 c 0
 710 1625 l 1
EndSplineSet
Validated: 1
EndChar

StartChar: uni0305
Encoding: 773 773 327
Width: 1060
VWidth: -34
Flags: HW
HStem: 1473 155<87 861>
LayerCount: 2
Fore
SplineSet
861 1625 m 1
 861 1473 l 1
 87 1473 l 1
 87 1628 l 1
 861 1625 l 1
EndSplineSet
Validated: 1
EndChar

StartChar: uni0306
Encoding: 774 774 328
Width: 1060
VWidth: -12
Flags: HW
HStem: 1357 153<368.698 648.547>
VStem: 154 156<1571.28 1632.76> 706 166<1566.15 1623.59>
LayerCount: 2
Fore
SplineSet
510 1510 m 0
 618 1510 700 1573 706 1651 c 1
 872 1621 l 5
 848 1444 675 1357 510 1357 c 1
 384 1357 202 1405 154 1630 c 1
 310 1660 l 1
 337 1543 417 1510 510 1510 c 0
EndSplineSet
Validated: 1
EndChar

StartChar: uni0308
Encoding: 776 776 329
Width: 1060
VWidth: -28
Flags: HW
HStem: 1413 225<177 412 583 818>
VStem: 177 235<1416 1638> 583 235<1413 1635>
LayerCount: 2
Fore
SplineSet
583 1638 m 1
 818 1635 l 1
 818 1410 l 1
 583 1413 l 1
 583 1638 l 1
177 1641 m 1
 412 1638 l 1
 412 1413 l 1
 177 1416 l 1
 177 1641 l 1
EndSplineSet
Validated: 1
EndChar

StartChar: uni0307
Encoding: 775 775 330
Width: 1060
VWidth: -28
Flags: HW
HStem: 1426 225<334 570>
VStem: 334 236<1426 1648>
LayerCount: 2
Fore
SplineSet
334 1651 m 5
 570 1648 l 5
 570 1423 l 5
 334 1426 l 5
 334 1651 l 5
EndSplineSet
Validated: 1
EndChar

StartChar: uni030A
Encoding: 778 778 331
Width: 1060
VWidth: -8
Flags: HW
HStem: 1286 116<437.049 602.948> 1543 125<437.396 604.026>
VStem: 292 138<1413.79 1533.01> 611 139<1413.61 1532.57>
LayerCount: 2
Fore
SplineSet
520 1543 m 4
 465 1543 430 1508 430 1473 c 4
 430 1438 466 1402 520 1402 c 4
 574 1402 611 1438 611 1473 c 4
 611 1508 575 1543 520 1543 c 4
292 1473 m 4
 292 1584 398 1668 521 1668 c 4
 644 1668 750 1584 750 1473 c 4
 750 1363 654 1286 521 1286 c 4
 394 1286 292 1364 292 1473 c 4
EndSplineSet
Validated: 1
EndChar

StartChar: uni0237
Encoding: 567 567 332
Width: 1060
VWidth: 0
Flags: HW
HStem: -387 156<326.311 591.621> 864 155<374.191 626>
VStem: 627 156<-196.669 864>
LayerCount: 2
Fore
SplineSet
627 -114 m 1
 626 864 l 1
 620 864 616 864 610 864 c 0
 512 864 460 856 370 835 c 1
 342 977 l 1
 454 1003 562 1019 666 1019 c 2
 783 1019 l 1
 783 -118 l 0
 783 -263 722 -387 484 -387 c 3
 361 -387 217 -365 91 -160 c 1
 217 -62 l 1
 316 -224 400 -231 463 -231 c 0
 469 -231 475 -231 480 -231 c 3
 592 -231 625 -149 627 -114 c 1
EndSplineSet
Validated: 1
EndChar

StartChar: uni030B
Encoding: 779 779 333
Width: 1060
VWidth: -43
Flags: HW
HStem: 1158 517
LayerCount: 2
Fore
SplineSet
445 1273 m 5
 562 1368 688 1534 758 1675 c 5
 912 1575 l 5
 847 1431 678 1252 560 1158 c 5
 445 1273 l 5
109 1280 m 5
 226 1375 352 1541 422 1682 c 5
 576 1583 l 5
 511 1439 341 1259 223 1165 c 5
 109 1280 l 5
EndSplineSet
Validated: 1
EndChar

StartChar: uni030C
Encoding: 780 780 334
Width: 1060
VWidth: -10
Flags: HW
HStem: 1218 405
LayerCount: 2
Fore
SplineSet
521 1218 m 1
 169 1500 l 1
 255 1623 l 1
 521 1420 l 1
 787 1623 l 1
 875 1500 l 1
 521 1218 l 1
EndSplineSet
Validated: 1
EndChar

StartChar: uni030F
Encoding: 783 783 335
Width: 1060
VWidth: -43
Flags: HW
HStem: 1162 563
LayerCount: 2
Fore
SplineSet
903 1295 m 5
 778 1191 l 5
 670 1296 519 1493 468 1642 c 5
 632 1725 l 5
 688 1578 796 1401 903 1295 c 5
577 1266 m 5
 452 1162 l 5
 344 1267 193 1464 142 1613 c 5
 306 1696 l 5
 362 1549 470 1372 577 1266 c 5
EndSplineSet
Validated: 1
EndChar

StartChar: hookabovecomb
Encoding: 777 777 336
Width: 1060
VWidth: 12
Flags: HW
HStem: 953 175<481.294 624.524> 957 188<480 555.783> 1242 125<435.445 640.66>
VStem: 480 146<957 1034.46> 644 136<1136.94 1235.22>
LayerCount: 2
Fore
SplineSet
626 953 m 5xb8
 480 957 l 5
 480 1145 l 5x78
 508 1135 510 1128 558 1128 c 4
 606 1128 644 1153 644 1182 c 6
 644 1184 l 5
 641 1222 600 1242 564 1242 c 4
 513 1242 473 1218 440 1200 c 5
 402 1306 l 5
 458 1342 530 1367 596 1367 c 4
 680 1367 780 1300 780 1199 c 4
 780 1095 722 1033 625 1028 c 5
 625 1025 625 961 626 953 c 5xb8
EndSplineSet
Validated: 1
EndChar

StartChar: uni030D
Encoding: 781 781 337
Width: 1060
VWidth: -34
Flags: HW
HStem: 1280 348<423 582>
VStem: 423 159<1280 1628>
LayerCount: 2
Fore
SplineSet
423 1628 m 1
 582 1628 l 1
 582 1280 l 1
 423 1280 l 1
 423 1628 l 1
EndSplineSet
Validated: 1
EndChar

StartChar: uni0191
Encoding: 401 401 339
Width: 1060
VWidth: 0
Flags: HW
HStem: -245 165<25 132.438> 668 150<355 709.255> 1145 153<355 902.784>
VStem: 199 156<-18.465 666 816 1144>
LayerCount: 2
Fore
SplineSet
17 -80 m 1
 116 -80 200 -1 200 98 c 1
 199 1299 l 1
 801 1298 l 1
 878 1295 926 1280 960 1263 c 1
 904 1117 l 1
 878 1131 856 1144 758 1145 c 1
 688 1145 l 2
 584 1145 538 1145 355 1144 c 1
 355 816 l 1
 475 816 459 818 581 818 c 0
 669 818 728 804 729 804 c 2
 747 799 l 1
 711 654 l 1
 674 663 623 668 578 668 c 0
 536 668 509 668 485 668 c 0
 449 668 420 668 355 666 c 1
 355 545 360 184 360 91 c 0
 360 -101 210 -237 25 -245 c 1
 17 -80 l 1
EndSplineSet
Validated: 1
EndChar

StartChar: florin
Encoding: 402 402 340
Width: 1060
VWidth: -2
Flags: HW
HStem: -313 147<99 234.166> 859 153<184 326 483 814.016> 1266 152<519.822 827.743>
VStem: 326 157<-67.5453 859 1013 1224.24>
LayerCount: 2
Fore
SplineSet
330 152 m 0
 330 177 328 712 326 859 c 1
 184 859 l 1
 184 1012 l 1
 328 1012 l 1
 328 1028 326 1045 326 1064 c 0
 326 1207 355 1418 632 1418 c 0
 793 1418 927 1392 1011 1225 c 1
 885 1148 l 1
 835 1246 772 1266 640 1266 c 0
 493 1266 483 1168 483 1060 c 2
 483 1013 l 1
 551 1013 610 1012 683 1012 c 1
 787 1009 814 1001 844 992 c 1
 815 846 l 1
 794 853 773 859 717 859 c 2
 483 859 l 1
 484 705 488 156 488 152 c 0
 488 -105 417 -313 87 -313 c 0
 99 -166 l 0
 272 -166 330 -93 330 152 c 0
EndSplineSet
Validated: 1
EndChar

StartChar: alpha
Encoding: 945 945 341
Width: 1060
VWidth: 4
Flags: HW
HStem: -7 157<336.047 523.007> 865 153<328.334 524.274>
VStem: 71 159<280 745.984>
LayerCount: 2
Fore
SplineSet
230 527 m 0
 230 157 419 150 437 150 c 2
 450 150 l 2
 535 150 599 298 663 494 c 1
 589 745 541 865 424 865 c 0
 346 865 230 766 230 527 c 0
823 493 m 1
 847 416 873 329 905 232 c 0
 924 174 948 134 1014 108 c 1
 946 -32 l 1
 818 0 774 120 756 180 c 0
 749 203 742 226 735 248 c 1
 670 100 585 -7 454 -7 c 0
 166 -7 71 259 71 527 c 0
 71 894 260 1018 435 1018 c 0
 600 1018 669 940 741 743 c 1
 772 842 804 941 840 1034 c 1
 986 964 l 1
 921 838 875 661 823 493 c 1
EndSplineSet
Validated: 1
EndChar

StartChar: beta
Encoding: 946 946 342
Width: 1060
VWidth: 0
Flags: HW
HStem: -0 153<385.659 715.182> 669 153<293 546.391> 1176 152<288.318 547.771>
VStem: 80 153<-284.195 112 307.561 1117.88> 601 153<877.064 1123.57> 790 154<232.652 553.369>
LayerCount: 2
Fore
SplineSet
599 153 m 0
 721 153 790 261 790 395 c 0
 790 656 581 669 293 669 c 1
 293 822 l 1
 458 822 601 822 601 1005 c 0
 601 1118 527 1176 390 1176 c 1
 294 1175 233 1083 233 993 c 0
 233 893 236 609 237 367 c 1
 334 192 430 153 599 153 c 0
238 112 m 1
 238 83 238 59 238 39 c 0
 238 -85 235 -203 227 -300 c 1
 76 -283 l 1
 86 -183 89 -74 89 37 c 0
 89 224 80 829 80 1003 c 0
 80 1159 191 1328 390 1328 c 0
 593 1328 754 1233 754 1011 c 0
 754 909 726 832 670 779 c 1
 847 730 944 598 944 381 c 0
 944 171 851 2 599 0 c 0
 597 0 594 0 592 -0 c 0
 438 0 328 39 238 112 c 1
EndSplineSet
Validated: 1
EndChar

StartChar: gamma
Encoding: 947 947 343
Width: 1060
VWidth: 14
Flags: HW
HStem: 889 152<20 95.2925>
VStem: 491 159<-376 115.021>
LayerCount: 2
Fore
SplineSet
491 -376 m 1
 491 -269 488 -10 470 68 c 0
 413 315 274 627 180 784 c 0
 145 843 108 873 96 880 c 0
 81 889 60 889 35 889 c 0
 30 889 25 888 20 888 c 1
 20 1041 l 1
 53 1041 92 1040 120 1036 c 0
 183 1026 233 976 293 883 c 0
 390 731 492 488 562 287 c 1
 636 504 810 1060 810 1060 c 1
 964 1004 l 1
 964 1004 739 388 643 16 c 1
 649 -66 650 -174 650 -290 c 0
 650 -319 650 -349 650 -378 c 1
 491 -376 l 1
EndSplineSet
Validated: 1
EndChar

StartChar: delta
Encoding: 948 948 344
Width: 1060
VWidth: 6
Flags: HW
HStem: 1 155<343.159 630.662> 1227 152<312.954 750.382>
VStem: 72 158<272.944 645.668> 119 159<1053.25 1188.2> 745 157<273.541 630.398>
LayerCount: 2
Fore
SplineSet
902 504 m 0xd8
 902 244 806 1 484 1 c 2
 482 1 l 1
 210 2 72 184 72 464 c 0xe8
 72 655 133 804 317 879 c 1
 272 901 232 921 205 942 c 0
 159 979 119 1034 119 1110 c 0
 119 1129 122 1149 127 1171 c 0
 167 1330 307 1379 472 1379 c 0
 596 1379 735 1351 856 1322 c 1
 818 1164 l 1
 685 1201 562 1227 466 1227 c 0
 377 1227 312 1204 285 1147 c 0
 280 1136 278 1126 278 1117 c 0
 278 1089 299 1069 326 1050 c 1
 568 894 902 838 902 504 c 0xd8
506 786 m 1
 341 754 230 664 230 469 c 0
 230 274 317 156 484 156 c 1
 560 157 604 173 654 215 c 1
 723 279 745 365 745 506 c 0
 745 631 632 717 506 786 c 1
EndSplineSet
Validated: 1
EndChar

StartChar: epsilon
Encoding: 949 949 345
Width: 1060
VWidth: 0
Flags: HW
HStem: -4 154<281.879 739.193> 510 151<329.949 636> 871 153<242.845 778.822>
VStem: 64 157<206.569 417.619 716.508 840.612>
LayerCount: 2
Fore
SplineSet
929 131 m 1
 858 78 715 -4 492 -4 c 0
 310 -4 229 31 154 90 c 0
 77 151 64 236 64 301 c 0
 64 431 129 548 281 584 c 1
 120 595 64 691 64 789 c 0
 64 935 202 1024 512 1024 c 2
 526 1024 l 2
 758 1024 830 972 848 960 c 1
 780 830 l 1
 756 845 660 871 514 871 c 0
 310 871 220 846 220 783 c 0
 220 669 502 661 613 661 c 2
 618 661 l 1
 636 661 l 1
 636 509 l 1
 610 509 584 510 558 510 c 0
 495 510 433 506 359 478 c 0
 248 437 221 366 221 299 c 0
 221 206 312 150 493 150 c 0
 661 150 792 206 843 252 c 1
 929 131 l 1
EndSplineSet
Validated: 1
EndChar

StartChar: zeta
Encoding: 950 950 346
Width: 1060
VWidth: 0
Flags: HW
HStem: -306 138<598.507 725.68> 0 150<343.921 746.161> 1191 161<173.899 676.852> 1408 20G<120.906 157>
VStem: 82 159<264.24 659.875> 755 156<-130.969 -9.887>
LayerCount: 2
Fore
SplineSet
137 1428 m 1
 177 1386 223 1352 304 1352 c 0
 469 1352 739 1358 870 1376 c 1
 935 1218 l 1
 794 1020 241 871 241 480 c 0
 241 255 331 150 481 150 c 0
 484 150 601 151 604 151 c 0
 779 151 911 91 911 -66 c 0
 911 -274 691 -296 601 -306 c 1
 577 -168 l 1
 661 -155 755 -139 755 -77 c 0
 755 -3 704 0 616 0 c 0
 609 0 603 0 596 0 c 0
 592 0 437 0 433 0 c 0
 232 0 82 177 82 504 c 0
 82 861 441 1027 685 1200 c 1
 555 1193 451 1191 324 1191 c 0
 209 1191 111 1218 34 1300 c 1
 137 1428 l 1
EndSplineSet
Validated: 1
EndChar

StartChar: eta
Encoding: 951 951 347
Width: 1060
VWidth: 6
Flags: HW
HStem: 872 150<437.027 707.196>
VStem: 113 158<0 758.239> 734 159<-327.685 841.083>
LayerCount: 2
Fore
SplineSet
271 900 m 1
 379 979 494 1022 604 1022 c 0
 725 1022 893 945 893 796 c 2
 893 -79 l 2
 893 -145 906 -282 924 -330 c 1
 766 -362 l 1
 748 -283 734 -215 734 -86 c 2
 734 765 l 2
 734 839 649 872 582 872 c 0
 519 872 403 820 272 733 c 1
 271 0 l 1
 113 -1 l 1
 113 705 l 2
 113 883 105 909 81 1003 c 1
 241 1040 l 1
 251 1016 264 949 271 900 c 1
EndSplineSet
Validated: 1
EndChar

StartChar: theta
Encoding: 952 952 348
Width: 1060
VWidth: 0
Flags: HW
HStem: -16 153<355.938 639.042> 595 158<213.538 810> 1170 153<391.707 649.237>
VStem: 41 160<336.789 578.122 732 893.719> 812 160<363.79 590.421 745 957.457>
LayerCount: 2
Fore
SplineSet
288 247 m 0
 337 182 402 137 510 137 c 0
 626 137 697 224 742 307 c 1
 777 363 805 484 812 585 c 1
 768 592 712 595 646 595 c 0
 524 595 369 585 201 576 c 1
 206 470 237 314 288 247 c 0
522 1323 m 0
 632 1323 972 1233 972 632 c 2
 972 621 l 2
 972 457 926 324 878 231 c 0
 803 87 675 -16 510 -16 c 0
 388 -16 263 32 182 132 c 0
 92 242 41 410 41 590 c 0
 41 867 130 1059 200 1154 c 0
 266 1244 380 1323 522 1323 c 0
810 745 m 1
 802 839 781 939 743 1014 c 0
 685 1128 599 1170 527 1170 c 0
 449 1170 388 1138 330 1062 c 0
 276 992 227 879 208 732 c 1
 427 747 571 753 667 753 c 0
 735 753 780 750 810 745 c 1
EndSplineSet
Validated: 1
EndChar

StartChar: iota
Encoding: 953 953 349
Width: 1060
VWidth: 0
Flags: HW
HStem: -18 142<555.188 806.718> 857 156<124.467 378>
VStem: 378 160<141.544 857>
LayerCount: 2
Fore
SplineSet
417 1013 m 2
 537 1013 l 1
 537 740 538 259 538 259 c 2
 538 141 583 124 675 124 c 0
 768 124 860 185 910 299 c 1
 1024 221 l 1
 954 71 860 -18 676 -18 c 0
 591 -18 515 -4 471 20 c 0
 386 67 378 196 378 255 c 2
 378 857 l 1
 329 857 215 851 120 829 c 1
 91 971 l 1
 203 997 313 1013 417 1013 c 2
EndSplineSet
Validated: 1
EndChar

StartChar: kappa
Encoding: 954 954 350
Width: 1060
VWidth: 0
Flags: HW
HStem: 1000 20G<116 272>
VStem: 116 156<0 375.744 550 1020>
LayerCount: 2
Fore
SplineSet
558 605 m 1
 668 478 933 185 984 50 c 1
 850 -26 l 1
 804 83 565 364 446 501 c 1
 446 501 327 399 272 324 c 1
 272 0 l 1
 116 0 l 1
 116 1020 l 1
 272 1020 l 1
 272 550 l 1
 365 642 470 725 577 819 c 1
 784 997 862 1030 885 1049 c 1
 982 920 l 1
 789 804 624 673 558 605 c 1
EndSplineSet
Validated: 1
EndChar

StartChar: lambda
Encoding: 955 955 351
Width: 1060
VWidth: 14
Flags: HW
HStem: -17 21G<142.667 265> 0 156<860.931 967.39> 1234 155<241.02 372.064>
VStem: 66 156<1122 1219.41>
LayerCount: 2
Fore
SplineSet
176 -17 m 1xb0
 36 67 l 1
 133 171 346 724 465 975 c 1
 427 1081 384 1234 310 1234 c 0
 258 1234 222 1186 222 1122 c 1
 66 1122 l 1
 66 1124 l 0
 66 1252 147 1389 306 1389 c 0
 455 1389 527 1280 568 1184 c 0
 676 931 768 596 808 408 c 0
 822 342 857 156 891 156 c 0
 917 156 937 197 937 197 c 1
 1038 87 l 1
 979 22 962 0 876 0 c 0x70
 710 0 680 268 662 348 c 0
 626 507 601 626 557 756 c 1
 408 480 354 273 176 -17 c 1xb0
EndSplineSet
Validated: 1
EndChar

StartChar: mu
Encoding: 956 956 352
Width: 1060
VWidth: 6
Flags: HW
HStem: -10 21G<877.5 920.017> -10 21G<877.5 920.017> 2 154<320.683 585.04> 1001 20G<132.481 262>
VStem: 109 157<-400 22 181.338 701.424> 739 158<276.783 1001>
LayerCount: 2
Fore
SplineSet
906 -10 m 1x9c
 849 31 795 72 773 158 c 1
 689 72 592 5 442 2 c 1
 433 2 l 2
 385 2 323 2 269 22 c 1
 266 -400 l 1
 109 -400 l 1
 114 214 l 1
 111 482 118 911 91 994 c 1
 251 1021 l 1
 273 929 268 616 270 250 c 1
 276 216 298 190 320 174 c 0
 334 164 385 156 426 156 c 1x3c
 493 159 534 167 585 198 c 0
 632 226 701 256 739 344 c 1
 740 1001 l 1
 898 1001 l 1
 897 239 l 1
 899 187 948 139 988 107 c 1
 906 -10 l 1x9c
EndSplineSet
Validated: 1
EndChar

StartChar: nu
Encoding: 957 957 353
Width: 1060
VWidth: 6
Flags: HW
HStem: -3 21G<367 487>
VStem: 790 156<367.045 977.938>
LayerCount: 2
Fore
SplineSet
153 1048 m 1
 223 973 250 935 276 860 c 0
 321 734 490 256 501 152 c 1
 789 251 790 483 790 733 c 2
 790 738 l 2
 790 830 768 932 736 1002 c 1
 896 1046 l 1
 932 962 946 820 946 754 c 0
 946 750 946 746 946 742 c 0
 946 724 946 706 946 688 c 0
 946 504 939 313 771 138 c 0
 708 72 607 0 367 -3 c 1
 367 137 166 685 104 839 c 0
 96 860 50 927 24 952 c 1
 153 1048 l 1
EndSplineSet
Validated: 1
EndChar

StartChar: xi
Encoding: 958 958 354
Width: 1060
VWidth: 0
Flags: HW
HStem: -320 153<595.126 729.334> 0 150<285.13 746.161> 695 154<586.4 742> 1191 161<174.294 529.462> 1408 20G<122.906 159>
VStem: 80 159<195.393 456.211> 263 174<894.745 1043.63> 755 156<-131.01 -9.887>
LayerCount: 2
Fore
SplineSet
139 1428 m 1
 179 1386 225 1352 306 1352 c 0
 471 1352 621 1358 752 1376 c 1
 818 1218 l 1
 737 1144 437 1096 437 964 c 0
 437 871 592 849 742 849 c 1
 742 695 l 1
 479 629 239 547 239 301 c 0
 239 181 331 150 481 150 c 0
 484 150 601 151 604 151 c 0
 779 151 911 91 911 -66 c 0
 911 -274 687 -310 597 -320 c 1
 577 -167 l 1
 661 -154 755 -139 755 -77 c 0
 755 -3 704 0 616 0 c 0
 609 0 603 0 596 0 c 0
 592 0 437 0 433 0 c 0
 232 0 80 58 80 325 c 0
 80 577 300 721 416 757 c 1
 374 768 263 793 263 967 c 0
 263 1122 402 1162 534 1212 c 1
 474 1203 422 1191 326 1191 c 0
 211 1191 113 1218 36 1300 c 1
 139 1428 l 1
EndSplineSet
Validated: 1
EndChar

StartChar: omicron
Encoding: 959 959 355
Width: 1060
VWidth: 6
Flags: HW
HStem: 1 155<343.159 630.662> 878 154<352.497 639.881>
VStem: 72 158<272.944 736.885> 743 159<279.587 758.636>
LayerCount: 2
Fore
SplineSet
482 1 m 1
 210 2 72 184 72 464 c 0
 72 756 174 1032 466 1032 c 0
 663 1032 773 963 843 831 c 0
 884 752 902 639 902 543 c 0
 902 258 806 1 484 1 c 2
 482 1 l 1
654 215 m 1
 719 276 743 382 743 530 c 0
 743 536 743 542 743 548 c 0
 741 732 677 878 500 878 c 0
 292 878 230 713 230 469 c 0
 230 274 317 156 484 156 c 1
 560 157 604 173 654 215 c 1
EndSplineSet
Validated: 1
EndChar

StartChar: pi
Encoding: 960 960 356
Width: 1060
VWidth: 6
Flags: HW
HStem: -12 21G<166 335> 0 148<811.767 938.911> 861 159<356 630.819 785 867.216>
VStem: 196 160<11.189 853> 652 158<150.732 858.861>
LayerCount: 2
Fore
SplineSet
804 1020 m 0xb8
 845 1020 860 1038 884 1088 c 1
 1034 1014 l 1
 1002 940 948 861 816 861 c 2
 785 861 l 1
 803 816 810 758 810 626 c 2
 810 217 l 2
 810 166 828 148 850 148 c 0
 875 148 904 169 922 188 c 1
 992 70 l 1
 955 42 899 0 842 0 c 0x78
 765 0 652 49 652 204 c 2
 652 622 l 2
 652 794 633 815 610 861 c 1
 525 861 441 860 356 860 c 1
 356 215 l 2
 356 142 342 45 328 -12 c 1
 166 8 l 1
 184 76 196 146 196 219 c 2
 196 853 l 1
 150 844 109 827 76 800 c 1
 12 956 l 1
 62 988 160 1019 260 1019 c 2
 260 1019 592 1020 804 1020 c 0xb8
EndSplineSet
Validated: 1
EndChar

StartChar: rho
Encoding: 961 961 357
Width: 1060
VWidth: -2
Flags: HW
HStem: 0 156<460.865 707.372> 878 154<415.643 706.881>
VStem: 138 158<-358.499 168 351.625 747.702> 810 159<279.335 758.636>
LayerCount: 2
Fore
SplineSet
139 562 m 2
 139 854 295 1032 533 1032 c 0
 730 1032 840 963 910 831 c 0
 951 752 969 639 969 543 c 0
 969 258 896 0 574 0 c 2
 572 0 l 2
 435 0 345 80 296 168 c 1
 296 -75 l 2
 296 -206 328 -335 353 -396 c 1
 198 -438 l 1
 170 -376 138 -209 138 -70 c 2
 139 562 l 2
810 530 m 0
 810 536 810 542 810 548 c 0
 808 732 744 878 567 878 c 0
 424 878 297 793 297 549 c 0
 297 328 441 156 586 156 c 1
 763 158 810 329 810 530 c 0
EndSplineSet
Validated: 1
EndChar

StartChar: sigma1
Encoding: 962 962 358
Width: 1060
VWidth: 4
Flags: HW
HStem: -351 152<602 729.011> 865 153<353.88 699.499>
VStem: 71 159<291.76 736.59> 760 156<-166.09 -48.8317>
LayerCount: 2
Fore
SplineSet
230 527 m 0
 230 150 442 155 508 150 c 0
 770 129 916 79 916 -95 c 0
 916 -191 866 -343 602 -351 c 1
 580 -199 l 1
 694 -185 760 -168 760 -99 c 0
 760 -33 597 -16 512 -7 c 0
 204 24 71 187 71 527 c 0
 71 894 249 1018 564 1018 c 0
 659 1018 733 994 793 948 c 0
 854 901 885 841 907 789 c 1
 753 729 l 1
 742 770 713 865 553 865 c 0
 332 865 230 766 230 527 c 0
EndSplineSet
Validated: 1
EndChar

StartChar: sigma
Encoding: 963 963 359
Width: 1060
VWidth: 6
Flags: HW
HStem: 1 155<343.159 601.698> 874 149<372.001 658.295 796 1003.86>
VStem: 72 158<272.944 715.201> 710 159<291.004 816.704>
LayerCount: 2
Fore
SplineSet
625 874 m 1
 617 874 610 874 603 874 c 0
 581 874 566 874 562 874 c 0
 306 874 230 713 230 469 c 0
 230 274 317 156 484 156 c 0
 655 156 710 342 710 530 c 0
 710 536 710 542 710 548 c 0
 708 674 694 807 625 874 c 1
796 872 m 1
 804 864 812 853 819 840 c 0
 860 761 869 639 869 543 c 0
 869 258 761 1 484 1 c 2
 482 1 l 1
 210 2 72 184 72 464 c 0
 72 756 180 1019 533 1022 c 0
 550 1022 609 1023 681 1023 c 0
 808 1023 975 1021 1026 1012 c 1
 1006 859 l 1
 961 866 878 870 796 872 c 1
EndSplineSet
Validated: 1
EndChar

StartChar: tau
Encoding: 964 964 360
Width: 1060
VWidth: 0
Flags: HW
HStem: -3 155<578.618 797.23> 875 145<127.204 400 561 986>
VStem: 390 159<185.361 875>
LayerCount: 2
Fore
SplineSet
560 1020 m 1
 682 1020 l 2
 730 1020 779 1020 821 1020 c 0
 968 1020 l 1
 986 1020 l 1
 986 873 l 1
 682 875 l 1
 561 875 l 1
 552 671 553 540 549 440 c 1
 549 400 l 2
 549 204 561 152 705 152 c 0
 775 152 822 210 850 286 c 1
 982 228 l 1
 962 172 904 -3 707 -3 c 0
 444 -3 390 109 390 397 c 2
 390 440 l 1
 394 544 394 683 400 876 c 1
 380 875 266 874 266 874 c 2
 196 873 138 839 88 807 c 1
 20 933 l 1
 70 977 165 1019 261 1019 c 2
 560 1020 l 1
EndSplineSet
Validated: 1
EndChar

StartChar: upsilon
Encoding: 965 965 361
Width: 1060
VWidth: 6
Flags: HW
HStem: -4 156<334.513 604.023> 1012 20G<132.481 259.5>
VStem: 114 156<217.662 1001.91> 790 156<372.78 977.938>
LayerCount: 2
Fore
SplineSet
114 366 m 0
 114 426 114 489 114 549 c 0
 114 753 112 941 91 1005 c 1
 251 1032 l 1
 268 960 270 778 270 573 c 0
 270 517 270 459 270 402 c 0
 270 223 334 152 467 152 c 0
 525 152 636 193 692 273 c 0
 779 398 790 500 790 738 c 0
 790 830 768 932 736 1002 c 1
 896 1046 l 1
 932 962 946 820 946 754 c 0
 946 750 946 746 946 742 c 0
 946 730 946 717 946 705 c 0
 946 514 941 303 768 123 c 0
 705 57 585 -4 422 -4 c 0
 229 -4 114 167 114 366 c 0
EndSplineSet
Validated: 1
EndChar

StartChar: phi
Encoding: 966 966 362
Width: 1060
VWidth: 0
Flags: HW
HStem: -11 156<579 667.183> 894 146<610.215 773.587>
VStem: 41 157<320.826 846.774> 420 158<-396 -2.52826 148 863.528> 816 156<339.325 855.219>
LayerCount: 2
Fore
SplineSet
578 145 m 1
 657 165 712 218 748 284 c 1
 788 348 815 517 816 624 c 1
 816 643 l 2
 816 812 788 894 677 894 c 2
 676 894 l 2
 649 894 576 893 576 644 c 0
 576 502 577 318 578 145 c 1
579 -11 m 1
 581 -215 583 -377 584 -398 c 1
 422 -396 l 1
 420 -375 420 -211 420 -8 c 1
 328 9 240 52 179 127 c 0
 89 237 41 389 41 569 c 0
 41 797 95 963 188 1044 c 1
 314 954 l 1
 233 870 198 765 198 573 c 0
 198 469 228 315 284 242 c 0
 318 197 361 164 420 148 c 1
 420 640 l 2
 420 955 531 1040 675 1040 c 0
 814 1040 972 1010 972 632 c 2
 972 621 l 2
 972 457 928 304 880 211 c 0
 816 88 711 9 579 -11 c 1
EndSplineSet
Validated: 1
EndChar

StartChar: chi
Encoding: 967 967 363
Width: 1060
VWidth: 14
Flags: HW
HStem: -398 156<858.01 979.917> 888 153<20 162.48>
LayerCount: 2
Fore
SplineSet
424 289 m 1
 371 465 323 631 211 792 c 0
 153 876 98 888 20 888 c 1
 20 1041 l 1
 167 1041 235 1032 331 913 c 0
 435 784 541 466 541 466 c 1
 634 667 810 1060 810 1060 c 1
 964 1004 l 1
 964 1004 796 606 635 273 c 1
 678 100 839 -242 914 -242 c 0
 945 -242 943 -223 951 -211 c 1
 1043 -270 l 1
 1037 -308 1013 -398 911 -398 c 0
 693 -398 559 -6 517 114 c 1
 286 -410 l 1
 109 -338 l 1
 424 289 l 1
EndSplineSet
Validated: 1
EndChar

StartChar: psi
Encoding: 968 968 364
Width: 1060
VWidth: 6
Flags: HW
HStem: -4 158<308.006 427> 1012 8G<90.4815 217.5 433 593>
VStem: 72 156<233.567 1001.91> 428 162<-392.108 -4 168 1020> 842 156<372.78 977.938>
LayerCount: 2
Fore
SplineSet
72 366 m 0
 72 426 72 489 72 549 c 0
 72 753 70 941 49 1005 c 1
 209 1032 l 1
 226 960 228 778 228 573 c 0
 228 517 228 459 228 402 c 0
 228 240 304 166 428 154 c 1
 429 438 433 693 433 927 c 2
 433 1020 l 1
 593 1020 l 1
 593 875 l 2
 593 639 591 431 590 168 c 1
 656 187 708 222 744 273 c 0
 831 398 842 500 842 738 c 0
 842 830 820 932 788 1002 c 1
 948 1046 l 1
 984 962 998 820 998 754 c 0
 998 750 998 746 998 742 c 0
 998 730 998 717 998 705 c 0
 998 514 993 303 820 123 c 0
 774 75 715 29 590 8 c 1
 590 -124 l 2
 590 -239 589 -295 584 -396 c 1
 423 -395 l 1
 427 -333 428 -290 428 -235 c 0
 428 -188 427 -132 427 -46 c 0
 427 -32 427 -18 427 -4 c 1
 425 -4 424 -4 422 -4 c 0
 202 -4 72 167 72 366 c 0
EndSplineSet
Validated: 1
EndChar

StartChar: omega
Encoding: 969 969 365
Width: 1060
VWidth: 6
Flags: HW
HStem: -10 155<247.366 396.525 640.099 796.103> 1013 20G<834.939 935>
VStem: 35 162<200.065 835.613> 436 155<195.231 684> 842 157<189.339 805.891>
LayerCount: 2
Fore
SplineSet
434 684 m 1
 593 703 l 1
 591 618 592 524 591 431 c 0
 592 423 592 414 592 405 c 0
 594 224 644 144 725 144 c 0
 814 144 842 270 842 420 c 0
 842 633 814 835 729 967 c 1
 881 1033 l 1
 989 852 999 582 999 441 c 0
 999 218 946 -12 701 -12 c 0
 626 -12 559 33 512 104 c 1
 462 34 393 -10 317 -10 c 0
 91 -10 35 220 35 444 c 0
 35 612 41 858 151 1041 c 1
 303 975 l 1
 222 848 197 675 197 468 c 0
 197 299 230 145 310 145 c 0
 380 145 425 196 438 321 c 1
 437 337 436 352 436 368 c 0
 435 474 436 584 434 684 c 1
EndSplineSet
Validated: 1
EndChar

StartChar: Alpha
Encoding: 913 913 368
Width: 1060
VWidth: 0
Flags: HW
HStem: 326 163<346.805 677>
LayerCount: 2
Fore
SplineSet
461 1298 m 1
 573 1298 l 1
 997 11 l 1
 833 -19 l 1
 734 326 l 1
 593 323 398 324 287 297 c 1
 185 -24 l 1
 23 0 l 1
 461 1298 l 1
677 490 m 1
 517 982 l 1
 344 470 l 1
 404 483 454 485 537 489 c 1
 677 490 l 1
EndSplineSet
Validated: 1
EndChar

StartChar: Beta
Encoding: 914 914 369
Width: 1060
VWidth: 0
Flags: HW
HStem: 3 150<251 685.455> 647 156<257 529.155> 1150 149<255 530.519>
VStem: 97 158<153 647 803 1143.26> 591 157<858.454 1093.57> 783 159<255.577 547.611>
LayerCount: 2
Fore
SplineSet
708 578 m 0
 635 639 574 649 479 649 c 0
 430 649 372 647 299 647 c 2
 255 647 l 1
 253 410 252 229 251 153 c 1
 359 153 399 146 474 146 c 0
 514 146 549 148 584 153 c 0
 690 166 783 265 783 409 c 0
 783 488 760 535 708 578 c 0
591 992 m 2
 591 1105 494 1150 357 1150 c 2
 340 1150 l 2
 301 1150 285 1148 255 1145 c 1
 258 1108 259 1064 259 1017 c 0
 259 950 257 877 257 803 c 1
 403 806 453 799 543 854 c 0
 570 870 591 925 591 984 c 2
 591 992 l 2
97 823 m 0
 97 996 94 1158 85 1285 c 1
 166 1291 215 1299 328 1299 c 0
 334 1299 340 1299 346 1299 c 0
 552 1299 748 1218 748 1002 c 0
 748 906 723 823 662 767 c 1
 817 715 942 583 942 393 c 0
 942 168 793 23 626 3 c 0
 587 -2 546 -5 507 -5 c 0
 422 -5 332 3 224 3 c 2
 88 3 l 1
 88 197 97 407 97 823 c 0
EndSplineSet
Validated: 1
EndChar

StartChar: Gamma
Encoding: 915 915 370
Width: 1060
VWidth: 0
Flags: HW
HStem: 1147 154<272 911.956>
VStem: 111 161<0 1147>
LayerCount: 2
Fore
SplineSet
111 1301 m 1
 795 1301 l 2
 870 1301 908 1287 955 1271 c 1
 914 1125 l 1
 870 1140 852 1144 793 1147 c 1
 272 1147 l 1
 272 0 l 1
 111 0 l 1
 111 1301 l 1
EndSplineSet
Validated: 1
EndChar

StartChar: Epsilon
Encoding: 917 917 371
Width: 1060
VWidth: 0
Flags: HW
HStem: -3 150<257 898.956> 666 150<260 698> 1144 153<260 889>
VStem: 102 158<147 666 816 1144>
LayerCount: 2
Fore
SplineSet
102 1293 m 1
 158 1297 228 1297 306 1297 c 0
 337 1297 370 1297 404 1297 c 2
 514 1297 l 2
 663 1297 799 1294 873 1294 c 2
 889 1294 l 1
 889 1144 l 1
 260 1144 l 1
 260 816 l 1
 698 816 l 1
 698 666 l 1
 260 666 l 1
 260 636 l 2
 260 433 257 224 257 147 c 1
 782 149 l 2
 838 149 899 175 899 175 c 1
 943 27 l 1
 895 14 860 -3 784 -3 c 2
 102 -3 l 1
 102 1293 l 1
EndSplineSet
Validated: 1
EndChar

StartChar: Zeta
Encoding: 918 918 372
Width: 1060
VWidth: 0
Flags: HW
HStem: -3 153<263 923.981> 1150 152<89 755>
LayerCount: 2
Fore
SplineSet
123 -5 m 1
 28 83 l 1
 755 1150 l 1
 541 1150 203 1145 89 1145 c 1
 88 1298 l 1
 208 1298 630 1302 818 1302 c 0
 893 1302 939 1289 958 1286 c 1
 955 1253 944 1172 940 1149 c 1
 263 151 l 1
 750 150 l 2
 835 150 862 154 927 175 c 1
 967 27 l 1
 922 11 884 -3 809 -3 c 2
 566 -3 l 2
 354 -3 178 -5 130 -5 c 2
 123 -5 l 1
EndSplineSet
Validated: 1
EndChar

StartChar: Eta
Encoding: 919 919 373
Width: 1060
VWidth: 0
Flags: HW
HStem: 625 152<224.549 754> 1271 20G<753 912>
VStem: 60 159<0 604.438 749 1294> 754 158<0 625 777 1291>
LayerCount: 2
Fore
SplineSet
220 1296 m 1
 219 749 l 1
 311 770 406 777 526 777 c 2
 754 777 l 1
 754 1051 753 1129 753 1291 c 1
 912 1291 l 1
 912 0 l 1
 754 0 l 1
 754 625 l 1
 711 625 668 625 625 625 c 0
 479 625 337 622 219 597 c 1
 219 254 221 181 221 0 c 1
 60 0 l 1
 60 1294 l 1
 220 1296 l 1
EndSplineSet
Validated: 1
EndChar

StartChar: Theta
Encoding: 920 920 374
Width: 1060
VWidth: 0
Flags: HW
HStem: -16 153<349.716 653.474> 572 153<296 710> 1170 153<376.35 654.552>
VStem: 41 159<320.826 920.593> 814 158<350.765 944.703>
LayerCount: 2
Fore
SplineSet
284 242 m 0
 333 177 402 137 510 137 c 0
 626 137 698 204 743 287 c 1
 783 351 813 517 814 624 c 1
 814 643 l 2
 814 758 796 911 743 1014 c 0
 685 1128 615 1170 527 1170 c 0
 432 1170 376 1142 318 1066 c 0
 249 977 200 835 200 573 c 0
 200 469 228 315 284 242 c 0
522 1323 m 1
 646 1323 967 1249 972 632 c 1
 972 621 l 2
 972 457 928 304 880 211 c 0
 805 67 675 -16 510 -16 c 0
 388 -16 260 27 179 127 c 0
 89 237 41 389 41 569 c 0
 41 914 118 1063 188 1158 c 0
 254 1248 366 1320 522 1323 c 1
296 725 m 1
 710 725 l 1
 710 572 l 1
 296 572 l 1
 296 725 l 1
EndSplineSet
Validated: 1
EndChar

StartChar: Iota
Encoding: 921 921 375
Width: 1060
VWidth: 0
Flags: HW
HStem: 4 147<134 422 582 849> 1144 154<138 422 582 853>
VStem: 422 160<152 1151>
LayerCount: 2
Fore
SplineSet
132 1298 m 1
 288 1302 389 1302 485 1302 c 0
 590 1302 690 1301 853 1299 c 1
 853 1147 l 1
 730 1147 678 1152 582 1152 c 1
 582 152 l 1
 628 152 654 153 705 153 c 0
 750 153 797 152 849 149 c 1
 849 -1 l 1
 764 4 702 5 639 5 c 0
 592 5 543 4 484 4 c 0
 410 4 289 -3 134 -3 c 1
 134 146 l 1
 219 150 290 151 347 151 c 2
 422 151 l 1
 422 1151 l 1
 356 1150 244 1150 138 1144 c 1
 132 1298 l 1
EndSplineSet
Validated: 1
EndChar

StartChar: Kappa
Encoding: 922 922 376
Width: 1060
VWidth: 0
Flags: HW
HStem: -5 9G<116 274 845 903.263> 1288 20G<116 274 851.5 882.943>
VStem: 116 158<-5 508.713 703 1308>
LayerCount: 2
Fore
SplineSet
484 725 m 1
 604 608 951 194 1002 59 c 1
 868 -17 l 1
 822 92 518 474 388 600 c 1
 388 600 304 502 274 431 c 1
 274 -5 l 1
 116 -5 l 1
 116 1308 l 1
 274 1308 l 1
 274 703 l 1
 354 814 425 893 524 996 c 1
 715 1191 841 1289 862 1310 c 1
 973 1204 l 1
 791 1072 544 798 484 725 c 1
EndSplineSet
Validated: 1
EndChar

StartChar: Mu
Encoding: 924 924 377
Width: 1060
VWidth: 31
Flags: HW
HStem: -5 21G<61.9542 220 730.957 888> 1293 20G<59 193.5 730.5 887.015>
VStem: 62 158<-5 900> 731 157<-5 920>
LayerCount: 2
Fore
SplineSet
59 1304 m 1
 160 1313 l 1
 227 1216 301 1060 370 938 c 0
 420 848 446 797 465 759 c 1
 548 914 690 1183 771 1313 c 1
 887 1313 l 1
 888 -5 l 1
 731 -5 l 1
 729 920 l 1
 655 779 538 575 527 539 c 1
 405 542 l 1
 397 558 339 668 251 837 c 1
 230 881 235 872 220 900 c 1
 220 -5 l 1
 62 -5 l 1
 59 1304 l 1
EndSplineSet
Validated: 1
EndChar

StartChar: Nu
Encoding: 925 925 378
Width: 1060
VWidth: 0
Flags: HW
HStem: -3 18G<75 234 670.5 911>
VStem: 75 158<-3 1001> 750 158<-5 92.9198 357 1297>
LayerCount: 2
Fore
SplineSet
752 -6 m 1
 589 351 435 648 233 1001 c 1
 233 797 l 2
 233 504 234 149 234 -3 c 1
 75 -3 l 1
 75 1298 l 1
 234 1294 l 1
 360 1110 636 605 753 357 c 1
 751 487 750 623 750 757 c 0
 750 943 753 1126 762 1297 c 1
 916 1297 l 1
 910 1184 908 1035 908 872 c 0
 908 646 912 392 912 162 c 0
 912 105 911 48 911 -5 c 1
 752 -6 l 1
EndSplineSet
Validated: 1
EndChar

StartChar: Omicron
Encoding: 927 927 379
Width: 1060
VWidth: 0
Flags: HW
HStem: -16 153<349.716 653.474> 1170 153<376.35 654.552>
VStem: 41 159<320.826 920.593> 814 158<350.765 944.703>
LayerCount: 2
Fore
SplineSet
284 242 m 0
 333 177 402 137 510 137 c 0
 626 137 698 204 743 287 c 1
 783 351 813 517 814 624 c 1
 814 643 l 2
 814 758 796 911 743 1014 c 0
 685 1128 615 1170 527 1170 c 0
 432 1170 376 1142 318 1066 c 0
 249 977 200 835 200 573 c 0
 200 469 228 315 284 242 c 0
522 1323 m 1
 646 1323 967 1249 972 632 c 1
 972 621 l 2
 972 457 928 304 880 211 c 0
 805 67 675 -16 510 -16 c 0
 388 -16 260 27 179 127 c 0
 89 237 41 389 41 569 c 0
 41 914 118 1063 188 1158 c 0
 254 1248 366 1320 522 1323 c 1
EndSplineSet
Validated: 1
EndChar

StartChar: Rho
Encoding: 929 929 380
Width: 1060
VWidth: 0
Flags: HW
HStem: -10 21G<104 262> -10 21G<104 262> 460 152<263 667.396> 1151 151<264 693.907>
VStem: 104 160<-9 463 613 1146> 815 162<736.562 1049.37>
LayerCount: 2
Fore
SplineSet
262 -10 m 1xbc
 104 -9 l 1
 104 1294 l 1
 222 1294 260 1302 393 1302 c 0
 618 1302 789 1289 904 1151 c 0
 958 1086 977 996 977 906 c 0
 977 815 970 715 910 628 c 0
 812 488 655 460 416 460 c 0
 368 460 317 461 263 463 c 1
 263 200 262 146 262 -10 c 1xbc
815 900 m 0
 815 1108 661 1145 415 1151 c 1
 354 1151 309 1147 264 1146 c 1
 264 1020 l 2
 264 837 263 613 263 613 c 1
 299 612 333 612 366 612 c 0
 652 612 815 672 815 900 c 0
EndSplineSet
Validated: 1
EndChar

StartChar: Tau
Encoding: 932 932 381
Width: 1060
VWidth: 0
Flags: HW
HStem: -9 21G<403 563> -9 21G<403 563> 1144 155<39 403 563 909.955>
VStem: 403 160<-9 1144>
LayerCount: 2
Fore
SplineSet
403 -9 m 1xb0
 403 1144 l 1
 205 1144 115 1143 39 1143 c 1
 39 1298 l 1
 161 1298 615 1299 803 1299 c 0
 876 1299 925 1287 943 1284 c 1
 910 1132 l 1
 910 1132 848 1144 798 1144 c 2
 563 1144 l 1
 563 -9 l 1
 403 -9 l 1xb0
EndSplineSet
Validated: 1
EndChar

StartChar: Upsilon
Encoding: 933 933 382
Width: 1060
VWidth: 0
Flags: HW
HStem: -6 21G<399 559>
VStem: 399 160<-6 640.323>
LayerCount: 2
Fore
SplineSet
399 -6 m 1
 399 135 l 2
 399 225 406 482 406 601 c 1
 327 712 84 1151 33 1257 c 1
 173 1328 l 1
 213 1251 405 896 492 759 c 1
 590 898 790 1254 828 1341 c 1
 967 1262 l 1
 920 1168 847 1026 742 858 c 1
 655 727 585 616 566 590 c 1
 566 543 564 495 564 441 c 1
 561 309 559 167 559 125 c 2
 559 -6 l 1
 399 -6 l 1
EndSplineSet
Validated: 1
EndChar

StartChar: Chi
Encoding: 935 935 383
Width: 1060
VWidth: 0
Flags: HW
LayerCount: 2
Fore
SplineSet
794 1340 m 1
 928 1255 l 1
 568 657 l 1
 739 390 836 214 978 77 c 1
 874 -36 l 1
 722 111 630 266 478 508 c 1
 160 -31 l 1
 28 54 l 1
 380 654 l 1
 260 858 163 1082 23 1238 c 1
 148 1331 l 1
 278 1185 372 971 475 799 c 1
 794 1340 l 1
EndSplineSet
Validated: 1
EndChar

StartChar: Delta
Encoding: 916 916 384
Width: 1060
VWidth: 0
Flags: HW
HStem: -5 156<236 791>
LayerCount: 2
Fore
SplineSet
834 0 m 1
 186 -5 l 1
 24 19 l 1
 461 1298 l 1
 573 1298 l 1
 998 30 l 1
 834 0 l 1
517 982 m 1
 423 698 326 438 236 151 c 1
 791 151 l 1
 710 444 608 699 517 982 c 1
EndSplineSet
Validated: 1
EndChar

StartChar: Lambda
Encoding: 923 923 385
Width: 1060
VWidth: 0
Flags: HW
LayerCount: 2
Fore
SplineSet
833 -19 m 1
 723 318 625 651 517 982 c 1
 403 650 309 306 185 -24 c 1
 23 0 l 1
 461 1298 l 1
 573 1298 l 1
 997 11 l 1
 833 -19 l 1
EndSplineSet
Validated: 1
EndChar

StartChar: Xi
Encoding: 926 926 386
Width: 1060
VWidth: 0
Flags: HW
HStem: -3 150<102 898.956> 666 150<260 698> 1144 153<104 889>
LayerCount: 2
Fore
SplineSet
260 816 m 1
 698 816 l 1
 698 666 l 1
 260 666 l 1
 260 816 l 1
102 1293 m 1
 158 1297 228 1297 306 1297 c 0
 337 1297 370 1297 404 1297 c 2
 514 1297 l 2
 663 1297 799 1294 873 1294 c 2
 889 1294 l 1
 889 1144 l 1
 104 1144 l 1
 102 1293 l 1
100 147 m 1
 782 149 l 2
 838 149 899 175 899 175 c 1
 943 27 l 1
 895 14 860 -3 784 -3 c 2
 102 -3 l 1
 100 147 l 1
EndSplineSet
Validated: 1
EndChar

StartChar: Pi
Encoding: 928 928 387
Width: 1060
VWidth: 0
Flags: HW
HStem: -4 21G<772.5 936> 1144 152<301.493 753 912 1000>
VStem: 139 161<0 1131> 753 159<14.4902 1144>
LayerCount: 2
Fore
SplineSet
300 0 m 1
 139 0 l 1
 139 1131 l 1
 110 1127 82 1122 52 1116 c 1
 33 1268 l 1
 125 1289 220 1296 340 1296 c 2
 1000 1296 l 1
 1000 1144 l 1
 912 1144 l 1
 912 378 l 2
 912 251 922 126 936 9 c 1
 782 -4 l 1
 763 117 753 255 753 384 c 2
 753 1144 l 1
 421 1144 l 2
 377 1144 337 1144 299 1143 c 1
 300 0 l 1
EndSplineSet
Validated: 1
EndChar

StartChar: Sigma
Encoding: 931 931 388
Width: 1060
VWidth: 0
Flags: HW
HStem: -3 150<265 898.956> 1144 153<321 889>
LayerCount: 2
Fore
SplineSet
321 1144 m 1
 745 752 l 1
 738 620 l 1
 265 147 l 1
 782 149 l 2
 838 149 899 175 899 175 c 1
 943 27 l 1
 895 14 860 -3 784 -3 c 2
 102 -3 l 1
 77 172 l 1
 594 687 l 1
 72 1170 l 1
 102 1293 l 1
 158 1297 228 1297 306 1297 c 0
 337 1297 370 1297 404 1297 c 2
 514 1297 l 2
 663 1297 799 1294 873 1294 c 2
 889 1294 l 1
 889 1144 l 1
 321 1144 l 1
EndSplineSet
Validated: 1
EndChar

StartChar: Phi
Encoding: 934 934 389
Width: 1060
VWidth: 0
Flags: HW
HStem: 170 165<305.498 415> 984 154<576 689.136> 1287 20G<416 576>
VStem: 41 159<442.682 827.234> 416 160<1 173.904 335 975 1131.33 1307> 814 158<464.347 841.499>
LayerCount: 2
Fore
SplineSet
416 170 m 1
 326 182 239 214 179 268 c 0
 89 348 41 460 41 591 c 0
 41 843 118 952 188 1021 c 0
 238 1071 314 1113 416 1131 c 1
 416 1158 416 1186 416 1214 c 2
 416 1307 l 1
 576 1307 l 1
 576 1162 l 1
 576 1138 l 1
 720 1122 968 1031 972 637 c 1
 972 629 l 2
 972 509 928 397 880 329 c 0
 816 239 711 182 578 168 c 1
 578 142 579 122 579 102 c 0
 579 74 578 46 576 0 c 1
 414 1 l 1
 416 32 416 49 416 64 c 0
 416 79 416 93 416 121 c 0
 416 136 416 152 416 170 c 1
578 332 m 1
 655 345 708 380 743 422 c 1
 783 463 813 570 814 638 c 1
 814 650 l 2
 814 724 796 822 743 888 c 0
 696 947 641 975 576 984 c 1
 577 798 578 639 578 382 c 2
 578 332 l 1
415 335 m 1
 415 585 416 781 416 975 c 1
 380 965 349 947 318 921 c 0
 249 864 200 773 200 605 c 0
 200 538 228 441 284 394 c 0
 317 366 359 345 415 335 c 1
EndSplineSet
Validated: 1
EndChar

StartChar: Psi
Encoding: 936 936 390
Width: 1060
VWidth: 6
Flags: HW
HStem: 404 157<623 779.726> 1302 8G<91.4815 219 458 621 856 1017>
VStem: 74 156<638.971 1291.96> 458 163<1 407.126 562 1310> 870 156<660.308 1298.04>
LayerCount: 2
Fore
SplineSet
74 770 m 0
 74 830 74 886 74 937 c 0
 74 1110 72 1231 50 1295 c 1
 210 1322 l 1
 228 1250 230 1138 230 963 c 0
 230 915 230 863 230 806 c 0
 230 612 340 562 460 562 c 1
 460 614 461 665 461 716 c 0
 461 921 458 1121 458 1310 c 1
 621 1310 l 1
 621 1119 624 940 624 743 c 0
 624 684 624 624 623 561 c 1
 842 561 870 680 870 1028 c 1
 868 1120 864 1220 856 1298 c 1
 1012 1315 l 1
 1022 1233 1026 1132 1026 1066 c 0
 1026 1053 1026 1042 1026 1032 c 0
 1026 644 980 439 621 404 c 1
 619 264 617 127 614 0 c 1
 453 1 l 1
 457 63 458 220 458 275 c 0
 458 316 458 359 458 403 c 1
 203 426 74 586 74 770 c 0
EndSplineSet
Validated: 1
EndChar

StartChar: Omega
Encoding: 937 937 391
Width: 1060
VWidth: 0
Flags: HW
HStem: 1 150<36 201 363.544 394 795 990.956> 1170 153<355.293 696.908>
VStem: 18 159<417.563 946.374> 848 158<446.006 998.677>
LayerCount: 2
Fore
SplineSet
394 1 m 1
 36 1 l 1
 34 151 l 1
 201 151 l 1
 107 268 18 443 18 620 c 0
 18 965 90 1062 160 1157 c 0
 226 1247 350 1323 522 1323 c 0
 758 1323 1006 1233 1006 683 c 2
 1006 672 l 2
 1006 423 885 250 795 151 c 1
 874 152 l 2
 930 152 991 178 991 178 c 1
 1035 30 l 1
 988 17 954 0 882 -0 c 0
 880 0 878 0 876 0 c 2
 608 0 l 1
 579 148 l 1
 652 209 848 383 848 675 c 2
 848 694 l 2
 848 706 848 717 848 729 c 0
 848 831 846 927 798 1020 c 0
 740 1134 615 1170 527 1170 c 0
 432 1170 348 1141 290 1065 c 0
 221 976 177 886 177 624 c 0
 177 413 340 185 421 152 c 1
 394 1 l 1
EndSplineSet
Validated: 1
EndChar

StartChar: tonos
Encoding: 900 900 392
Width: 1060
VWidth: -43
Flags: HW
HStem: 1222 464
VStem: 539 171<1544.67 1627.37>
LayerCount: 2
Fore
SplineSet
362 1311 m 1
 457 1428 500 1533 539 1686 c 1
 710 1622 l 1
 677 1468 594 1338 499 1222 c 1
 362 1311 l 1
EndSplineSet
Validated: 1
EndChar

StartChar: uni03D0
Encoding: 976 976 413
Width: 1060
VWidth: 0
Flags: HW
HStem: 0 153<382.08 683.535> 1176 152<326.166 546.727>
VStem: 69 158<355.459 652.156 799 1033.21> 601 153<885.75 1123.57> 790 154<256.862 551.414>
LayerCount: 2
Fore
SplineSet
227 644 m 1
 234 382 282 153 543 153 c 0
 683 153 790 261 790 395 c 0
 790 591 652 668 449 668 c 0
 381 668 307 660 227 644 c 1
228 799 m 1
 409 811 601 822 601 1005 c 0
 601 1118 525 1176 414 1176 c 0
 349 1176 242 1110 228 799 c 1
69 736 m 0
 69 1156 228 1328 414 1328 c 0
 597 1328 754 1233 754 1011 c 0
 754 909 726 832 670 779 c 1
 847 730 944 598 944 381 c 0
 944 171 811 0 543 0 c 0
 125 0 69 332 69 736 c 0
EndSplineSet
Validated: 1
EndChar

StartChar: theta1
Encoding: 977 977 414
Width: 1060
VWidth: 0
Flags: HW
HStem: -16 153<355.938 639.042> 590 158<315.851 809.976> 1170 153<376.726 649.237>
VStem: 41 159<335.307 590> 104 158<803.102 1057.71> 812 160<363.616 588.282 742 957.254>
LayerCount: 2
Fore
SplineSet
200 603 m 1xf4
 200 499 232 320 288 247 c 0
 337 182 402 137 510 137 c 0
 626 137 697 224 742 307 c 1
 777 363 805 483 812 584 c 1
 769 590 714 591 650 591 c 0
 599 591 542 590 480 590 c 0
 320 590 104 672 104 918 c 0xec
 104 990 117 1069 184 1160 c 0
 250 1250 380 1323 522 1323 c 0
 632 1323 972 1233 972 632 c 2
 972 621 l 2
 972 457 926 324 878 231 c 0
 803 87 675 -16 510 -16 c 0
 388 -16 263 32 182 132 c 0
 92 242 41 410 41 590 c 1
 200 603 l 1xf4
810 742 m 1
 802 837 782 939 743 1014 c 0
 685 1128 599 1170 527 1170 c 0
 449 1170 374 1143 314 1068 c 0
 266 1008 262 957 262 927 c 0
 266 769 376 748 488 748 c 0
 668 748 759 747 810 742 c 1
EndSplineSet
Validated: 1
EndChar

StartChar: Upsilon1
Encoding: 978 978 415
Width: 1060
VWidth: 4
Flags: HW
HStem: 1070 298<860 971.443>
VStem: 432 156<1 851.827> 860 157<1070 1211.41>
LayerCount: 2
Fore
SplineSet
502 1020 m 1
 565 1165 710 1368 843 1368 c 0
 1010 1368 1017 1258 1017 1076 c 0
 1017 1074 1017 1072 1017 1070 c 1
 860 1070 l 1
 856 1151 848 1200 841 1212 c 1
 823 1199 588 945 588 684 c 2
 588 0 l 1
 432 1 l 1
 432 683 l 2
 432 864 227 1166 28 1215 c 1
 90 1376 l 1
 264 1328 448 1162 502 1020 c 1
EndSplineSet
Validated: 1
EndChar

StartChar: phi1
Encoding: 981 981 418
Width: 1060
VWidth: 6
Flags: HW
HStem: 221 157<307.973 415 578 663.498> 882 157<319.935 416 577 669.179> 1287 20G<416 576>
VStem: 74 158<455.254 787.024> 416 160<1 226.813 381 881 1038.29 1307> 745 159<460.019 806.772>
LayerCount: 2
Fore
SplineSet
656 414 m 1
 721 458 745 534 745 640 c 0
 745 644 745 649 745 653 c 0
 743 764 698 856 577 882 c 1
 578 735 578 591 578 382 c 2
 578 381 l 1
 606 388 630 398 656 414 c 1
415 221 m 1
 188 245 74 384 74 589 c 0
 74 809 164 1018 416 1043 c 1
 416 1099 416 1156 416 1214 c 2
 416 1307 l 1
 576 1307 l 1
 576 1162 l 2
 576 1119 576 1078 576 1039 c 1
 707 1021 789 969 845 884 c 0
 886 821 904 729 904 652 c 0
 904 446 827 259 578 223 c 1
 578 166 579 134 579 102 c 0
 579 74 578 46 576 0 c 1
 414 1 l 1
 416 32 416 49 416 64 c 0
 416 79 416 93 416 121 c 0
 416 149 415 181 415 221 c 1
416 881 m 1
 277 851 232 744 232 596 c 0
 232 478 294 399 415 378 c 1
 415 568 416 728 416 881 c 1
EndSplineSet
Validated: 1
EndChar

StartChar: omega1
Encoding: 982 982 419
Width: 1060
VWidth: 6
Flags: HW
HStem: -10 155<247.366 396.525 640.099 796.103> 868 154<40 127 285.238 750.012 909 983>
VStem: 35 162<200.065 730.861> 436 155<195.231 684> 842 157<189.339 716.729>
LayerCount: 2
Fore
SplineSet
434 684 m 1
 593 703 l 1
 591 618 592 524 591 431 c 0
 592 423 592 414 592 405 c 0
 594 224 644 144 725 144 c 0
 814 144 842 270 842 420 c 0
 842 610 798 747 728 868 c 1
 309 868 l 1
 243 759 197 649 197 468 c 0
 197 299 230 145 310 145 c 0
 380 145 425 196 438 321 c 1
 437 337 436 352 436 368 c 0
 435 474 436 584 434 684 c 1
38 1018 m 1
 94 1022 164 1022 242 1022 c 0
 273 1022 306 1022 340 1022 c 2
 450 1022 l 2
 599 1022 893 1018 967 1018 c 2
 983 1018 l 1
 983 868 l 1
 909 868 l 1
 974 715 999 554 999 441 c 0
 999 218 946 -12 701 -12 c 0
 626 -12 559 33 512 104 c 1
 462 34 393 -10 317 -10 c 0
 91 -10 35 220 35 444 c 0
 35 577 62 722 127 868 c 1
 40 868 l 1
 38 1018 l 1
EndSplineSet
Validated: 1
EndChar

StartChar: uni03D7
Encoding: 983 983 420
Width: 1060
VWidth: 0
Flags: HW
HStem: -345 150<633 821.834> 0 156<704.258 857.742> 863 157<189.125 332.035>
VStem: 349 158<572.649 852.815> 531 158<166.255 447.636> 890 130<-121.514 65 183.895 191>
LayerCount: 2
Fore
SplineSet
18 828 m 1
 18 828 122 1020 269 1020 c 0
 389 1020 507 920 507 740 c 0
 507 715 492 616 470 570 c 1
 517 604 580 658 643 709 c 1
 660 724 l 1
 722 878 769 1018 916 1018 c 0
 980 1018 1004 969 1004 902 c 0
 1004 792 873 668 771 588 c 1
 742 511 689 377 689 287 c 0
 689 194 721 156 773 156 c 0
 825 156 855 180 879 240 c 1
 1020 191 l 1
 1020 169 l 2
 1020 -122 1015 -345 633 -345 c 1
 633 -195 l 1
 836 -195 890 -127 890 55 c 0
 890 58 890 62 890 65 c 1
 842 30 784 0 727 0 c 0
 631 0 531 99 531 279 c 0
 531 304 546 404 568 450 c 1
 521 416 456 360 393 309 c 1
 378 296 l 1
 316 142 269 1 122 1 c 0
 58 1 35 51 35 118 c 0
 35 249 169 354 271 434 c 1
 300 511 349 642 349 732 c 0
 349 825 317 863 265 863 c 0
 213 863 162 789 106 734 c 1
 18 828 l 1
EndSplineSet
Validated: 1
EndChar

StartChar: uni03CF
Encoding: 975 975 421
Width: 1060
VWidth: 0
Flags: HW
HStem: -345 134<633 787.024> -5 21G<116 274> 1288 20G<116 274 851.5 882.943>
VStem: 116 158<-5 508.713 703 1308>
LayerCount: 2
Fore
SplineSet
868 -17 m 1
 822 92 518 474 388 600 c 1
 388 600 304 502 274 431 c 1
 274 -5 l 1
 116 -5 l 1
 116 1308 l 1
 274 1308 l 1
 274 703 l 1
 354 814 425 893 524 996 c 1
 715 1191 841 1289 862 1310 c 1
 973 1204 l 1
 791 1072 544 798 484 725 c 1
 604 608 951 194 1002 59 c 1
 998 -166 957 -345 633 -345 c 1
 633 -211 l 1
 795 -211 855 -133 868 -17 c 1
EndSplineSet
Validated: 1
EndChar

StartChar: uni03D8
Encoding: 984 984 422
Width: 1060
VWidth: 0
Flags: HW
HStem: -315 452<427.707 593.443> 1170 153<376.35 654.552>
VStem: 41 159<320.826 920.593> 426 171<-315 0.137573> 814 158<350.765 944.703>
LayerCount: 2
Fore
SplineSet
284 242 m 0
 333 177 402 137 510 137 c 0
 626 137 698 204 743 287 c 1
 783 351 813 517 814 624 c 1
 814 643 l 2
 814 758 796 911 743 1014 c 0
 685 1128 615 1170 527 1170 c 0
 432 1170 376 1142 318 1066 c 0
 249 977 200 835 200 573 c 0
 200 469 228 315 284 242 c 0
522 1323 m 1
 646 1323 967 1249 972 632 c 1
 972 621 l 2
 972 457 928 304 880 211 c 0
 819 93 721 16 597 -8 c 1
 597 -315 l 1
 426 -315 l 1
 426 -9 l 1
 332 7 241 50 179 127 c 0
 89 237 41 389 41 569 c 0
 41 914 118 1063 188 1158 c 0
 254 1248 366 1320 522 1323 c 1
EndSplineSet
Validated: 1
EndChar

StartChar: uni03D9
Encoding: 985 985 423
Width: 1060
VWidth: 6
Flags: HW
HStem: 8 148<336.609 394 565 632.694> 878 154<352.497 639.881>
VStem: 72 158<273.254 736.885> 394 171<-315 13.8993> 743 159<279.969 758.636>
LayerCount: 2
Fore
SplineSet
654 215 m 1
 719 276 743 382 743 530 c 0
 743 536 743 542 743 548 c 0
 741 732 677 878 500 878 c 0
 292 878 230 713 230 469 c 0
 230 274 317 156 484 156 c 1
 560 157 604 173 654 215 c 1
394 8 m 1
 180 45 72 216 72 464 c 0
 72 756 174 1032 466 1032 c 0
 663 1032 773 963 843 831 c 0
 884 752 902 639 902 543 c 0
 902 283 822 47 565 7 c 1
 565 -315 l 1
 394 -315 l 1
 394 8 l 1
EndSplineSet
Validated: 1
EndChar

StartChar: uni03DB
Encoding: 987 987 424
Width: 1060
VWidth: 4
Flags: HW
HStem: -351 152<538 665.011> 865 153<354.078 994>
VStem: 71 159<258.222 736.59> 696 156<-166.09 -48.8317>
LayerCount: 2
Fore
SplineSet
230 527 m 0
 230 150 378 155 444 150 c 0
 706 129 852 79 852 -95 c 0
 852 -191 802 -343 538 -351 c 1
 516 -199 l 1
 630 -185 696 -168 696 -99 c 0
 696 -33 533 -16 448 -7 c 0
 140 24 71 187 71 527 c 0
 71 894 249 1018 564 1018 c 0
 670 1018 751 1017 827 1017 c 0
 884 1017 937 1017 994 1020 c 1
 997 855 l 1
 955 859 713 865 553 865 c 0
 332 865 230 766 230 527 c 0
EndSplineSet
Validated: 1
EndChar

StartChar: uni03DA
Encoding: 986 986 425
Width: 1060
VWidth: 4
Flags: HW
HStem: -351 152<538 665.011> 1168 153<385.971 985>
VStem: 71 159<313.558 991.449> 696 156<-166.09 -49.6481>
LayerCount: 2
Fore
SplineSet
230 700 m 0
 230 323 294 181 444 150 c 0
 701 97 852 79 852 -95 c 0
 852 -191 802 -343 538 -351 c 1
 516 -199 l 1
 630 -185 696 -168 696 -99 c 0
 696 -33 532 -20 448 -7 c 0
 84 49 71 360 71 700 c 0
 71 1067 186 1321 554 1321 c 0
 660 1321 742 1320 818 1320 c 0
 875 1320 928 1320 985 1323 c 1
 988 1157 l 1
 946 1161 703 1168 543 1168 c 0
 282 1168 230 939 230 700 c 0
EndSplineSet
Validated: 1
EndChar

StartChar: uni03DC
Encoding: 988 988 426
Width: 1060
VWidth: 0
Flags: HW
HStem: 668 150<272 709.255> 1145 153<272 902.784>
VStem: 116 156<3 665 815 1143>
LayerCount: 2
Fore
SplineSet
277 -1 m 1
 116 3 l 1
 116 1298 l 1
 801 1298 l 1
 878 1295 926 1280 960 1263 c 1
 904 1117 l 1
 878 1131 856 1144 758 1145 c 1
 688 1145 l 2
 584 1145 455 1144 272 1143 c 1
 272 815 l 1
 392 815 459 818 581 818 c 0
 669 818 728 804 729 804 c 2
 747 799 l 1
 711 654 l 1
 674 663 623 668 578 668 c 0
 472 668 380 668 272 665 c 1
 272 544 277 92 277 -1 c 1
EndSplineSet
Validated: 1
EndChar

StartChar: uni03DD
Encoding: 989 989 427
Width: 1060
VWidth: -2
Flags: HW
HStem: -308 146<49.4088 280.364> 859 154<538 868.016> 1266 152<574.521 887.522>
VStem: 384 157<-49.4677 859 1013 1231.57>
LayerCount: 2
Fore
SplineSet
384 152 m 0
 384 275 380 857 380 1064 c 0
 380 1207 409 1418 686 1418 c 0
 703 1418 718 1418 732 1418 c 0
 850 1418 867 1413 1007 1321 c 1
 936 1191 l 1
 844 1251 826 1266 694 1266 c 0
 547 1266 538 1168 538 1060 c 2
 538 1013 l 1
 606 1013 664 1012 737 1012 c 1
 841 1009 868 1001 898 992 c 1
 869 846 l 1
 848 853 827 859 771 859 c 2
 538 859 l 1
 539 705 541 156 541 152 c 0
 541 -84 475 -308 136 -308 c 0
 106 -308 74 -307 40 -303 c 1
 50 -156 l 1
 78 -160 104 -162 128 -162 c 0
 336 -162 384 -6 384 152 c 0
EndSplineSet
Validated: 1
EndChar

StartChar: uni0190
Encoding: 400 400 428
Width: 1060
VWidth: 0
Flags: HW
HStem: 0 154<314.01 713.547> 656 151<345.794 605> 1144 153<341.068 760.778>
VStem: 53 152<254.412 548.028> 110 151<879.617 1072.65>
LayerCount: 2
Fore
SplineSet
940 161 m 1xf0
 871 108 750 0 501 0 c 0
 326 0 235 34 157 106 c 0
 68 189 53 289 53 390 c 0xf0
 53 568 115 694 262 730 c 1
 154 766 110 877 110 985 c 0
 110 1180 256 1297 535 1297 c 2
 547 1297 l 2
 772 1297 858 1236 930 1195 c 1
 853 1055 l 1
 783 1097 676 1144 537 1144 c 0
 377 1144 261 1082 261 985 c 0xe8
 261 820 476 807 583 807 c 2
 587 807 l 1
 605 807 l 1
 605 655 l 1
 580 655 554 656 529 656 c 0
 468 656 410 652 338 624 c 0
 231 583 205 455 205 388 c 0
 205 241 328 154 502 154 c 0
 686 154 792 238 842 284 c 1
 940 161 l 1xf0
EndSplineSet
Validated: 1
EndChar

StartChar: uni0227
Encoding: 551 551 483
Width: 1060
VWidth: 0
Flags: W
HStem: -10 21<836 875.95> -6 152<275.367 541.736> 504 144<324.611 659.141> 877 151<316.149 619.625> 1178 225<355 590>
VStem: 78 156<186.95 423.616> 355 235<1178 1403> 696 157<285.558 463.324 597 791.012>
LayerCount: 2
Fore
SplineSet
355 1403 m 1x3f
 590 1403 l 1
 590 1178 l 1
 355 1178 l 1
 355 1403 l 1x3f
EndSplineSet
Refer: 0 97 N 1 0 0 1 0 0 3
Validated: 1
EndChar

StartChar: uni0228
Encoding: 552 552 484
Width: 1060
VWidth: 0
Flags: HW
HStem: -403 125<325.445 530.66> -3 150<257 370 515 898.956> 666 150<260 698> 1144 153<260 889>
VStem: 102 158<147 666 816 1144> 370 145<-70.4613 -3> 534 136<-271.217 -172.936>
LayerCount: 2
Fore
SplineSet
102 1293 m 1
 158 1297 228 1297 306 1297 c 0
 337 1297 370 1297 404 1297 c 2
 514 1297 l 2
 663 1297 799 1294 873 1294 c 2
 889 1294 l 1
 889 1144 l 1
 260 1144 l 1
 260 816 l 1
 698 816 l 1
 698 666 l 1
 260 666 l 1
 260 636 l 2
 260 433 257 224 257 147 c 1
 782 149 l 2
 838 149 899 175 899 175 c 1
 943 27 l 1
 895 14 860 -3 784 -3 c 2
 515 -3 l 1
 515 -24 515 -62 515 -64 c 1
 612 -69 670 -131 670 -235 c 0
 670 -336 570 -403 486 -403 c 0
 420 -403 348 -378 292 -342 c 1
 330 -236 l 1
 363 -254 403 -278 454 -278 c 0
 490 -278 531 -258 534 -220 c 1
 534 -218 l 2
 534 -189 496 -164 448 -164 c 0
 400 -164 398 -171 370 -181 c 1
 370 -3 l 1
 102 -3 l 1
 102 1293 l 1
EndSplineSet
Validated: 1
EndChar

StartChar: uni0229
Encoding: 553 553 485
Width: 1060
VWidth: 0
Flags: HW
HStem: -410 125<383.445 588.66> -5 148<348.888 428 574 677.409> 460 150<440.379 764> 869 152<361.998 651.11>
VStem: 78 158<258.732 429.895 580 738.031> 428 145<-77.4613 -1.32291> 592 136<-278.217 -179.936> 764 159<611 749.303>
LayerCount: 2
Fore
SplineSet
236 580 m 1
 344 591 586 606 729 610 c 2
 764 611 l 1
 758 767 646 869 510 869 c 0
 340 869 237 734 236 580 c 1
509 1021 m 0
 886 1021 923 641 923 503 c 0
 923 483 923 468 922 460 c 1
 637 456 401 439 236 427 c 1
 236 274 319 143 505 143 c 0
 662 143 750 230 785 286 c 1
 906 183 l 1
 894 163 801 20 574 -6 c 1
 573 -26 573 -69 573 -71 c 1
 670 -76 728 -138 728 -242 c 0
 728 -343 628 -410 544 -410 c 0
 478 -410 406 -385 350 -349 c 1
 388 -243 l 1
 421 -261 461 -285 512 -285 c 0
 548 -285 589 -265 592 -227 c 1
 592 -225 l 2
 592 -196 554 -171 506 -171 c 0
 458 -171 456 -178 428 -188 c 1
 428 -5 l 1
 192 29 78 231 78 516 c 0
 78 802 226 1021 509 1021 c 0
EndSplineSet
Validated: 1
EndChar

StartChar: uni022F
Encoding: 559 559 491
Width: 1060
VWidth: 0
Flags: HW
HStem: 1 155<343.159 630.662> 878 154<352.497 639.881> 1157 225<348 584>
VStem: 72 158<272.944 736.885> 348 236<1157 1379> 743 159<279.587 758.636>
LayerCount: 2
Fore
SplineSet
351 1403 m 1xf0
 586 1403 l 1
 586 1178 l 1
 351 1178 l 1
 351 1403 l 1xf0
EndSplineSet
Refer: 14 111 N 1 0 0 1 0 0 3
Validated: 1
EndChar

StartChar: uni0311
Encoding: 785 785 494
Width: 1060
VWidth: -12
Flags: HW
HStem: 1510 153<368.698 648.547>
VStem: 154 156<1387.24 1448.72> 706 166<1396.41 1453.85>
LayerCount: 2
Fore
SplineSet
510 1510 m 4
 417 1510 337 1477 310 1360 c 5
 154 1390 l 5
 202 1615 384 1663 510 1663 c 5
 675 1663 848 1576 872 1399 c 5
 706 1369 l 5
 700 1447 618 1510 510 1510 c 4
EndSplineSet
Validated: 1
EndChar

StartChar: uni0312
Encoding: 786 786 496
Width: 1060
VWidth: -43
Flags: HW
HStem: 1235 420
VStem: 386 152<1502.25 1624.21>
LayerCount: 2
Fore
SplineSet
277 1283 m 1
 315 1395 341 1504 386 1655 c 1
 538 1621 l 1
 520 1479 492 1338 471 1235 c 1
 277 1283 l 1
EndSplineSet
Validated: 1
EndChar

StartChar: uni0313
Encoding: 787 787 497
Width: 1060
VWidth: 26
Flags: HW
HStem: 1099 498
VStem: 428 220<1376 1597> 485 163<1250.63 1376>
LayerCount: 2
Fore
SplineSet
428 1597 m 5xc0
 648 1597 l 5
 648 1382 l 5xc0
 648 1231 581 1155 452 1099 c 5
 399 1226 l 5
 459 1254 485 1277 485 1376 c 5xa0
 428 1376 l 5
 428 1597 l 5xc0
EndSplineSet
Validated: 1
EndChar

StartChar: uni0314
Encoding: 788 788 498
Width: 1060
VWidth: 26
Flags: HW
HStem: 1099 498
VStem: 411 220<1376 1597> 411 163<1250.63 1376>
LayerCount: 2
Fore
SplineSet
631 1597 m 5xc0
 631 1376 l 5xc0
 574 1376 l 5xa0
 574 1277 600 1254 660 1226 c 5
 607 1099 l 5
 478 1155 411 1231 411 1382 c 5
 411 1597 l 5
 631 1597 l 5xc0
EndSplineSet
Validated: 1
EndChar

StartChar: uni0328
Encoding: 808 808 512
Width: 1060
VWidth: 12
Flags: HW
HStem: -444 144<478.778 715.542>
VStem: 310 155<-282.191 -148.225>
LayerCount: 2
Fore
SplineSet
784 41 m 4
 679 -44 465 -142 465 -216 c 4
 465 -272 522 -300 586 -300 c 4
 644 -300 685 -267 715 -245 c 5
 793 -351 l 5
 749 -399 661 -444 582 -444 c 4
 394 -444 310 -351 310 -216 c 4
 310 -36 574 7 623 68 c 5
 784 41 l 4
EndSplineSet
Validated: 1
EndChar

StartChar: ogonek
Encoding: 731 731 513
Width: 1060
VWidth: 12
Flags: HW
HStem: -444 144<478.778 715.542>
VStem: 310 155<-282.191 -148.225>
LayerCount: 2
Fore
SplineSet
784 41 m 4
 679 -44 465 -142 465 -216 c 4
 465 -272 522 -300 586 -300 c 4
 644 -300 685 -267 715 -245 c 5
 793 -351 l 5
 749 -399 661 -444 582 -444 c 4
 394 -444 310 -351 310 -216 c 4
 310 -36 574 7 623 68 c 5
 784 41 l 4
EndSplineSet
Validated: 1
EndChar

StartChar: uni01EA
Encoding: 490 490 516
Width: 1060
VWidth: 0
Flags: HW
HStem: -476 144<497.182 734.362> 1170 153<376.35 654.552>
VStem: 41 159<320.826 920.593> 328 156<-314.775 -133.489> 814 158<350.765 944.703>
LayerCount: 2
Fore
SplineSet
522 1323 m 1
 646 1323 967 1249 972 632 c 1
 972 621 l 2
 972 457 928 304 880 211 c 1
 773 -14 485 -60 484 -248 c 0
 484 -304 540 -332 604 -332 c 0
 662 -332 704 -299 734 -277 c 1
 812 -383 l 1
 768 -431 679 -476 600 -476 c 0
 412 -476 328 -383 328 -248 c 0
 328 -149 371 -88 450 -12 c 1
 348 0 247 43 179 127 c 0
 89 237 41 389 41 569 c 0
 41 914 118 1063 188 1158 c 0
 254 1248 366 1320 522 1323 c 1
284 242 m 0
 333 177 402 137 510 137 c 0
 626 137 698 204 743 287 c 1
 783 351 813 517 814 624 c 1
 814 643 l 2
 814 758 796 911 743 1014 c 0
 685 1128 615 1170 527 1170 c 0
 432 1170 376 1142 318 1066 c 0
 249 977 200 835 200 573 c 0
 200 469 228 315 284 242 c 0
EndSplineSet
Validated: 1
EndChar

StartChar: uni01EB
Encoding: 491 491 517
Width: 1060
VWidth: 0
Flags: HW
HStem: -473 144<449.778 686.542> 878 154<352.497 639.881>
VStem: 72 158<270.649 736.885> 281 155<-311.191 -159.208> 743 159<278.234 758.636>
LayerCount: 2
Fore
SplineSet
654 215 m 1
 719 276 743 382 743 530 c 0
 743 536 743 542 743 548 c 0
 741 732 677 878 500 878 c 0
 292 878 230 713 230 469 c 0
 230 274 317 156 484 156 c 1
 560 157 604 173 654 215 c 1
802 149 m 1
 684 -26 436 -135 436 -245 c 0
 436 -301 493 -329 557 -329 c 0
 615 -329 656 -296 686 -274 c 1
 764 -380 l 1
 720 -428 632 -473 553 -473 c 0
 365 -473 281 -380 281 -245 c 0
 281 -142 364 -71 455 2 c 1
 201 15 72 193 72 464 c 0
 72 756 174 1032 466 1032 c 0
 663 1032 773 963 843 831 c 0
 884 752 902 639 902 543 c 0
 902 392 875 250 802 149 c 1
EndSplineSet
Validated: 1
EndChar

StartChar: uni0326
Encoding: 806 806 520
Width: 1060
VWidth: 26
Flags: HW
HStem: -494 498
VStem: 450 220<-217 4> 506 164<-342.366 -217>
LayerCount: 2
Fore
SplineSet
450 4 m 1xc0
 670 4 l 1
 670 -211 l 2xc0
 670 -362 603 -438 474 -494 c 1
 420 -367 l 1
 480 -339 506 -316 506 -217 c 1xa0
 450 -217 l 1
 450 4 l 1xc0
EndSplineSet
Validated: 1
EndChar

StartChar: uni2016
Encoding: 8214 8214 529
Width: 1060
VWidth: 66
Flags: HW
VStem: 243 162<-194.108 1492> 684 162<-194.108 1492>
LayerCount: 2
Fore
SplineSet
242 152 m 0
 242 517 233 1111 233 1399 c 2
 233 1492 l 1
 393 1492 l 1
 393 1347 l 2
 393 1070 405 558 405 224 c 2
 405 74 l 2
 405 -41 404 -97 399 -198 c 1
 238 -197 l 1
 242 -135 243 -92 243 -37 c 0
 243 10 242 66 242 152 c 0
683 152 m 0
 683 517 674 1111 674 1399 c 2
 674 1492 l 1
 834 1492 l 1
 834 1347 l 2
 834 1070 846 558 846 224 c 2
 846 74 l 2
 846 -41 845 -97 840 -198 c 1
 679 -197 l 1
 683 -135 684 -92 684 -37 c 0
 684 10 683 66 683 152 c 0
EndSplineSet
Validated: 1
EndChar

StartChar: underscoredbl
Encoding: 8215 8215 530
Width: 1060
VWidth: 41
Flags: HW
HStem: -509 152<56 1002> -236 152<56 1002>
LayerCount: 2
Fore
SplineSet
56 -84 m 1
 1002 -84 l 1
 1002 -236 l 1
 52 -236 l 1
 56 -84 l 1
56 -357 m 1
 1002 -357 l 1
 1002 -509 l 1
 52 -509 l 1
 56 -357 l 1
EndSplineSet
Validated: 1
EndChar

StartChar: quoteleft
Encoding: 8216 8216 531
Width: 1060
VWidth: -25
Flags: HW
HStem: 846 651
VStem: 300 253<877.13 1034.19>
LayerCount: 2
Fore
SplineSet
553 846 m 1
 300 879 l 1
 336 1178 518 1388 647 1497 c 1
 783 1357 l 1
 716 1300 577 1074 553 846 c 1
EndSplineSet
Validated: 1
EndChar

StartChar: quoteright
Encoding: 8217 8217 532
Width: 1060
VWidth: -25
Flags: HW
HStem: 816 651
VStem: 562 253<1278.81 1435.87>
LayerCount: 2
Fore
SplineSet
562 1467 m 1
 815 1434 l 1
 779 1135 597 925 468 816 c 1
 332 956 l 1
 399 1013 538 1239 562 1467 c 1
EndSplineSet
Validated: 1
EndChar

StartChar: quotesinglbase
Encoding: 8218 8218 533
Width: 1060
VWidth: -25
Flags: HW
HStem: -328 651
VStem: 481 253<134.815 291.87>
LayerCount: 2
Fore
SplineSet
481 323 m 1
 734 290 l 1
 698 -9 516 -219 387 -328 c 1
 251 -188 l 1
 318 -131 457 95 481 323 c 1
EndSplineSet
Validated: 1
EndChar

StartChar: quotereversed
Encoding: 8219 8219 534
Width: 1060
VWidth: -25
Flags: HW
HStem: 816 651
VStem: 370 253<1278.81 1435.87>
LayerCount: 2
Fore
SplineSet
623 1467 m 1
 647 1239 787 1013 854 956 c 1
 718 816 l 1
 589 925 406 1135 370 1434 c 1
 623 1467 l 1
EndSplineSet
Validated: 1
EndChar

StartChar: quotedblleft
Encoding: 8220 8220 535
Width: 1060
VWidth: -25
Flags: HW
HStem: 911 654
VStem: 152 206<947.286 1112.65> 512 206<945.286 1110.65>
LayerCount: 2
Fore
SplineSet
374 1010 m 0
 366 976 362 944 358 911 c 1
 152 950 l 1
 156 991 161 1026 171 1068 c 0
 236 1328 307 1458 423 1565 c 1
 550 1442 l 1
 496 1391 425 1215 374 1010 c 0
734 1008 m 0
 726 974 722 942 718 909 c 1
 512 948 l 1
 516 989 521 1024 531 1066 c 0
 596 1326 667 1456 783 1563 c 1
 910 1440 l 1
 856 1389 785 1213 734 1008 c 0
EndSplineSet
Validated: 1
EndChar

StartChar: quotedblright
Encoding: 8221 8221 536
Width: 1060
VWidth: -25
Flags: HW
HStem: 830 654
VStem: 340 206<1293.28 1449.71> 700 206<1291.28 1446.78>
LayerCount: 2
Fore
SplineSet
683 1384 m 0
 691 1418 696 1451 700 1484 c 1
 906 1444 l 1
 902 1403 896 1369 886 1327 c 0
 821 1067 750 937 634 830 c 1
 507 952 l 1
 561 1003 632 1179 683 1384 c 0
323 1387 m 0
 331 1421 336 1453 340 1486 c 1
 546 1447 l 1
 542 1406 536 1371 526 1329 c 0
 461 1069 390 939 274 832 c 1
 147 955 l 1
 201 1006 272 1182 323 1387 c 0
EndSplineSet
Validated: 1
EndChar

StartChar: quotedblbase
Encoding: 8222 8222 537
Width: 1060
VWidth: -25
Flags: HW
HStem: -335 654
VStem: 340 206<128.283 284.714> 700 206<126.283 282.714>
LayerCount: 2
Fore
SplineSet
683 220 m 0
 691 254 696 286 700 319 c 1
 906 280 l 1
 902 239 896 204 886 162 c 0
 821 -98 750 -228 634 -335 c 1
 507 -212 l 1
 561 -161 632 15 683 220 c 0
323 222 m 0
 331 256 336 288 340 321 c 1
 546 282 l 1
 542 241 536 206 526 164 c 0
 461 -96 390 -226 274 -333 c 1
 147 -210 l 1
 201 -159 272 17 323 222 c 0
EndSplineSet
Validated: 1
EndChar

StartChar: uni201F
Encoding: 8223 8223 538
Width: 1060
VWidth: -25
Flags: HW
HStem: 830 653
VStem: 213 206<1281.35 1446.71> 573 206<1284.35 1449.71>
LayerCount: 2
Fore
SplineSet
435 1384 m 0
 486 1179 558 1003 612 952 c 1
 484 830 l 1
 368 937 297 1067 232 1327 c 0
 222 1369 217 1403 213 1444 c 1
 419 1483 l 1
 423 1450 427 1418 435 1384 c 0
795 1387 m 0
 846 1182 917 1006 971 955 c 1
 844 832 l 1
 728 939 657 1069 592 1329 c 0
 582 1371 577 1406 573 1447 c 1
 779 1486 l 1
 783 1453 787 1421 795 1387 c 0
EndSplineSet
Validated: 1
EndChar

StartChar: daggerdbl
Encoding: 8225 8225 539
Width: 1060
VWidth: 6
Flags: HW
HStem: 194 163<60 399 563 905> 1008 162<64.3538 392 554 905>
VStem: 391 160<-194.108 192 357 1008 1172 1492>
LayerCount: 2
Fore
SplineSet
563 192 m 1
 563 74 l 2
 563 -41 562 -97 557 -198 c 1
 396 -197 l 1
 400 -135 401 -92 401 -37 c 0
 401 10 400 66 400 152 c 0
 400 165 400 179 400 193 c 1
 351 193 303 194 252 194 c 0
 192 194 129 193 60 189 c 1
 60 349 l 1
 189 356 294 357 399 357 c 1
 398 562 396 799 394 1008 c 1
 301 1008 195 1014 55 1023 c 1
 55 1076 55 1130 58 1181 c 1
 194 1172 301 1170 392 1170 c 1
 391 1257 391 1336 391 1399 c 2
 391 1492 l 1
 551 1492 l 1
 551 1347 l 2
 551 1296 551 1237 552 1172 c 1
 666 1175 763 1179 905 1179 c 1
 905 1020 l 1
 766 1020 670 1013 554 1010 c 1
 557 799 561 559 562 356 c 1
 679 354 784 349 907 349 c 1
 905 188 l 1
 784 188 678 191 563 192 c 1
EndSplineSet
Validated: 1
EndChar

StartChar: bullet
Encoding: 8226 8226 540
Width: 1060
VWidth: 0
Flags: HW
HStem: 237 552<357.429 654.571>
VStem: 230 552<364.429 661.571>
LayerCount: 2
Fore
SplineSet
230 513 m 0
 230 665 354 789 506 789 c 0
 658 789 782 665 782 513 c 0
 782 361 658 237 506 237 c 0
 354 237 230 361 230 513 c 0
EndSplineSet
Validated: 1
EndChar

StartChar: uni2023
Encoding: 8227 8227 541
Width: 1060
VWidth: 0
Flags: HW
HStem: 190 667
VStem: 198 608<476 542>
LayerCount: 2
Fore
SplineSet
226 857 m 1
 806 542 l 1
 806 476 l 1
 230 190 l 1
 198 278 l 1
 198 781 l 1
 226 857 l 1
EndSplineSet
Validated: 1
EndChar

StartChar: dagger
Encoding: 8224 8224 546
Width: 1060
VWidth: 6
Flags: HW
HStem: 1023 158<58 389.631 554 905>
VStem: 401 162<-194.108 1008 1172 1492>
LayerCount: 2
Fore
SplineSet
552 1172 m 1
 666 1175 763 1179 905 1179 c 1
 905 1020 l 1
 766 1020 670 1013 554 1010 c 1
 558 751 563 448 563 224 c 2
 563 74 l 2
 563 -41 562 -97 557 -198 c 1
 396 -197 l 1
 400 -135 401 -92 401 -37 c 0
 401 10 400 66 400 152 c 0
 400 389 397 724 394 1008 c 1
 301 1008 195 1014 55 1023 c 1
 55 1076 55 1130 58 1181 c 1
 194 1172 301 1170 392 1170 c 1
 391 1257 391 1336 391 1399 c 2
 391 1492 l 1
 551 1492 l 1
 551 1347 l 2
 551 1296 551 1237 552 1172 c 1
EndSplineSet
Validated: 1
EndChar

StartChar: guilsinglleft
Encoding: 8249 8249 547
Width: 1060
VWidth: 6
Flags: HW
VStem: 585 152<103.907 161.156> 599 156<871.117 942.4>
LayerCount: 2
Fore
SplineSet
269 574 m 1x80
 413 704 576 836 599 976 c 1
 755 939 l 1x40
 715 750 579 627 454 518 c 1
 582 400 692 281 737 109 c 1
 585 55 l 1
 547 204 427 318 269 459 c 1
 269 574 l 1x80
EndSplineSet
Validated: 1
EndChar

StartChar: guilsinglright
Encoding: 8250 8250 548
Width: 1060
VWidth: 6
Flags: HW
VStem: 313 156<96.5998 167.883> 331 152<877.844 935.093>
LayerCount: 2
Fore
SplineSet
799 465 m 1x40
 655 335 492 203 469 63 c 1
 313 100 l 1x80
 353 289 489 412 614 521 c 1
 486 639 376 758 331 930 c 1
 483 984 l 1
 521 835 641 721 799 580 c 1
 799 465 l 1x40
EndSplineSet
Validated: 1
EndChar

StartChar: uni203D
Encoding: 8253 8253 550
Width: 1060
VWidth: 0
Flags: HW
HStem: 0 270<400 650> 1172 158<625 713.171>
VStem: 148 157<870.844 1110.69> 400 250<0 270> 434 175<431 601.6 784 1165> 782 160<885.793 1106.04>
LayerCount: 2
Fore
SplineSet
400 0 m 1xf4
 400 270 l 1
 650 270 l 1
 650 0 l 1
 400 0 l 1xf4
429 1165 m 1
 356 1139 306 1082 305 989 c 0
 305 942 330 894 356 862 c 1
 222 772 l 1
 181 832 148 899 148 984 c 0
 148 1182 271 1291 428 1325 c 1
 428 1376 l 1
 626 1376 l 1
 625 1330 l 1
 804 1300 942 1177 942 993 c 0
 942 834 796 736 718 670 c 0
 667 627 613 562 610 483 c 1
 609 477 l 1
 609 431 l 1
 434 431 l 1
 434 475 l 1xec
 429 1165 l 1
615 784 m 1
 701 851 782 899 782 989 c 0
 782 1078 725 1147 622 1172 c 1
 620 1043 617 913 615 784 c 1
EndSplineSet
Validated: 1
EndChar

StartChar: uni2047
Encoding: 8263 8263 551
Width: 1060
VWidth: 0
Flags: HW
HStem: 0 270<122 372 575 825> 1182 155<133.651 419.457 611.099 872.299>
VStem: 122 250<0 270> 156 175<431 598.664> 477 160<876.981 1125.27> 575 250<0 270> 609 175<431 598.664> 930 160<876.981 1122.17>
LayerCount: 2
Fore
SplineSet
122 270 m 1xe1
 372 270 l 1
 372 0 l 1
 122 0 l 1
 122 270 l 1xe1
-31 1197 m 1
 40 1292 162 1337 294 1337 c 0
 385 1337 458 1316 513 1278 c 1
 579 1318 661 1337 747 1337 c 0
 978 1337 1090 1205 1090 993 c 0
 1090 834 971 736 893 670 c 0
 841 626 784 559 784 477 c 2
 784 431 l 1
 609 431 l 1
 609 475 l 2
 609 595 661 673 745 747 c 0
 845 836 930 883 930 989 c 0
 930 1101 871 1182 739 1182 c 0
 691 1182 646 1172 609 1153 c 1xc3
 627 1107 637 1053 637 993 c 0
 637 834 518 736 440 670 c 0
 388 626 331 559 331 477 c 2
 331 431 l 1
 156 431 l 1
 156 475 l 2
 156 595 208 673 292 747 c 0
 392 836 477 883 477 989 c 0xd9
 477 1101 418 1182 286 1182 c 0
 193 1182 113 1147 79 1074 c 1
 -31 1197 l 1
575 270 m 1xc5
 825 270 l 1
 825 0 l 1
 575 0 l 1
 575 270 l 1xc5
EndSplineSet
Validated: 1
EndChar

StartChar: uni2048
Encoding: 8264 8264 552
Width: 1060
VWidth: 0
Flags: HW
HStem: 0 270<191 441 712 962> 1182 155<202.651 488.299>
VStem: 191 250<0 270> 225 175<431 598.664> 546 160<876.981 1122.17> 712 250<0 270> 739 198<557.952 1376> 755 166<463 1280.84>
LayerCount: 2
Fore
SplineSet
191 270 m 1xe8
 441 270 l 1
 441 0 l 1
 191 0 l 1
 191 270 l 1xe8
38 1197 m 1
 109 1292 231 1337 363 1337 c 0
 594 1337 706 1205 706 993 c 0
 706 834 587 736 509 670 c 0
 457 626 400 559 400 477 c 2
 400 431 l 1
 225 431 l 1
 225 475 l 2xd8
 225 595 277 673 361 747 c 0
 461 836 546 883 546 989 c 0
 546 1101 487 1182 355 1182 c 0
 262 1182 182 1147 148 1074 c 1
 38 1197 l 1
EndSplineSet
Refer: 68 33 N 1 0 0 1 324 0 2
Validated: 1
EndChar

StartChar: uni2049
Encoding: 8265 8265 553
Width: 1060
VWidth: 0
Flags: HW
HStem: 0 270<91 341 564 814> 1182 155<575.651 861.299>
VStem: 91 250<0 270> 118 198<557.952 1376> 134 166<463 1280.84> 564 250<0 270> 598 175<431 598.664> 919 160<876.981 1122.17>
LayerCount: 2
Fore
SplineSet
564 270 m 1xc5
 814 270 l 1
 814 0 l 1
 564 0 l 1
 564 270 l 1xc5
411 1197 m 1
 482 1292 604 1337 736 1337 c 0
 967 1337 1079 1205 1079 993 c 0
 1079 834 960 736 882 670 c 0
 830 626 773 559 773 477 c 2
 773 431 l 1
 598 431 l 1
 598 475 l 2xc3
 598 595 650 673 734 747 c 0
 834 836 919 883 919 989 c 0
 919 1101 860 1182 728 1182 c 0
 635 1182 555 1147 521 1074 c 1
 411 1197 l 1
EndSplineSet
Refer: 68 33 N 1 0 0 1 -297 0 2
Validated: 1
EndChar

StartChar: arrowleft
Encoding: 8592 8592 554
Width: 1060
VWidth: 6
Flags: HW
HStem: 448 152<280 1058>
VStem: 321 152<97.9069 152.877> 335 156<862.084 936.4>
LayerCount: 2
Fore
SplineSet
5 568 m 1xc0
 149 698 312 830 335 970 c 1
 491 933 l 1xa0
 461 789 374 684 280 594 c 1
 400 599 528 600 615 600 c 0
 656 600 695 600 734 600 c 0
 816 600 933 599 1040 598 c 1
 1058 598 l 1
 1058 445 l 1
 1040 445 l 1
 905 448 738 448 613 448 c 0
 552 448 406 446 265 440 c 1
 360 344 437 240 473 103 c 1
 321 49 l 1
 283 198 163 312 5 453 c 1
 5 568 l 1xc0
EndSplineSet
Validated: 1
EndChar

StartChar: arrowup
Encoding: 8593 8593 555
Width: 1060
VWidth: 66
Flags: HW
HStem: 910 156<848.001 922.4> 928 152<83.9069 141.156>
VStem: 418 163<-126 1122>
LayerCount: 2
Fore
SplineSet
554 1396 m 1x60
 684 1252 816 1089 956 1066 c 1
 919 910 l 1xa0
 775 941 669 1027 578 1122 c 1
 578 861 581 612 581 296 c 2
 581 146 l 2
 581 31 580 -25 575 -126 c 1
 414 -126 l 1
 418 -64 419 -21 419 34 c 0
 419 81 418 138 418 224 c 2
 418 1128 l 1
 324 1037 222 963 89 928 c 1
 35 1080 l 1
 184 1118 298 1238 439 1396 c 1
 554 1396 l 1x60
EndSplineSet
Validated: 1
EndChar

StartChar: arrowright
Encoding: 8594 8594 556
Width: 1060
VWidth: 6
Flags: HW
HStem: 447 152<15 793>
VStem: 582 156<861.084 935.4> 600 152<96.9069 151.877>
LayerCount: 2
Fore
SplineSet
1068 567 m 1xc0
 1068 452 l 1
 910 311 790 197 752 48 c 1
 600 102 l 1xa0
 636 239 713 343 808 439 c 1
 667 445 521 447 460 447 c 0
 335 447 168 447 33 444 c 1
 15 444 l 1
 15 597 l 1
 33 597 l 1
 140 598 257 599 339 599 c 0
 378 599 417 599 458 599 c 0
 545 599 673 598 793 593 c 1
 699 683 612 788 582 932 c 1
 738 969 l 1
 761 829 924 697 1068 567 c 1xc0
EndSplineSet
Validated: 1
EndChar

StartChar: arrowdown
Encoding: 8595 8595 557
Width: 1060
VWidth: 66
Flags: HW
HStem: 224 152<83.9069 141.156> 238 156<848.001 922.4>
VStem: 418 163<181 1425.11>
LayerCount: 2
Fore
SplineSet
554 -92 m 1x60
 439 -92 l 1
 298 66 184 186 35 224 c 1
 89 376 l 1xa0
 222 341 324 266 418 175 c 1
 418 1080 l 2
 418 1166 419 1221 419 1268 c 0
 419 1323 418 1366 414 1428 c 1
 575 1430 l 1
 580 1329 581 1273 581 1158 c 2
 581 1008 l 2
 581 692 578 442 578 181 c 1
 669 276 775 363 919 394 c 1
 956 238 l 1
 816 215 684 52 554 -92 c 1x60
EndSplineSet
Validated: 1
EndChar

StartChar: arrowboth
Encoding: 8596 8596 558
Width: 1060
VWidth: 6
Flags: HW
HStem: 447 152<258 793>
VStem: 298 152<102.907 158.209> 312 156<867.084 941.4> 582 156<861.084 935.4> 600 152<96.9069 151.877>
LayerCount: 2
Fore
SplineSet
1068 567 m 1xb0
 1068 452 l 1
 910 311 790 197 752 48 c 1
 600 102 l 1
 636 239 713 343 808 439 c 1
 667 445 521 447 460 447 c 0
 395 447 318 447 241 447 c 1
 337 350 414 246 450 108 c 1
 298 54 l 1xc8
 260 203 140 317 -18 458 c 1
 -18 573 l 1
 126 703 289 835 312 975 c 1
 468 938 l 1
 438 794 352 689 258 599 c 1
 287 599 315 599 339 599 c 0
 378 599 417 599 458 599 c 0
 545 599 673 598 793 593 c 1
 699 683 612 788 582 932 c 1
 738 969 l 1
 761 829 924 697 1068 567 c 1xb0
EndSplineSet
Validated: 1
EndChar

StartChar: arrowupdn
Encoding: 8597 8597 559
Width: 1060
VWidth: 66
Flags: HW
HStem: 224 152<83.9069 141.156> 238 156<848.517 922.4> 910 156<848.001 922.4> 928 152<83.9069 141.156>
VStem: 418 163<184 1122>
LayerCount: 2
Fore
SplineSet
554 -92 m 1x68
 439 -92 l 1
 298 66 184 186 35 224 c 1
 89 376 l 1
 222 341 324 266 418 175 c 1
 418 177 l 2
 418 192 418 207 418 224 c 2
 418 1128 l 1
 324 1037 222 963 89 928 c 1
 35 1080 l 1x98
 184 1118 298 1238 439 1396 c 1
 554 1396 l 1
 684 1252 816 1089 956 1066 c 1
 919 910 l 1
 775 941 669 1027 578 1122 c 1
 578 861 581 612 581 296 c 2
 581 184 l 1
 671 278 776 364 919 394 c 1
 956 238 l 1
 816 215 684 52 554 -92 c 1x68
EndSplineSet
Validated: 1
EndChar

StartChar: uni21C4
Encoding: 8644 8644 560
Width: 1060
VWidth: 6
Flags: HW
HStem: 256 152<254 1032> 1087 152<35 813>
VStem: 295 152<-94.0931 -39.166> 309 156<670.006 744.4> 602 156<1502.01 1576.4> 620 152<737.907 792.834>
LayerCount: 2
Fore
SplineSet
1088 1208 m 1xc8
 1088 1093 l 1
 930 952 810 838 772 689 c 1
 620 743 l 1xc4
 656 880 732 983 827 1079 c 1
 686 1085 541 1087 480 1087 c 0
 355 1087 188 1087 53 1084 c 1
 35 1084 l 1
 35 1237 l 1
 53 1237 l 1
 160 1238 277 1239 359 1239 c 0
 398 1239 437 1239 478 1239 c 0
 565 1239 693 1238 813 1233 c 1
 719 1323 632 1429 602 1573 c 1
 758 1610 l 1
 781 1470 944 1338 1088 1208 c 1xc8
-21 376 m 1
 123 506 286 638 309 778 c 1
 465 741 l 1xd0
 435 597 348 491 254 401 c 1
 374 406 502 408 589 408 c 0
 630 408 669 408 708 408 c 0
 790 408 907 407 1014 406 c 1
 1032 406 l 1
 1032 253 l 1
 1014 253 l 1
 879 256 712 256 587 256 c 0
 526 256 380 253 239 247 c 1
 334 151 411 48 447 -89 c 1
 295 -143 l 1xe0
 257 6 137 120 -21 261 c 1
 -21 376 l 1
EndSplineSet
Validated: 1
EndChar

StartChar: uni21C5
Encoding: 8645 8645 561
Width: 1060
VWidth: 66
Flags: HW
VStem: 225 163<-126 234 237 1122> 703 163<79 964 966 1323.11>
LayerCount: 2
Fore
SplineSet
703 966 m 1
 703 1055 l 2
 703 1170 704 1226 709 1327 c 1
 870 1326 l 1
 866 1264 865 1221 865 1166 c 0
 865 1119 866 1063 866 977 c 2
 866 73 l 1
 948 162 934 212 1014 324 c 1
 1118 231 l 1
 1028 106 986 -37 845 -195 c 1
 730 -195 l 1
 601 -52 503 152 388 234 c 1
 388 146 l 2
 388 31 387 -25 382 -126 c 1
 221 -126 l 1
 225 -64 226 -21 226 34 c 0
 226 81 225 138 225 224 c 2
 225 1128 l 1
 131 1037 166 979 86 867 c 1
 -52 949 l 1
 38 1074 105 1238 246 1396 c 1
 361 1396 l 1
 490 1253 588 1048 703 966 c 1
703 964 m 1
 603 841 l 1
 486 931 476 1027 385 1122 c 1
 385 861 388 612 388 296 c 2
 388 237 l 1
 488 359 l 1
 605 269 615 174 706 79 c 1
 706 340 703 589 703 905 c 2
 703 964 l 1
EndSplineSet
Validated: 1
EndChar

StartChar: uni21C6
Encoding: 8646 8646 562
Width: 1060
VWidth: 6
Flags: HW
HStem: 256 152<41 819> 1087 152<260 1038>
VStem: 301 152<737.907 792.834> 315 156<1502.01 1576.4> 608 156<670.006 744.4> 626 152<-94.0931 -39.166>
LayerCount: 2
Fore
SplineSet
1094 376 m 1xc8
 1094 261 l 1
 936 120 816 6 778 -143 c 1
 626 -89 l 1xc4
 662 48 738 151 833 247 c 1
 692 253 547 256 486 256 c 0
 361 256 194 256 59 253 c 1
 41 253 l 1
 41 406 l 1
 59 406 l 1
 166 407 283 408 365 408 c 0
 404 408 443 408 484 408 c 0
 571 408 699 406 819 401 c 1
 725 491 638 597 608 741 c 1
 764 778 l 1
 787 638 950 506 1094 376 c 1xc8
-15 1208 m 1
 129 1338 292 1470 315 1610 c 1
 471 1573 l 1xd0
 441 1429 354 1323 260 1233 c 1
 380 1238 508 1239 595 1239 c 0
 636 1239 675 1239 714 1239 c 0
 796 1239 913 1238 1020 1237 c 1
 1038 1237 l 1
 1038 1084 l 1
 1020 1084 l 1
 885 1087 718 1087 593 1087 c 0
 532 1087 386 1085 245 1079 c 1
 340 983 417 880 453 743 c 1
 301 689 l 1xe0
 263 838 143 952 -15 1093 c 1
 -15 1208 l 1
EndSplineSet
Validated: 1
EndChar

StartChar: uni21C7
Encoding: 8647 8647 563
Width: 1060
VWidth: 6
Flags: HW
HStem: 258 152<255 1033> 1088 152<250 1028>
VStem: 296 152<-86.4746 -36.166 1489.77 1573.35>
LayerCount: 2
Fore
SplineSet
-25 1208 m 1
 119 1338 282 1470 305 1610 c 1
 461 1573 l 1
 431 1429 344 1323 250 1233 c 1
 370 1238 498 1240 585 1240 c 0
 626 1240 665 1240 704 1240 c 0
 786 1240 903 1239 1010 1238 c 1
 1028 1238 l 1
 1028 1085 l 1
 1010 1085 l 1
 875 1088 708 1088 583 1088 c 0
 522 1088 376 1086 235 1080 c 1
 330 984 407 880 443 743 c 1
 413 599 349 494 255 404 c 1
 375 409 503 410 590 410 c 0
 631 410 670 410 709 410 c 0
 791 410 908 409 1015 408 c 1
 1033 408 l 1
 1033 255 l 1
 1015 255 l 1
 880 258 713 258 588 258 c 0
 527 258 381 256 240 250 c 1
 335 154 412 51 448 -86 c 1
 296 -140 l 1
 258 9 138 123 -20 264 c 1
 -20 379 l 1
 108 495 232 616 274 740 c 1
 224 865 114 969 -25 1093 c 1
 -25 1208 l 1
EndSplineSet
Validated: 1
EndChar

StartChar: uni21C8
Encoding: 8648 8648 564
Width: 1060
VWidth: 66
Flags: HW
VStem: 246 163<-126 1122> 724 163<-126 1122>
LayerCount: 2
Fore
SplineSet
860 1396 m 1
 990 1252 1022 1122 1090 963 c 1
 986 891 l 1
 947 978 932 1053 884 1122 c 1
 884 861 887 612 887 296 c 2
 887 146 l 2
 887 31 886 -25 881 -126 c 1
 720 -126 l 1
 724 -64 725 -21 725 34 c 0
 725 81 724 138 724 224 c 2
 724 1128 l 1
 686 1061 657 972 608 861 c 1
 506 861 l 1
 470 995 441 1080 406 1122 c 1
 406 861 409 612 409 296 c 2
 409 146 l 2
 409 31 408 -25 403 -126 c 1
 242 -126 l 1
 246 -64 247 -21 247 34 c 0
 247 81 246 138 246 224 c 2
 246 1128 l 1
 152 1037 160 988 80 876 c 1
 -30 951 l 1
 60 1076 126 1238 267 1396 c 1
 382 1396 l 1
 473 1311 531 1235 567 1168 c 1
 604 1237 660 1315 745 1396 c 1
 860 1396 l 1
EndSplineSet
Validated: 1
EndChar

